<svg id="Слой_2" data-name="Слой 2" xmlns="http://www.w3.org/2000/svg" viewBox="0 0 600 155.76"><defs><style>.cls-1{fill:#fff;}</style></defs><path class="cls-1" d="M232.58,74.94a50.72,50.72,0,0,0,8.11-4c.07,0,.15-.1.13-.43-.06-1.61-2-4.24-3.42-5A10.14,10.14,0,0,0,232.49,64,6.68,6.68,0,0,0,228.83,65c-3.88,2.47-6.09,8.54-6.39,13.93,3.43-1.26,6.48-2.46,9.26-3.66Z" transform="translate(-0.13 0.03)"/><path class="cls-1" d="M334.26,66.81A6.32,6.32,0,0,1,330,72.14a6,6,0,0,1-5.1-.29,3.24,3.24,0,0,1-1.43-2.75V65.86a10.68,10.68,0,0,0-4.85,6,22.83,22.83,0,0,0,1.13,17.33,12.24,12.24,0,0,0,9.4,6.46,7.71,7.71,0,0,0,7-3.48,21.57,21.57,0,0,0,2.89-18.53A12.9,12.9,0,0,0,334.26,66.81Z" transform="translate(-0.13 0.03)"/><path class="cls-1" d="M189,59.06c.09-.65,0-1.66-1.67-3a14.2,14.2,0,0,0-7.83-2.6,6.07,6.07,0,0,0-2.17.34,2.83,2.83,0,0,0-1.88,2.45,121.78,121.78,0,0,0-1.56,14.35C183,66.34,188.56,62.11,189,59.06Z" transform="translate(-0.13 0.03)"/><path class="cls-1" d="M84,91.58l.07.06v0Z" transform="translate(-0.13 0.03)"/><path class="cls-1" d="M109.63,63.36a12.85,12.85,0,0,0,1.1,11.81l2.64,3.71-4.22,1.74a18.78,18.78,0,0,0-8.3,9,21.32,21.32,0,0,0-1.51,12.89l14.51.08V57.8A14.39,14.39,0,0,0,109.63,63.36Z" transform="translate(-0.13 0.03)"/><path class="cls-1" d="M195.73,78.32a17,17,0,0,0-6.91-5.89,99.68,99.68,0,0,1-15.07,8.29c0,4.54.26,11.92,3.81,12.89,5.29,1.44,11.3-1.83,14.65-5.48,2.64-2.88,5.4-6.93,3.52-9.8Z" transform="translate(-0.13 0.03)"/><path class="cls-1" d="M79.74,22a56.41,56.41,0,1,0,56.41,56.41A56.46,56.46,0,0,0,79.74,22Zm.86,19.77A10.9,10.9,0,1,1,69.71,52.61,10.9,10.9,0,0,1,80.6,41.72Zm40.52,68.16h-.37v.56H83l0,3.78-.13.29c-.44,1,.15,1.6-2.32,1.6s-1.82-.67-2.17-1.66l-.08-.23-.08-3.78H39.8v-.59h-.34l.21-64.15L66.51,83.35H57.4l11.1,19.87H78l0-1.31H72.42v-14L78,86.71l0-3.51-7.73-.06v-3.7l20.24-.19v4.08l-7.67-.07,0,3.24,5.56,1L88.51,102,83,102v1.23H95.1c-.67-3.88-2.88-10,.14-16.62,2.53-5.54,7.22-8.91,9.72-10.7-1.4-3.42-3.74-9.13-1-15.44,4.27-9.8,12.3-12,12.68-12.12l4.47-1.05Z" transform="translate(-0.13 0.03)"/><path class="cls-1" d="M80.6,57.09a4.48,4.48,0,1,0-4.48-4.48A4.49,4.49,0,0,0,80.6,57.09Z" transform="translate(-0.13 0.03)"/><path class="cls-1" d="M571.91,96.32l.45.05c0-.07,0-.14,0-.2Z" transform="translate(-0.13 0.03)"/><path class="cls-1" d="M.13,0V155.73h600V0ZM79.74,143.29a64.94,64.94,0,1,1,64.94-64.93A65,65,0,0,1,79.74,143.29ZM204.41,87.75a34.61,34.61,0,0,1-24,16.1,21.88,21.88,0,0,1-3.06.23,13.16,13.16,0,0,1-8.3-2.6c-3.18-2.46-5.11-6.61-5.73-12.33-1.14-10.42-2-23.72,1.59-34.17,1.84-5.36,6.37-9.32,12.45-10.87,6.75-1.72,14.13-.06,18.8,4.22,5.16,4.73,5.63,10.39,1.42,16.13,4.94,3.07,8.11,6.83,9.23,11C207.83,79.36,207,83.51,204.41,87.75Zm48.46,7a6.56,6.56,0,0,1-3.58,5.25,35.67,35.67,0,0,1-15.84,3.82,25.07,25.07,0,0,1-12.37-3c-5.54-3.17-8.7-8.61-9.15-15.73-.59-9.24,2.34-18.48,7.63-24.12a20.15,20.15,0,0,1,15-6.43h0c7.9,0,13.85,4,15.9,10.58,1.85,6,.36,9.76-5.13,13.13-6.79,4.17-14.41,7.13-21.26,9.56A11.11,11.11,0,0,0,230,93.35c4.53,1.83,10.76,1.15,16.68-1.83,2.27-1.14,3.77-.72,4.63-.15A3.7,3.7,0,0,1,252.87,94.79Zm52.06,4.73c-1.05,1.77-3.26,3.65-5.66,3.65h0l-6.94-.08a3.9,3.9,0,0,1-3.91-3c-1.51-6.06-3.25-12.23-5.19-18.36-.31-1-.64-2.21-1-3.49a61.11,61.11,0,0,0-3.15-9.57c-.51,1.26-1,2.52-1.51,3.78-3.72,9.35-7.56,19-12.74,27.76-1.2,2-4.2,3.23-6.43,3.23h-.07A3.52,3.52,0,0,1,255,101.8a3.58,3.58,0,0,1,.32-3.75c5-8.46,8.79-18,12.45-27.15.93-2.34,1.88-4.73,2.84-7.1a4.33,4.33,0,0,1-3.92-.83,4,4,0,0,1-1.16-3.81,5.79,5.79,0,0,1,3.92-4.25c12.45-4.2,17.27,3.83,20.07,11.3A268.89,268.89,0,0,1,298,93.64l3.77,0a3.71,3.71,0,0,1,3.51,1.76A4,4,0,0,1,304.93,99.52Zm34.14,2.06a22.2,22.2,0,0,1-12,3.67,19.75,19.75,0,0,1-6.71-1.17,19.22,19.22,0,0,1-11.87-12.7c-4.28-13.5-.05-30.3,14.45-35a2.68,2.68,0,0,1,.52-.12l.11-.05a6.35,6.35,0,0,1,4.18-5,6,6,0,0,1,5.1.29,3.25,3.25,0,0,1,1.43,2.76v1.34C343,57,348.91,63,350.39,72,352.68,85.91,346.36,96.89,339.07,101.58Zm78.26,2-.45.22h-.49l-2.43-.08c-10.82-.4-17.61-.5-20.25-.29-.27,4-.74,5.56-3,9.36-1.19,2-3.9,3-6,3h-.1a3.41,3.41,0,0,1-3.06-5.54c.37-.6.69-1.12,1-1.57A7.27,7.27,0,0,0,384,103.6c-1.84-.12-5.62.06-8.77.21s-7,.33-10.44.33a4.64,4.64,0,0,1-2.27-.28,3.71,3.71,0,0,1-1.14-.63l-.2-.19a3.09,3.09,0,0,1-.8-1.37,1.9,1.9,0,0,1-.19-.54c-1.65-8-1.19-16.26-.74-24.26.23-4,.46-8.19.41-12.22l-3.21,0h0A3.62,3.62,0,0,1,353.21,63a3.87,3.87,0,0,1,.26-4c1.06-1.86,3.35-3.75,5.68-3.77l7.1,0h0a3.78,3.78,0,0,1,3.93,3.31,142.59,142.59,0,0,1-.28,16c-.38,6.7-.76,13.62.15,20.19h13c-.85-11.32-.28-23,.44-35,.18-3.08,3.82-5.35,6.74-5.18a3.72,3.72,0,0,1,3.65,4.18c-.75,12.41-1.32,24.51-.19,36l14.51,0c-1.77-10.78-1.07-21.69-.39-32.27l.18-2.92c.2-3.08,3.86-5.35,6.76-5.17a3.71,3.71,0,0,1,3.63,4.18L418.23,61c-.77,12.13-1.5,23.58,1.25,35.08C420.31,99.17,420.75,101.88,417.33,103.59Zm45-53.21c-1.88,1.2-7.51,7.85-12.73,16.23,6.54,7.69,12.61,18.71,12.07,27.06-.22,3.44-2.06,11.49-14.24,11.92l-1.14,0h0c-10.47,0-14-5.51-15.17-8.79-3-8.28,1.8-20,6.62-28.87-3.24-3.44-9.14-6.7-11-7.19A2.48,2.48,0,0,1,425,58.88c-.17-.81,0-2.08,1.8-3.49s4.76-2.53,6.93-1.52a39.13,39.13,0,0,1,9,6.19c3.12-4.91,10-15.34,12.68-16.17,1.83-.56,7.11.61,8.19,2.94A2.74,2.74,0,0,1,462.37,50.38Zm57,52.35A16.72,16.72,0,0,1,513.2,104c-4.65,0-8.64-2.53-12.09-7.63-1.19-1.77-2.34-3.59-3.44-5.35l-1-1.6c-.25-.39-.52-.9-.82-1.46-.44-.83-1.37-2.56-1.89-2.83-1.35-.67-2.7-1.31-4.21-2-1.48,1.79-2.81,3.48-4,5.14,0,3.64-.08,7-.17,10.36a5.31,5.31,0,0,1-3.08,4.35c-1.52.82-3.76,1.33-5.48.28a3.78,3.78,0,0,1-1.75-3.51c.28-10.64.18-30.85.14-36.79v-.26c0-3.77,0-3.81,0-5.34,0-.65,0-1.57.08-3.17v-.29c0-.44,0-.89,0-1.27l-.31,0c-.51,0-1.13.08-1.87.11-2.59.09-3.88-1.49-3.93-3.1-.1-2.76,3.29-6.16,6.24-6.26l1.19,0c.8,0,1.62-.08,2.43-.08a13.58,13.58,0,0,1,4.07.55,3.69,3.69,0,0,1,2.63,4c-.4,10.06-.35,15.78-.29,23.7,0,.79,0,1.6,0,2.44a122,122,0,0,1,14-14.08c3.22-2.68,7.52-6.28,12.54-5.28a6.47,6.47,0,0,1,4.43,3,9.12,9.12,0,0,1,.56,7.31c-.64,2.23-3.18,3.81-5.28,4.33-1.79.44-3.28.16-4.21-.81A3.33,3.33,0,0,1,507.1,65L507,65a92.39,92.39,0,0,0-8.14,7.82l-2.07,2.24A17.75,17.75,0,0,1,504.91,82c.54.86,1.11,1.9,1.72,3,3.35,6,6.44,10.88,10.44,9.28,3-1.2,5.06,0,5.76,1.74C523.7,98.18,522.48,101.47,519.34,102.73Zm54.49,1.3h-2.12c-6.61,0-10.09-.87-10.5-9.85-.3-6.63-.19-13.36,0-19.6q-9,12.36-18.06,24.72a7.38,7.38,0,0,1-6.78,4.11,3.68,3.68,0,0,1-3.45-3.21c-1-6.51-.62-13.3-.23-19.86.13-2.26.27-4.6.34-6.84,0-1,.08-1.93.14-2.92a46.39,46.39,0,0,0,.07-6.76l-4.67-.05A3.76,3.76,0,0,1,525.09,62a4,4,0,0,1,.35-4.11c1.1-1.86,3.48-3.73,5.78-3.72.53,0,1.25-.05,2-.11,3.12-.24,7-.54,9.11,1.69,1.89,2,1.68,5.58,1.53,8.19,0,.52-.06,1-.06,1.36,0,3.6-.25,7.31-.46,10.91-.16,2.57-.32,5.19-.4,7.8L562.7,57a2.86,2.86,0,0,1,.27-.31c1.6-2.11,4.83-3.29,7-2.54a3.76,3.76,0,0,1,2.53,4c-.08,1.82-.17,3.64-.26,5.47-.41,8.07-.83,16.42-.59,24.56,0,.47,0,1.09,0,1.78a30.15,30.15,0,0,0,.1,4.31l.54.06a10.53,10.53,0,0,0,1.29.11l2.75,0h.06c2.67,0,3.89,1.65,3.91,3.29C580.36,100.58,576.83,104,573.83,104Z" transform="translate(-0.13 0.03)"/><path class="cls-1" d="M439.87,93.59c.3.84,1,2.88,7.3,2.67,5.26-.18,5.39-2.2,5.47-3.41.27-4.24-2.9-11.06-8.23-17.91C440.28,83.15,438.58,90,439.87,93.59Z" transform="translate(-0.13 0.03)"/><polygon class="cls-1" points="53.66 76.11 46.74 67.07 46.62 102.62 61.7 102.62 46.89 76.11 53.66 76.11"/><path class="cls-1" d="M80.22,90.29h0a7,7,0,0,1,1,.09l-.67-.3Z" transform="translate(-0.13 0.03)"/></svg>