<?xml version="1.0" encoding="utf-8"?>
<!-- Generator: Adobe Illustrator 26.0.2, SVG Export Plug-In . SVG Version: 6.00 Build 0)  -->
<svg version="1.1" id="Слой_1" xmlns="http://www.w3.org/2000/svg" xmlns:xlink="http://www.w3.org/1999/xlink" x="0px" y="0px"
	 viewBox="0 0 580 124.2" style="enable-background:new 0 0 580 124.2;" xml:space="preserve">
<style type="text/css">
	.st0{fill:#FFFFFF;}
</style>
<path class="st0" d="M305.6,53.4c-0.1,2.3-1.5,4.3-3.6,5.1c-1.4,0.6-3,0.6-4.3-0.1c-0.8-0.6-1.3-1.5-1.3-2.5v-3.4
	c-1.9,1.3-3.3,3.1-4,5.3c-1.9,5.8-1.7,12.1,0.8,17.7c1.7,3.6,5,6.1,8.2,6.3c2.4,0.1,4.4-1,5.9-3.4c3.5-5.7,4.3-12.6,2.3-19
	C308.9,57,307.5,55,305.6,53.4z"/>
<path class="st0" d="M71.8,43.1c2.6,0,4.8-2.1,4.8-4.8c0-2.6-2.1-4.8-4.8-4.8c-2.6,0-4.8,2.1-4.8,4.7C67,40.9,69.1,43.1,71.8,43.1
	C71.8,43.1,71.8,43.1,71.8,43.1z"/>
<path class="st0" d="M341.5,60.9c4.8-3.1,19.5-12.4,18.9-16.6c-0.1-0.8-1.2-1.5-3-2.1c-4.6-1.4-10.9-1.6-15.7-1.6
	C341.7,48.7,341.7,54.5,341.5,60.9L341.5,60.9z"/>
<path class="st0" d="M353.1,63.3c-2,1.3-4.1,2.4-6,3.5c-1.4,0.7-2.8,1.5-4.1,2.4l-0.4,0.3c-0.5,0.4-1.1,0.8-1.7,1.2
	c-0.1,4,0.4,7.9,1.6,11.7c0.4,1.8,1.9,3.1,3.7,3.3c4.9,0.9,12.6-3.5,15.2-6.8s3.6-6.1,2.9-8.4C363.4,67.7,359.6,65.3,353.1,63.3z"/>
<path class="st0" d="M218.2,62.8c2.4-1.1,4.8-2.4,7-3.9c0.1,0,0.2-0.2,0.2-0.7c-0.3-2-1.4-3.8-3-5.1c-1.2-0.9-2.7-1.3-4.2-1.4
	c-0.9,0-1.9,0.3-2.7,0.8c-3.7,2.2-5.8,8.6-6,14.3c2.9-1.2,5.6-2.4,8-3.5L218.2,62.8z"/>
<polygon class="st0" points="49.9,59.8 41.3,48.6 41.2,83.2 56.7,83.2 43.7,59.8 "/>
<path class="st0" d="M96.5,48.4c-2.6,5.9,1,10.2,1,10.2l1.7,2.4l-2.7,1.1c-3.5,1.8-6.2,4.8-7.7,8.3c-1.8,3.9-2.2,8.4-1.2,12.6
	l14.3,0.1v-41C99.5,43.7,97.6,45.9,96.5,48.4z"/>
<path class="st0" d="M71.8,13c-26.5-0.1-48,21.4-48,47.8c-0.1,26.5,21.4,48,47.8,48s48-21.4,48-47.8c0,0,0-0.1,0-0.1
	C119.6,34.6,98.2,13.1,71.8,13z M71.8,29.6c4.8,0,8.8,3.9,8.8,8.7s-3.9,8.8-8.7,8.8c-4.8,0-8.8-3.9-8.8-8.7c0,0,0-0.1,0-0.1
	C63.1,33.5,67,29.6,71.8,29.6z M62.7,60.1L80.5,60v4.5h-6.8V67l5.8,2.6L79.7,81h-4l0-8.8l-3.9-1.7l-4.2,2v8.4h-3.9V69.9l5.8-2.8
	v-2.7l-6.8-0.1L62.7,60.1z M106.6,87.9h-0.3v0.5H74.5v4c-0.5,1-1.6,1.7-2.8,1.7c-1.1,0.1-2.2-0.6-2.7-1.6v-0.1L69,88.4H36.8v-0.5
	h-0.3l0.2-53.2l22.8,29.9h-7.7l10.7,19.2h6.4l-0.2-9.5l0,0c0.5-1.1,1.6-1.7,2.8-1.6c1.2-0.1,2.4,0.5,3.2,1.4v0.1v0.1l-0.1,9.5h8.3
	c-1.1-5.1-0.5-10.4,1.6-15.1c1.7-3.8,4.5-7.1,7.9-9.5c-2-4.3-2.1-8.2-0.3-12.6c2.1-5,6.3-8.7,11.4-10.2l2.9-0.7L106.6,87.9z"/>
<path class="st0" d="M161.1,60.9c4.8-3.1,19.5-12.4,18.9-16.6c-0.1-0.8-1.2-1.5-3-2.1c-4.6-1.4-10.9-1.6-15.7-1.6
	C161.4,48.7,161.4,54.5,161.1,60.9L161.1,60.9z"/>
<path class="st0" d="M172.7,63.3c-2,1.3-4.1,2.4-6,3.5c-1.4,0.7-2.8,1.5-4.1,2.4l-0.4,0.3c-0.5,0.4-1.1,0.8-1.7,1.2
	c-0.1,4,0.4,7.9,1.6,11.7c0.4,1.8,1.9,3.1,3.7,3.4c5,0.9,12.6-3.5,15.2-6.8s3.6-6.1,2.9-8.4C183.1,67.7,179.2,65.3,172.7,63.3z"/>
<path class="st0" d="M472.6,70.6c-2.1,3.3-4.4,9.5-3.6,11.2c2-0.1,4-0.6,5.9-1.4c1.9-0.8,3.8-1.7,5.5-2.8c1.1-0.7,2.1-1.5,3.1-2.2
	c0.5-0.4,1-0.7,1.4-1c-0.6-3.6-1.3-6.6-1.9-9.3C479.4,65.7,474.4,67.6,472.6,70.6z"/>
<path class="st0" d="M441.1,52.5c-0.5-0.1-0.9-0.2-1.4-0.2c-3.7,0-5.4,4.2-5.8,5.5c-1.9,5.9-2.7,13.1-2.6,21.6
	c8.5-2.2,14.2-8,15.7-16.1C447.8,59.1,445.8,53.7,441.1,52.5z"/>
<path class="st0" d="M0.9,2v120.2h579.3V2H0.9z M71.8,115.5c-30.1,0.1-54.5-24.3-54.6-54.4S41.5,6.6,71.6,6.5s54.5,24.3,54.6,54.4
	c0,0,0,0.1,0,0.1C126.2,91,101.8,115.4,71.8,115.5z M192,77.7c-3.8,7.1-12.5,15-21.9,16.2c-1.1,0.1-2.2,0.2-3.2,0.2
	c-3.5,0.2-7-1.1-9.7-3.4c-6.8-6.2-6.1-19.6-5.4-32.4c0.3-6.5,0.6-12.6,0-17.4l-0.8,0.1h-0.1c-0.7,0.1-1.5,0.1-2.1,0.1
	c-1.7,0.3-3.3-0.9-3.6-2.6c-0.1-0.8,0.1-1.7,0.6-2.4c1.1-1.9,3-3.1,5.2-3.3c1.7,0,3.9-0.1,6.2-0.2c9.5-0.5,22.4-1.1,28.8,3.9
	c2.7,2.1,4,4.6,4,7.4c0,3.9-2.8,8.2-8.5,13c6.2,2.4,10.1,5.6,11.7,9.5C194.6,69.8,194.2,73.6,192,77.7L192,77.7z M232.6,86.6
	c-4.2,2.4-8.9,3.6-13.7,3.7c-3.4,0.1-6.7-0.7-9.7-2.3c-5.3-2.9-8.4-8.3-8.8-15.6c-0.5-9.4,2.3-18.6,7.3-23.9
	c3.1-3.4,7.5-5.4,12.2-5.3c6.9,0,11.9,3.7,13.7,10.1c1.5,5.6,0.3,9.1-4.3,12.3c-6,4.1-12.6,7-18.5,9.3c1,2.7,3.1,4.8,5.7,5.9
	c3.8,1.5,9,0.8,13.8-1.9c1.8-1,3.1-0.7,3.9-0.3c1,0.6,1.6,1.8,1.5,3C235.5,83.6,234.4,85.5,232.6,86.6L232.6,86.6z M280.7,87.1
	c-1,1.6-2.8,3.2-4.7,3.2l-6-0.1c-1.6,0-3-1.1-3.3-2.7c-1.3-5.9-2.8-11.8-4.5-17.8c-0.3-1-0.5-2.1-0.8-3.3c-0.7-3.2-1.6-6.3-2.7-9.4
	c-0.4,1.2-0.9,2.5-1.3,3.7c-3.2,9-6.5,18.4-10.9,26.8c-1.2,1.8-3.2,3-5.3,3.1h-0.2c-1.1,0.1-2.2-0.4-2.8-1.3
	c-0.6-1.1-0.6-2.5,0.2-3.5c4.3-8.2,7.6-17.4,10.7-26.3v-0.1c0.8-2.4,1.7-4.8,2.6-7.2c-1.8,0.6-3.8-0.3-4.4-2.1
	c-0.2-0.6-0.3-1.3-0.1-1.9c0.3-1.8,1.6-3.4,3.3-4c3.8-1.4,6.9-1.5,9.6-0.2c3.3,1.6,5.7,5.1,7.7,11c2.6,7.9,5,16.6,7.3,26.6h3.3
	c1.2-0.1,2.3,0.5,3,1.5C281.7,84.4,281.5,85.9,280.7,87.1L280.7,87.1z M309.8,87c-3,2.3-6.6,3.5-10.4,3.6c-1.7,0-3.5-0.3-5.1-0.9
	c-5.3-1.8-9.1-6.2-10.8-12.4c-3.6-12.9,0-28.9,12.4-33.5c0.1,0,0.3-0.1,0.4-0.1l0.2-0.1c0.2-2.1,1.6-4,3.5-4.8
	c1.4-0.6,3-0.6,4.3,0.2c0.9,0.6,1.4,1.5,1.3,2.5V43c7.5,1.3,12.6,7.1,13.9,15.7C320.9,68,318.4,80.8,309.8,87z M372.4,77.7
	c-3.8,7.1-12.5,14.9-21.9,16.2c-1.1,0.1-2.1,0.2-3.2,0.2c-3.6,0.2-7-1.1-9.7-3.4c-6.8-6.2-6.1-19.5-5.4-32.4
	c0.3-6.5,0.6-12.6,0-17.4l-0.9,0.1c-0.8,0.1-1.5,0.1-2.1,0.1c-1.7,0.3-3.3-0.9-3.6-2.6c-0.1-0.8,0.1-1.7,0.6-2.4
	c1.1-1.9,3-3.1,5.2-3.3c1.7,0,3.9-0.1,6.2-0.2c9.5-0.5,22.5-1.1,28.8,3.9c2.7,2.1,4,4.6,4,7.4c0,3.9-2.8,8.2-8.5,13
	c6.2,2.4,10.1,5.6,11.6,9.5C374.9,69.8,374.5,73.6,372.4,77.7L372.4,77.7z M416.1,87c-0.9,1.4-2.6,3.1-4.6,3.1h0l-2.3-0.1h-1.1
	c-1.6,0-3-1.2-3.3-2.7c-0.2-1.1-0.5-2.7-0.8-4.5c-3.3,2.5-6.9,4.5-10.8,6c-2.5,1-5.2,1.6-8,1.7l0,0c-1.6,0.1-3.2-0.3-4.5-1.2
	c-1.8-1.2-2.9-3.3-2.9-5.5c-0.5-7.3,3.7-15.8,8-19.8c3.5-3.2,7.7-5.4,12.2-6.6c-1.6-3.7-3.1-5-4.1-5.5c-0.7-0.3-1.5-0.3-2.2,0
	c-1.3,0.6-2.9,0.5-4-0.4c-1-0.9-1.4-2.2-1.2-3.5c0.3-1.8,1.6-3.3,3.3-4c3.8-1.4,7-1.5,9.8-0.1c3.1,1.5,5.4,4.7,6.9,9.5
	c2.2,7.6,4.1,15.4,5.5,23.2c0.3,1.6,0.6,3.1,1,4.7h0.6c1.2-0.1,2.3,0.5,3,1.6C417.2,84.2,417,85.8,416.1,87L416.1,87z M455.2,66.6
	c-4.1,11.2-12.4,18.8-23.5,21.6c0.4,5,1.1,10.1,2.1,15.3c0.2,1.8-0.5,3.6-1.9,4.7c-1.1,1-2.5,1.5-3.9,1.6c-0.4,0-0.9-0.1-1.3-0.2
	c-1.2-0.4-2.1-1.5-2.2-2.7c-1.9-9.9-7-43.4,5.1-57.3c3.8-4.4,8.9-6.5,15.2-6.2c3.7,0.1,7.2,2,9.3,5.1
	C457.1,53,457.6,60.3,455.2,66.6L455.2,66.6z M498.4,87c-1,1.6-2.8,3.1-4.7,3.1l-2.2-0.1h-1.1c-1.6,0-3-1.2-3.3-2.7
	c-0.2-1.1-0.5-2.7-0.8-4.5c-3.3,2.5-6.9,4.5-10.8,6c-2.5,1-5.2,1.5-7.9,1.6c-1.6,0.1-3.2-0.3-4.5-1.2c-1.8-1.2-2.8-3.3-2.8-5.4
	c-0.5-7.3,3.7-15.8,8-19.8c3.5-3.2,7.7-5.4,12.2-6.6c-1.6-3.7-3.1-5-4.1-5.5c-0.7-0.3-1.5-0.3-2.2,0c-1.3,0.6-2.9,0.5-4-0.4
	c-1-0.9-1.4-2.2-1.2-3.5c0.3-1.8,1.6-3.3,3.3-4c3.8-1.4,7-1.5,9.8-0.1c3,1.5,5.4,4.7,6.9,9.5c2.2,7.6,4.1,15.4,5.5,23.2l1,4.7h0.6
	c1.2-0.1,2.3,0.6,2.9,1.6C499.5,84.2,499.3,85.8,498.4,87L498.4,87z M560.5,48.7c-0.4,1.1-1.3,1.8-2.5,2C557.4,62,556.9,72,559.3,83
	c0.4,1.9,0.6,4.5-0.6,6.1c-0.6,0.8-1.6,1.2-2.6,1.2c-3.7,0-7.1,0-10.4,0.1h-0.1c-3.1,0-6,0.1-9.1,0c-0.1,0.3-0.3,0.7-0.4,0.9
	c-0.9,2.1-2.1,5-4.4,5.9c-0.4,0.2-0.9,0.2-1.3,0.2c-0.7,0-1.3-0.2-1.9-0.5c-3.1-1.6-2.4-4.7-1.7-6.7H512c-0.7,0.1-1.4,0-2-0.3
	c-0.4-0.1-0.7-0.3-1-0.6l-0.1-0.1c-0.3-0.4-0.6-0.8-0.7-1.3c-0.1-0.2-0.1-0.3-0.2-0.5c-1.4-7.7-1-15.7-0.6-23.4
	c0.2-4,0.4-8.2,0.3-12.2h-2.8c-1.2,0.1-2.3-0.5-2.9-1.4c-0.6-1.3-0.5-2.7,0.3-3.9c1-1.7,2.8-3.3,4.8-3.3h5.5h0.6
	c1.7-0.1,3.2,1.2,3.4,3c0.2,5.2,0.1,10.4-0.2,15.5c-0.3,6.6-0.7,13.4,0.2,19.9h8.1h3.3c-0.8-11.1-0.3-22.5,0.4-34.3
	c0.2-2.8,3.3-4.9,5.7-4.8c1.8,0.1,3.2,1.6,3.2,3.4c0,0.1,0,0.2,0,0.4c-0.7,12.1-1.2,24-0.1,35.3h12.7c-1.6-10.5-1-21.3-0.4-31.6
	l0.2-2.8c0-1.4,0.5-2.7,1.5-3.7c2.1-1.8,6.8-0.5,8.1,0.4C560.3,44.7,561.5,46.2,560.5,48.7z"/>
<path class="st0" d="M390.2,70.6c-2.1,3.3-4.4,9.5-3.6,11.2c2-0.1,4-0.6,5.9-1.4c1.9-0.8,3.8-1.7,5.5-2.8c1-0.7,2.1-1.5,3.1-2.2
	l1.4-1c-0.6-3.6-1.3-6.6-1.9-9.3C397.1,65.7,392.1,67.6,390.2,70.6z"/>
</svg>
