<?xml version="1.0" encoding="utf-8"?>
<!-- Generator: Adobe Illustrator 26.0.2, SVG Export Plug-In . SVG Version: 6.00 Build 0)  -->
<svg version="1.1" id="Слой_1" xmlns="http://www.w3.org/2000/svg" xmlns:xlink="http://www.w3.org/1999/xlink" x="0px" y="0px"
	 viewBox="0 0 97.9 97.9" style="enable-background:new 0 0 97.9 97.9;" xml:space="preserve">
<style type="text/css">
	.st0{fill:#FFFFFF;}
</style>
<path class="st0" d="M41.8,72.9H17.3l0.2-46.5l19.4,25.3H30L41.8,72.9z M20.7,69.5H36L24.1,48.3h5.8l-9.1-11.9L20.7,69.5z"/>
<path class="st0" d="M80.1,73l-19.6-0.1l-0.4-1.1C58.4,66.6,58.6,61,60.9,56c1.6-3.5,4.1-6.5,7.4-8.6c-1.9-3.8-2.1-7.3-0.4-11.3
	c1.9-4.4,5.6-7.7,10.1-9l2.1-0.5L80.1,73z M62.9,69.4l13.7,0.1V31.3c-2.5,1.4-4.5,3.5-5.7,6.2c-1.4,3.5-1,6.4,1,9.6l1.2,1.7l-2,0.8
	c-3.2,1.7-5.8,4.4-7.3,7.8C62.3,61.2,61.9,65.4,62.9,69.4z"/>
<polygon class="st0" points="41.1,48.6 56.4,48.5 56.4,51.7 41.1,51.6 "/>
<polygon class="st0" points="47.2,49 47.3,56 50.4,56 50.2,49 "/>
<polygon class="st0" points="52.9,66.6 52.8,58.8 48.9,57 44.7,59 44.7,66.6 42,66.6 42,57.3 48.9,54 55.6,57 55.6,66.6 "/>
<path class="st0" d="M46.3,61c0.4-0.9,1.4-1.4,2.4-1.3c1.1,0,2.1,0.5,2.7,1.3l-0.2,16.3c-0.5,0.9-1.4,1.4-2.4,1.4
	c-0.9,0.1-1.8-0.5-2.2-1.3L46.3,61z"/>
<path class="st0" d="M48.9,35.9c-4.1,0-7.5-3.4-7.5-7.5s3.4-7.5,7.5-7.5s7.5,3.4,7.5,7.5l0,0C56.4,32.5,53.1,35.9,48.9,35.9z
	 M48.9,23.6c-2.6,0-4.8,2.1-4.8,4.8c0,2.6,2.1,4.8,4.8,4.8c2.6,0,4.8-2.1,4.8-4.8c0,0,0,0,0,0C53.7,25.8,51.6,23.6,48.9,23.6
	C48.9,23.6,48.9,23.6,48.9,23.6z"/>
<rect x="17.5" y="70" class="st0" width="62.2" height="3.4"/>
</svg>
