<svg id="Слой_1" data-name="Слой 1" xmlns="http://www.w3.org/2000/svg" viewBox="0 0 588.49 116.16"><defs><style>.cls-1{fill:#fff;}</style></defs><path class="cls-1" d="M235.54,87.62c-12.37,7-31.17,5.36-32.26-13.86-.77-13.57,5.27-29.82,19.37-29.81,5.94,0,11.24,2.91,13.1,9.62,1.51,5.46.28,8.42-4,11.36-6.61,4.55-14.08,7.71-21.41,10.58,3.58,11.59,15,12.25,24.44,6.93C238.81,80.16,238.71,85.83,235.54,87.62ZM209.4,70.38c3.79-1.51,7.56-3.11,11.26-4.88a52.33,52.33,0,0,0,8.71-4.83c2.64-2-.75-7.75-3.21-9.3C214.86,44.27,208.7,59.59,209.4,70.38Z" transform="translate(-3.43 -3.38)"/><path class="cls-1" d="M221.52,91.64a20.38,20.38,0,0,1-9.76-2.28c-5.3-2.89-8.32-8.28-8.73-15.59-.55-9.82,2.32-19.32,7.5-24.8a16.14,16.14,0,0,1,12.11-5.27h0c6.75,0,11.61,3.58,13.34,9.8,1.49,5.4.38,8.56-4.1,11.64-6.77,4.66-14.5,7.88-21.24,10.52,1.38,4.3,4,7.33,7.63,8.77,4.58,1.82,10.7,1,16.37-2.21,1.36-.76,2.17-.61,2.62-.35a2,2,0,0,1,.84,1.86,5,5,0,0,1-2.45,4.11h0A29.22,29.22,0,0,1,221.52,91.64Zm1.12-47.44a15.61,15.61,0,0,0-11.74,5.12c-5.1,5.38-7.92,14.74-7.37,24.42.4,7.13,3.33,12.38,8.47,15.18,6.3,3.45,15.71,2.84,23.41-1.51h0a4.55,4.55,0,0,0,2.2-3.69,1.54,1.54,0,0,0-.59-1.41c-.48-.29-1.21-.16-2.12.35-5.89,3.32-12,4.14-16.81,2.23-3.82-1.52-6.58-4.73-8-9.31l-.07-.22.22-.08c6.77-2.65,14.56-5.87,21.36-10.55,4.32-3,5.34-5.88,3.89-11.09-1.65-6-6.34-9.44-12.85-9.44ZM209.18,70.74l0-.34c-.48-7.32,2.21-16.8,7.54-20,2.87-1.71,6.1-1.46,9.61.74,1.85,1.17,4.17,4.64,4.28,7.2a2.82,2.82,0,0,1-1.06,2.51,46.87,46.87,0,0,1-7.92,4.45l-.83.4c-3.31,1.59-7,3.19-11.27,4.89ZM220.65,49.8a7.09,7.09,0,0,0-3.7,1.05c-5.08,3-7.68,12-7.32,19.17,4.13-1.65,7.71-3.2,10.92-4.75l.83-.4a47,47,0,0,0,7.85-4.4,2.34,2.34,0,0,0,.85-2.09c-.1-2.42-2.29-5.69-4.05-6.8A10.24,10.24,0,0,0,220.65,49.8Z" transform="translate(-3.43 -3.38)"/><path class="cls-1" d="M283.54,91.38l-6.49-.08a1.85,1.85,0,0,1-1.87-1.52Q273,80,270.3,70.4c-1.24-4.38-2.67-13.09-6-17.76C259.8,65,255.74,77.89,249.7,89.34,248.31,92,242,93,244,89.18c6.53-12.35,10.73-26.43,15.7-39.62A6,6,0,0,0,257,50c-4.17,1.57-4.17-3.8-.74-5.09,8.94-3.38,13.32,1.3,16.44,10.6a310.13,310.13,0,0,1,8.23,30.1l5,.06C289.94,85.67,286.33,91.42,283.54,91.38Z" transform="translate(-3.43 -3.38)"/><path class="cls-1" d="M245.29,92a1.88,1.88,0,0,1-1.7-.72,2.17,2.17,0,0,1,.23-2.17c4.76-9,8.32-19,11.76-28.75,1.24-3.47,2.51-7.05,3.81-10.53a5.72,5.72,0,0,0-2.31.4c-1.5.57-2.36.24-2.82-.14a2.38,2.38,0,0,1-.7-2.3,4.14,4.14,0,0,1,2.6-3.12c3.67-1.38,6.68-1.48,9.2-.28,3.14,1.49,5.54,5,7.56,11a307.6,307.6,0,0,1,8.2,29.93l4.78.06a2,2,0,0,1,1.86.86,2.85,2.85,0,0,1-.42,2.72c-.8,1.34-2.35,2.68-3.77,2.68h0l-6.5-.08a2.07,2.07,0,0,1-2.1-1.72c-1.42-6.39-3.06-12.9-4.88-19.37-.29-1-.59-2.25-.9-3.57-1-4.29-2.41-10.1-4.78-13.71-.89,2.46-1.79,5-2.65,7.42-3.46,9.74-7,19.81-11.81,28.85a5.75,5.75,0,0,1-4.48,2.5Zm13.88-42.67q.3,0,.6,0l.32,0-.11.31c-1.35,3.56-2.66,7.26-3.93,10.83-3.45,9.73-7,19.79-11.79,28.82-.38.73-.47,1.31-.25,1.67a1.56,1.56,0,0,0,1.41.48,5.18,5.18,0,0,0,4.05-2.23c4.77-9,8.34-19.07,11.79-28.79.92-2.59,1.87-5.27,2.82-7.88l.17-.44.27.38c2.59,3.65,4.05,9.8,5.12,14.28.32,1.32.62,2.57.9,3.56,1.82,6.47,3.47,13,4.89,19.39a1.58,1.58,0,0,0,1.62,1.33l6.49.08h0c1.24,0,2.61-1.22,3.34-2.44a2.41,2.41,0,0,0,.41-2.22,1.54,1.54,0,0,0-1.43-.6l-5.17-.06-.05-.19a305.09,305.09,0,0,0-8.22-30.08c-2-5.91-4.3-9.32-7.3-10.75-2.4-1.13-5.28-1-8.81.3a3.62,3.62,0,0,0-2.29,2.73,1.94,1.94,0,0,0,.52,1.83,2.36,2.36,0,0,0,2.34.06A6.24,6.24,0,0,1,259.17,49.28Z" transform="translate(-3.43 -3.38)"/><path class="cls-1" d="M329.12,59.22c1.53,10.4-1.45,23-9.75,29-9.75,7-22.22,3.24-25.85-9.57s-.28-29.5,12.34-34.14a4.14,4.14,0,0,1,.44-.08,3.37,3.37,0,0,1,.38-.19c.34-.09.67-.1,1-.18v-.92a4.44,4.44,0,0,1,2.78-4.06c1-.44,3.55-.68,3.55,1.24v3.26C321.53,44.25,327.7,49.5,329.12,59.22ZM314,50.16v2.9a4.46,4.46,0,0,1-2.77,4.07c-1,.43-3.56.68-3.56-1.25V49.73c-.48.07-1,.14-1.47.26-9,3.8-9.55,19.58-5.53,27.95,3.65,7.59,13.25,11.51,18.52,3.34C325.89,70.92,324,53.77,314,50.16Z" transform="translate(-3.43 -3.38)"/><path class="cls-1" d="M309.11,91.94a15.23,15.23,0,0,1-5-.85c-5.21-1.81-9.05-6.22-10.8-12.4-3.76-13.3-.12-29.81,12.49-34.44a1.71,1.71,0,0,1,.32-.07.8.8,0,0,0,.15,0l.09,0a1,1,0,0,1,.28-.13c.2,0,.4-.08.59-.11l.23,0v-.72a4.71,4.71,0,0,1,2.93-4.29,3.84,3.84,0,0,1,3.18,0,1.63,1.63,0,0,1,.72,1.43v3c8.14.85,13.78,6.76,15.11,15.85h0c1.41,9.63-1.07,22.87-9.86,29.22A17.82,17.82,0,0,1,309.11,91.94ZM312,39a3.94,3.94,0,0,0-1.48.28,4.25,4.25,0,0,0-2.63,3.84v1.12l-.19.05-.47.08a4.71,4.71,0,0,0-.52.09l-.17.08-.18.1-.25,0a.78.78,0,0,0-.21,0c-12.33,4.53-15.88,20.75-12.17,33.83,1.7,6,5.42,10.31,10.48,12.07,4.86,1.69,10.32.73,15-2.63,8.62-6.22,11-19.26,9.66-28.73C327.57,50.33,322,44.55,314,43.8l-.23,0V40.29a1.12,1.12,0,0,0-.49-1A2.29,2.29,0,0,0,312,39Zm-.4,47.08a5.06,5.06,0,0,1-.55,0c-4.18-.26-8.45-3.48-10.63-8a28.92,28.92,0,0,1-.92-20.83c1.39-3.65,3.66-6.22,6.57-7.45a12.91,12.91,0,0,1,1.29-.24l.53-.08v6.44a1.11,1.11,0,0,0,.5,1,3.38,3.38,0,0,0,2.7,0,4.21,4.21,0,0,0,2.63-3.84V49.8l.34.12c3.64,1.32,6.5,4.57,8,9.14a27.29,27.29,0,0,1-2.73,22.36C317.46,84.44,314.72,86.07,311.64,86.07Zm-4.21-36c-.39.06-.76.12-1.16.21-2.75,1.16-4.93,3.64-6.26,7.16a28.4,28.4,0,0,0,.9,20.44c2.1,4.37,6.2,7.48,10.21,7.73,2.19.13,5.36-.52,7.87-4.41a26.75,26.75,0,0,0,2.68-21.93c-1.45-4.28-4.07-7.36-7.41-8.7v2.54a4.71,4.71,0,0,1-2.92,4.29,3.8,3.8,0,0,1-3.18,0,1.61,1.61,0,0,1-.73-1.43Z" transform="translate(-3.43 -3.38)"/><path class="cls-1" d="M431,91.14,427.31,91a1.84,1.84,0,0,1-1.87-1.52c-.35-1.69-.75-4.39-1.26-7.61-4.41,3-8.58,6.11-13.68,7.92-4.6,1.63-13.69,4.12-14.25-3.73-.5-7,3.41-15.67,8.16-20A31.52,31.52,0,0,1,419,58.76c-2.35-6.33-5.53-10.57-9.95-8.9-4.17,1.57-4.17-3.8-.75-5.09,7.83-3,13,.21,15.74,9,3.23,10.3,5,21,7.22,31.57l2.07.06C437.35,85.49,433.75,91.22,431,91.14Zm-7.62-14.36c-.72-4.2-1.62-8.77-2.77-13a.76.76,0,0,1-.16,0c-4.38.43-11.37,2.77-14.06,7-1.55,2.47-6,11.46-3.67,14.49,1.12,1.44,7.05-.58,8.41-1.13A36.14,36.14,0,0,0,417.42,81C419.44,79.68,421.35,78.16,423.33,76.78Z" transform="translate(-3.43 -3.38)"/><path class="cls-1" d="M402.46,91.77a7.4,7.4,0,0,1-4.08-1A5.73,5.73,0,0,1,396,86.11c-.53-7.44,3.78-16.14,8.24-20.25a31.45,31.45,0,0,1,14.38-7.28c-1.74-4.61-3.73-7.45-5.9-8.43a4.55,4.55,0,0,0-3.62-.06,2.7,2.7,0,0,1-2.83-.14,2.39,2.39,0,0,1-.69-2.3,4.11,4.11,0,0,1,2.59-3.12c3.67-1.38,6.83-1.45,9.41-.19,2.92,1.42,5.16,4.56,6.66,9.34a241.2,241.2,0,0,1,5.92,25.08c.42,2.1.83,4.21,1.27,6.31l1.87.06a2,2,0,0,1,1.87.9,2.9,2.9,0,0,1-.47,2.79c-.77,1.25-2.24,2.57-3.69,2.57h-.07l-2.49-.07-1.15,0a2.07,2.07,0,0,1-2.1-1.72c-.3-1.42-.64-3.59-1-6.1L424,82.33l-1.31.9c-3.91,2.69-7.6,5.23-12.1,6.83A25.37,25.37,0,0,1,402.46,91.77Zm8.43-42.53a4.88,4.88,0,0,1,2,.45c2.37,1.08,4.42,4,6.26,9l.1.27L419,59a30.93,30.93,0,0,0-14.43,7.22c-4.38,4-8.6,12.55-8.08,19.84a5.22,5.22,0,0,0,2.15,4.27c2.25,1.47,6.21,1.22,11.77-.75,4.43-1.57,8.09-4.1,12-6.77L424,81.7l.32-.23.3,1.91c.4,2.51.73,4.67,1,6.08a1.58,1.58,0,0,0,1.62,1.32l1.16,0,2.48.07h0c1.2,0,2.58-1.15,3.32-2.33a2.5,2.5,0,0,0,.45-2.29,1.54,1.54,0,0,0-1.44-.64l-2.08-.06H431l0-.19c-.45-2.17-.88-4.34-1.31-6.51a236.56,236.56,0,0,0-5.91-25c-1.45-4.64-3.61-7.69-6.39-9-2.46-1.2-5.49-1.12-9,.21a3.61,3.61,0,0,0-2.28,2.73,1.91,1.91,0,0,0,.52,1.83,2.31,2.31,0,0,0,2.33.06A5.64,5.64,0,0,1,410.89,49.24Zm-6.57,36.9a2.25,2.25,0,0,1-1.84-.6c-2.57-3.31,2.54-13,3.65-14.77C409,66.26,416.2,64,420.38,63.62l.14,0,.22,0,.06.21c1,3.57,1.89,7.81,2.77,13l0,.16-.13.09c-.82.57-1.63,1.17-2.44,1.77-1.12.83-2.29,1.69-3.47,2.47a35.69,35.69,0,0,1-6.39,3.27C411.12,84.51,406.94,86.14,404.32,86.14Zm16.06-22c-3.92.39-11.12,2.61-13.82,6.91-1.69,2.69-5.87,11.39-3.69,14.21.89,1.14,6.09-.38,8.12-1.21a36,36,0,0,0,6.3-3.23c1.17-.77,2.32-1.63,3.44-2.45.77-.57,1.54-1.14,2.32-1.69C422.2,71.69,421.32,67.59,420.38,64.12Z" transform="translate(-3.43 -3.38)"/><path class="cls-1" d="M476.88,67c-4.6,12.67-14.25,20.23-25.84,22.65A171,171,0,0,0,453.49,108c.63,3.36-5.88,6.83-6.61,2.94-3.82-20.36-8.69-68,20.21-66.75C478.18,44.63,480.27,57.65,476.88,67Zm-23.26-9.49c-2.5,7.83-3.18,17-2.88,26.27,9.6-1.78,18.47-7.92,20.67-19.37C473.85,51.67,458.06,43.56,453.62,57.47Z" transform="translate(-3.43 -3.38)"/><path class="cls-1" d="M448.88,112.87a2.37,2.37,0,0,1-.85-.14,2.13,2.13,0,0,1-1.39-1.78c-2-10.59-7.5-46.28,5.13-60.86,3.8-4.38,9-6.47,15.33-6.19A10.8,10.8,0,0,1,476,48.76c3,4.49,3.45,11.84,1.11,18.29-4.39,12.06-13.55,20.13-25.82,22.76a170.36,170.36,0,0,0,2.44,18.11,4,4,0,0,1-1.61,3.58A5.24,5.24,0,0,1,448.88,112.87ZM466,44.38a17.51,17.51,0,0,0-13.85,6c-12.49,14.41-7,49.9-5,60.44a1.65,1.65,0,0,0,1.07,1.4,4.07,4.07,0,0,0,3.6-1.14,3.45,3.45,0,0,0,1.44-3.11,170.45,170.45,0,0,1-2.45-18.38l0-.22.22,0c12.2-2.54,21.31-10.52,25.66-22.48h0c2.29-6.3,1.87-13.48-1-17.85a10.25,10.25,0,0,0-8.52-4.63C466.71,44.38,466.35,44.38,466,44.38ZM450.5,84v-.29c-.34-10.4.63-19.27,2.9-26.36,2.13-6.7,6.74-8.11,10.33-7.19,6.28,1.6,9,8.62,7.93,14.22-2,10.34-9.59,17.47-20.87,19.57Zm11.16-33.61c-4,0-6.64,3.49-7.8,7.12h0c-2.22,7-3.19,15.68-2.88,25.89,10.9-2.12,18.25-9.07,20.18-19.11,1-5.38-1.56-12.12-7.56-13.65A8,8,0,0,0,461.66,50.43Z" transform="translate(-3.43 -3.38)"/><path class="cls-1" d="M520.5,91.14,516.86,91A1.83,1.83,0,0,1,515,89.51c-.36-1.69-.76-4.39-1.27-7.61-4.41,3-8.58,6.11-13.68,7.92-4.6,1.63-13.69,4.12-14.24-3.73-.5-7,3.41-15.67,8.16-20a31.44,31.44,0,0,1,14.54-7.29c-2.35-6.33-5.53-10.57-9.95-8.9-4.17,1.57-4.17-3.8-.75-5.09,7.83-3,13,.21,15.74,9,3.23,10.3,5,21,7.22,31.57l2.08.06C526.9,85.49,523.3,91.22,520.5,91.14Zm-7.62-14.36c-.72-4.2-1.62-8.77-2.77-13l-.15,0c-4.38.43-11.38,2.77-14.06,7-1.55,2.47-6,11.46-3.67,14.49,1.11,1.44,7-.58,8.4-1.13A36.58,36.58,0,0,0,507,81C509,79.68,510.9,78.16,512.88,76.78Z" transform="translate(-3.43 -3.38)"/><path class="cls-1" d="M492,91.77a7.43,7.43,0,0,1-4.08-1,5.69,5.69,0,0,1-2.37-4.65C485,78.67,489.33,70,493.8,65.86a31.35,31.35,0,0,1,14.38-7.28c-1.75-4.61-3.74-7.45-5.91-8.43a4.55,4.55,0,0,0-3.62-.06,2.71,2.71,0,0,1-2.83-.14,2.39,2.39,0,0,1-.69-2.3,4.13,4.13,0,0,1,2.6-3.12c3.66-1.38,6.83-1.45,9.41-.19,2.91,1.42,5.15,4.56,6.65,9.34a238.67,238.67,0,0,1,5.92,25.08c.42,2.1.84,4.21,1.27,6.31l1.87.06a2,2,0,0,1,1.87.9,2.9,2.9,0,0,1-.47,2.79c-.78,1.27-2.31,2.62-3.76,2.57h0L518,91.32l-1.16,0a2.08,2.08,0,0,1-2.1-1.72c-.3-1.44-.64-3.65-1-6.2l-.17-1-1.31.9c-3.91,2.69-7.6,5.23-12.1,6.83A25.37,25.37,0,0,1,492,91.77Zm8.44-42.53a4.87,4.87,0,0,1,2,.45c2.37,1.08,4.42,4,6.27,9l.1.27-.29.07a30.93,30.93,0,0,0-14.43,7.22c-4.37,4-8.59,12.55-8.08,19.84a5.25,5.25,0,0,0,2.15,4.27c2.25,1.47,6.21,1.22,11.77-.75,4.43-1.57,8.1-4.1,12-6.77l1.64-1.12.33-.23.28,1.81c.4,2.55.74,4.75,1,6.18a1.59,1.59,0,0,0,1.63,1.32l1.15,0,2.48.07h.06c1.2,0,2.55-1.16,3.27-2.33a2.5,2.5,0,0,0,.45-2.29,1.54,1.54,0,0,0-1.44-.64l-2.08-.06h-.19l0-.19c-.45-2.17-.88-4.34-1.31-6.51a239,239,0,0,0-5.9-25c-1.46-4.64-3.61-7.69-6.4-9-2.45-1.19-5.49-1.12-9,.21a3.61,3.61,0,0,0-2.28,2.73,1.91,1.91,0,0,0,.52,1.83,2.31,2.31,0,0,0,2.33.06A5.65,5.65,0,0,1,500.45,49.24Zm-6.58,36.9a2.25,2.25,0,0,1-1.84-.6c-2.57-3.31,2.54-13,3.65-14.77,2.83-4.51,10.07-6.75,14.25-7.15l.15,0,.22,0,.06.21c1,3.57,1.88,7.81,2.77,13l0,.16L513,77c-.82.58-1.63,1.18-2.45,1.78-1.12.82-2.28,1.68-3.45,2.46a36.39,36.39,0,0,1-6.39,3.27C500.67,84.51,496.49,86.14,493.87,86.14Zm16.06-22c-3.92.39-11.12,2.61-13.82,6.91-1.69,2.69-5.86,11.39-3.69,14.21.89,1.14,6.1-.38,8.12-1.21a36,36,0,0,0,6.3-3.23c1.16-.77,2.32-1.62,3.44-2.45.77-.57,1.54-1.14,2.33-1.69C511.75,71.69,510.87,67.59,509.93,64.12Z" transform="translate(-3.43 -3.38)"/><path class="cls-1" d="M588.22,91.42c-8.08,0-14.77.14-22.28.12-1.05,0-2.6,9.51-7,7.25-3.74-1.93.71-7.46-.14-7.46-6.22,0-12,0-18.63,0a2.23,2.23,0,0,1-1.37-.18,1.43,1.43,0,0,1-.5-.29l0,0a1.14,1.14,0,0,1-.34-.74c0-.1-.1-.15-.12-.26-2.4-13,.13-26.93-.32-40.17l-4.87,0c-4,0-.42-5.7,2.34-5.72l6.69,0a1.78,1.78,0,0,1,1.84,1.52c.69,13.23-1.89,27.07.15,40.19,5.29,0,10.58,0,15.87,0-1-12.78-.43-26.23.25-38.92.17-3.06,6.24-5.37,6-1.3-.7,13.14-1.33,27.09,0,40.23l17.63,0c-2.32-12.92-1.31-26-.58-39.12a3.9,3.9,0,0,1,1-2.75c1.37-1.13,5.42-.29,6.51.53,1.27.95,1.66,1.6,1.06,3.06-.74,1.8-2.7.74-2.74,1.48-.74,12.86-1.38,24.19,1.36,36.82C590.33,87.18,591,91.43,588.22,91.42Z" transform="translate(-3.43 -3.38)"/><path class="cls-1" d="M560.27,99.39a3.16,3.16,0,0,1-1.41-.37c-2.83-1.46-1.35-4.77-.56-6.54a9.21,9.21,0,0,0,.37-.9H540.2a2.44,2.44,0,0,1-1.47-.2,1.5,1.5,0,0,1-.57-.34l-.07-.08a1.37,1.37,0,0,1-.38-.86.49.49,0,0,1-.12-.24c-1.5-8.17-1.07-16.78-.66-25.1.25-4.9.5-10,.35-14.86l-4.63,0h0a1.88,1.88,0,0,1-1.8-.79,2.71,2.71,0,0,1,.34-2.61c.8-1.39,2.36-2.81,3.83-2.82l6.65,0h0a2,2,0,0,1,2.11,1.74,166,166,0,0,1-.26,16.69c-.39,7.71-.78,15.67.37,23.27l10.15,0h5.24c-1-12.45-.44-25.4.27-38.68.11-2,2.65-3.82,4.59-3.72,1.29.07,2,1,1.93,2.44-.74,13.75-1.3,27.16,0,40l8.85,0,8.25,0c-2.08-11.86-1.38-24-.71-35.82l.18-3.06a4.1,4.1,0,0,1,1-2.93c1.53-1.27,5.73-.3,6.83.52,1.3,1,1.8,1.73,1.13,3.36a2.17,2.17,0,0,1-2.22,1.31,1.44,1.44,0,0,0-.5.07c-.74,13-1.38,24.17,1.35,36.76.25,1.14.72,3.94-.37,5.29a2,2,0,0,1-1.65.74h0c-4,0-7.74,0-11.33.06s-7.18.07-10.95.06a7.67,7.67,0,0,0-1,1.94c-.84,2-2,4.82-3.85,5.5A2.43,2.43,0,0,1,560.27,99.39Zm-20.12-8.32h18.68a.34.34,0,0,1,.3.16c.16.24,0,.62-.37,1.44-.78,1.74-2.08,4.65.33,5.89a2.21,2.21,0,0,0,1.87.19c1.66-.61,2.76-3.27,3.56-5.22.64-1.56,1-2.25,1.42-2.25h0c3.76,0,7.25,0,10.95-.06s7.3-.06,11.33-.06h0a1.51,1.51,0,0,0,1.26-.55c1-1.22.46-4,.28-4.87-2.75-12.66-2.11-23.88-1.37-36.87,0-.53.56-.55,1-.57a1.67,1.67,0,0,0,1.78-1c.55-1.33.24-1.86-1-2.77-1.07-.8-5-1.57-6.2-.54a3.68,3.68,0,0,0-.86,2.57l-.18,3.07c-.68,11.85-1.38,24.11.75,36l.06.29-8.85,0-9.08,0h-.23l0-.22c-1.31-12.92-.75-26.42,0-40.27.07-1.2-.44-1.86-1.46-1.92H564c-1.65,0-3.84,1.55-3.93,3.24-.71,13.36-1.27,26.39-.25,38.89l0,.27H554l-10.36,0h-.22l0-.21c-1.2-7.71-.8-15.78-.41-23.58a165.07,165.07,0,0,0,.26-16.64,1.52,1.52,0,0,0-1.58-1.27h0l-6.69,0c-1.26,0-2.69,1.33-3.39,2.57a2.29,2.29,0,0,0-.35,2.11,1.49,1.49,0,0,0,1.4.54l5.12,0v.24c.17,5-.09,10.15-.34,15.15-.41,8.29-.84,16.87.65,25l0,.07a.65.65,0,0,1,.09.17,1,1,0,0,0,.27.63,1.13,1.13,0,0,0,.45.28A2,2,0,0,0,540.15,91.07Z" transform="translate(-3.43 -3.38)"/><path class="cls-1" d="M52.93,90.13H23.6l.18-55.67L47,64.8H38.77ZM27.69,86.05H46L31.83,60.72h6.93L27.82,46.44Z" transform="translate(-3.43 -3.38)"/><path class="cls-1" d="M98.76,90.15,75.38,90l-.52-1.27a25.32,25.32,0,0,1,1-18.83,23.86,23.86,0,0,1,8.83-10.3,17.45,17.45,0,0,1-.48-14.7A18.87,18.87,0,0,1,96.26,34.18l2.5-.6ZM78.25,86l16.44.08V39.17a15.11,15.11,0,0,0-6.79,7.39C85,53.3,89.06,59.19,89.1,59.24l1.48,2.09-2.36,1a19,19,0,0,0-8.69,9.32A21.66,21.66,0,0,0,78.25,86Z" transform="translate(-3.43 -3.38)"/><polygon class="cls-1" points="48.66 57.67 67.05 57.51 67.05 61.38 48.66 61.23 48.66 57.67"/><polygon class="cls-1" points="55.97 58.1 56.11 66.58 59.77 66.49 59.63 58.11 55.97 58.1"/><polygon class="cls-1" points="62.82 79.23 62.76 69.82 58.07 67.71 53.02 70.16 53.02 79.16 49.76 79.16 49.76 68.12 58.02 64.11 66.01 67.7 66.08 79.21 62.82 79.23"/><path class="cls-1" d="M58.33,75.89a2.82,2.82,0,0,1,2.83-1.59,3.79,3.79,0,0,1,3.2,1.52l-.19,19.6a3.12,3.12,0,0,1-2.83,1.64,2.67,2.67,0,0,1-2.63-1.58Z" transform="translate(-3.43 -3.38)"/><path class="cls-1" d="M61.48,45.84a9,9,0,1,1,9-9A9,9,0,0,1,61.48,45.84Zm0-14.69a5.72,5.72,0,1,0,5.72,5.71A5.72,5.72,0,0,0,61.48,31.15Z" transform="translate(-3.43 -3.38)"/><rect class="cls-1" x="20.5" y="83.28" width="74.49" height="4.03"/><path class="cls-1" d="M61.5,119.54a58.08,58.08,0,1,1,58.08-58.08A58.14,58.14,0,0,1,61.5,119.54Zm0-111.16a53.08,53.08,0,1,0,53.08,53.08A53.14,53.14,0,0,0,61.5,8.38Z" transform="translate(-3.43 -3.38)"/><path class="cls-1" d="M386.61,78.63c-4,7.48-13,15.28-22.2,16.47C336.82,98.72,350.24,57,346.57,37.63c-.08-.42-3.46.09-5,.1-4.08,0-.44-4.81,2.38-4.82,9.44,0,28.82-2.66,36.76,3.59,8.16,6.42.94,14.54-7.84,21.18C383.7,61.13,392.61,67.28,386.61,78.63ZM367.67,61.86a1.61,1.61,0,0,1-.43-.24c-4.51,3-10,5.5-12,7-.94.72-2.08,1.8-3,1.71A40.81,40.81,0,0,0,354,85.27c3.44,10.6,19.76,2.53,24.15-3C387,71.09,379.41,65.3,367.67,61.86ZM353,37.42c.07,11.15.07,18.66-.61,28,6.93-4.72,36.42-21.32,20.41-26.29C367.2,37.42,359.38,37.27,353,37.42Z" transform="translate(-3.43 -3.38)"/><path class="cls-1" d="M361.17,95.83a13.3,13.3,0,0,1-9.43-3.29c-6.79-6.28-6.07-20.34-5.38-33.95.39-7.74.77-15.05-.23-20.62a23.37,23.37,0,0,0-2.43.12c-.78.07-1.59.14-2.17.14h0a2.24,2.24,0,0,1-2.11-.89,2.13,2.13,0,0,1,.22-2.14,5.62,5.62,0,0,1,4.28-2.79c1.9,0,4.27-.12,6.78-.24,10-.49,23.81-1.16,30.29,3.94,2.52,2,3.78,4.26,3.76,6.79,0,4.2-3.6,9-10.85,14.6,7.8,2.61,12.64,6.11,14.4,10.4,1.32,3.23.9,6.92-1.24,11h0c-3.89,7.35-12.9,15.46-22.58,16.73A25.82,25.82,0,0,1,361.17,95.83ZM345.79,37c.85,0,1.19.15,1.27.57,1.08,5.72.7,13.2.3,21.11C346.68,72,346,85.85,352.42,91.8c2.79,2.58,6.69,3.49,11.92,2.81,9.24-1.21,18.15-9.26,21.83-16.21,2-3.77,2.39-7.18,1.19-10.12-1.71-4.17-6.65-7.58-14.68-10.13l-.92-.29.77-.58c7.4-5.59,11.17-10.43,11.21-14.39,0-2.2-1.12-4.22-3.38-6-6.18-4.87-19.73-4.21-29.63-3.73-2.51.12-4.89.23-6.82.24a4.72,4.72,0,0,0-3.42,2.29,1.31,1.31,0,0,0-.22,1.14c.15.25.59.39,1.25.39h0c.54,0,1.33-.07,2.09-.13C344.57,37,345.28,37,345.79,37Zm15.62,54a11.33,11.33,0,0,1-1.87-.15,7.44,7.44,0,0,1-6-5.36,41.28,41.28,0,0,1-1.87-15.08l0-.53.53.05c.6.06,1.49-.66,2.2-1.23l.48-.38a44.23,44.23,0,0,1,4.78-2.81c2.3-1.25,4.91-2.67,7.27-4.24l.25-.17.26.14.19.12a.37.37,0,0,0,.15.08h0c8.33,2.44,13,5.62,14.32,9.7,1.05,3.28-.15,7.14-3.57,11.46C375.62,86.26,367.62,90.94,361.41,90.94Zm-8.74-20.1a39.81,39.81,0,0,0,1.83,14.28,6.39,6.39,0,0,0,5.22,4.68c6,1.08,15-4,18.06-7.88s4.34-7.59,3.4-10.53c-1.2-3.75-5.66-6.71-13.65-9a1.33,1.33,0,0,1-.29-.12c-2.32,1.53-4.84,2.9-7.08,4.11a42.13,42.13,0,0,0-4.64,2.72l-.46.37A6.14,6.14,0,0,1,352.67,70.84Zm-.82-4.38.07-1c.68-9.39.68-16.75.61-28v-.49H353c5.69-.14,14-.1,20,1.77,3.07,1,4.75,2.42,5,4.36.76,5.69-10.83,13.59-21.76,20.54-1.44.92-2.66,1.69-3.53,2.28Zm1.69-28.55c0,10.59,0,17.76-.55,26.57.76-.5,1.67-1.08,2.7-1.73,7.16-4.56,22.05-14,21.31-19.57-.2-1.52-1.66-2.71-4.32-3.53C367,37.87,359.13,37.79,353.54,37.91Z" transform="translate(-3.43 -3.38)"/><path class="cls-1" d="M190.41,78.63c-4,7.48-13,15.28-22.21,16.47C140.62,98.72,154,57,150.37,37.63c-.08-.42-3.47.09-5,.1-4.08,0-.44-4.81,2.37-4.82,9.44,0,28.83-2.66,36.77,3.59,8.16,6.42.94,14.54-7.84,21.18C187.5,61.13,196.41,67.28,190.41,78.63ZM171.47,61.86a1.46,1.46,0,0,1-.43-.24c-4.51,3-10,5.5-12,7-.94.72-2.07,1.8-3,1.71a40.81,40.81,0,0,0,1.84,14.9c3.44,10.6,19.76,2.53,24.15-3C190.76,71.09,183.21,65.3,171.47,61.86ZM156.83,37.42c.06,11.15.07,18.66-.61,28,6.92-4.72,36.42-21.32,20.41-26.29C171,37.42,163.18,37.27,156.83,37.42Z" transform="translate(-3.43 -3.38)"/><path class="cls-1" d="M165,95.83a13.29,13.29,0,0,1-9.42-3.29c-6.79-6.27-6.07-20.34-5.38-33.95.39-7.74.76-15.05-.24-20.62a23.19,23.19,0,0,0-2.42.12c-.78.07-1.59.14-2.17.14h0a2.24,2.24,0,0,1-2.11-.89,2.14,2.14,0,0,1,.21-2.14,5.65,5.65,0,0,1,4.28-2.79c1.91,0,4.28-.12,6.78-.24,10.06-.49,23.82-1.16,30.3,3.94,2.52,2,3.78,4.26,3.75,6.79,0,4.2-3.59,9-10.84,14.6,7.79,2.61,12.64,6.11,14.39,10.4,1.32,3.23.91,6.92-1.23,11h0C187,86.22,178,94.33,168.27,95.6A26,26,0,0,1,165,95.83ZM149.59,37c.85,0,1.19.15,1.27.57,1.08,5.72.7,13.2.3,21.11-.68,13.38-1.39,27.21,5.06,33.16,2.79,2.58,6.69,3.49,11.92,2.81,9.24-1.21,18.14-9.25,21.83-16.21h0c2-3.78,2.39-7.18,1.19-10.12-1.71-4.17-6.65-7.58-14.68-10.13l-.93-.29.78-.58c7.39-5.59,11.17-10.43,11.2-14.39,0-2.2-1.11-4.22-3.37-6C178,32,164.43,32.69,154.53,33.17c-2.52.12-4.9.23-6.82.24a4.7,4.7,0,0,0-3.42,2.29c-.27.48-.36.9-.22,1.14s.59.39,1.25.39h0c.54,0,1.33-.07,2.09-.13C148.37,37,149.07,37,149.59,37Zm15.62,54a11.33,11.33,0,0,1-1.87-.15,7.42,7.42,0,0,1-6-5.36,41.28,41.28,0,0,1-1.87-15.08l0-.53.53.05c.59.06,1.49-.66,2.2-1.23l.48-.38a42.62,42.62,0,0,1,4.78-2.81c2.3-1.25,4.91-2.67,7.27-4.24L171,61l.26.14.19.12a.37.37,0,0,0,.15.08h0c8.33,2.44,13,5.62,14.32,9.7,1,3.28-.16,7.14-3.57,11.46C179.42,86.26,171.42,90.94,165.21,90.94Zm-8.74-20.1a39.5,39.5,0,0,0,1.83,14.28,6.38,6.38,0,0,0,5.22,4.68c6,1.08,15-4,18.06-7.88s4.34-7.59,3.4-10.53c-1.2-3.75-5.66-6.71-13.65-9a1.33,1.33,0,0,1-.29-.12c-2.32,1.53-4.84,2.9-7.08,4.11a42.13,42.13,0,0,0-4.64,2.72l-.46.37A6.14,6.14,0,0,1,156.47,70.84Zm-.83-4.38.08-1c.68-9.38.68-16.75.61-28v-.49h.49c5.69-.14,14-.1,20,1.77,3.06,1,4.75,2.42,5,4.36C182.55,48.74,171,56.64,160,63.59c-1.44.92-2.66,1.69-3.52,2.28Zm1.7-28.55c0,10.59,0,17.76-.55,26.57.75-.5,1.67-1.08,2.7-1.73,7.15-4.56,22-14,21.31-19.57-.2-1.52-1.66-2.71-4.32-3.53C170.78,37.87,162.93,37.79,157.34,37.91Z" transform="translate(-3.43 -3.38)"/></svg>