<svg id="Слой_1" data-name="Слой 1" xmlns="http://www.w3.org/2000/svg" viewBox="0 0 97.88 97.88"><defs>
<style>.cls-1{fill:#fff;}</style>
</defs>
<path class="cls-1" d="M49.64,75.94H25.13l.16-46.52L44.7,54.77H37.81ZM28.55,72.53H43.83L32,51.37h5.8L28.66,39.43Z" transform="translate(-7.86 -3.04)"/>
<path class="cls-1" d="M87.94,76l-19.55-.1L68,74.79a21,21,0,0,1,.79-15.73,20,20,0,0,1,7.38-8.61,14.59,14.59,0,0,1-.4-12.28,15.84,15.84,0,0,1,10.1-9l2.1-.49ZM70.79,72.46l13.74.07V33.35a12.69,12.69,0,0,0-5.67,6.18,11.54,11.54,0,0,0,1,10.6l1.24,1.74-2,.82a15.9,15.9,0,0,0-7.26,7.79A18.13,18.13,0,0,0,70.79,72.46Z" transform="translate(-7.86 -3.04)"/>
<polygon class="cls-1" points="41.07 48.6 56.44 48.47 56.44 51.7 41.07 51.57 41.07 48.6"/>
<polygon class="cls-1" points="47.18 48.96 47.3 56.04 50.36 55.97 50.24 48.97 47.18 48.96"/>
<polygon class="cls-1" points="52.9 66.61 52.85 58.75 48.93 56.98 44.71 59.03 44.71 66.55 41.99 66.55 41.99 57.33 48.89 53.98 55.57 56.98 55.63 66.6 52.9 66.61"/>
<path class="cls-1" d="M54.15,64a2.34,2.34,0,0,1,2.36-1.32A3.16,3.16,0,0,1,59.19,64L59,80.35a2.6,2.6,0,0,1-2.36,1.38,2.24,2.24,0,0,1-2.2-1.32Z" transform="translate(-7.86 -3.04)"/>
<path class="cls-1" d="M56.78,38.93a7.5,7.5,0,1,1,7.5-7.5A7.51,7.51,0,0,1,56.78,38.93Zm0-12.28a4.78,4.78,0,1,0,4.78,4.78A4.78,4.78,0,0,0,56.78,26.65Z" transform="translate(-7.86 -3.04)"/>
<rect class="cls-1" x="17.54" y="70" width="62.24" height="3.37"/>
<!-- <path class="cls-1" d="M56.8,3A48.94,48.94,0,1,0,105.74,52,49,49,0,0,0,56.8,3Zm0,92.88A43.94,43.94,0,1,1,100.74,52,44,44,0,0,1,56.8,95.92Z" transform="translate(-7.86 -3.04)"/> -->
</svg>