<svg id="Слой_1" data-name="Слой 1" xmlns="http://www.w3.org/2000/svg" viewBox="0 0 441.5 97.88"><defs><style>.cls-1{fill:#fff;}</style></defs><path class="cls-1" d="M53.64,75.94H29.13l.16-46.52L48.7,54.77H41.81ZM32.55,72.53H47.83L36,51.37h5.8L32.66,39.43Z" transform="translate(-11.86 -3.04)"/><path class="cls-1" d="M91.94,76l-19.55-.1L72,74.79a21,21,0,0,1,.79-15.73,20,20,0,0,1,7.38-8.61,14.59,14.59,0,0,1-.4-12.28,15.84,15.84,0,0,1,10.1-9l2.1-.49ZM74.79,72.46l13.74.07V33.35a12.69,12.69,0,0,0-5.67,6.18,11.54,11.54,0,0,0,1,10.6l1.24,1.74-2,.82a15.9,15.9,0,0,0-7.26,7.79A18.13,18.13,0,0,0,74.79,72.46Z" transform="translate(-11.86 -3.04)"/><polygon class="cls-1" points="41.07 48.6 56.44 48.47 56.44 51.7 41.07 51.57 41.07 48.6"/><polygon class="cls-1" points="47.18 48.96 47.3 56.04 50.36 55.97 50.24 48.97 47.18 48.96"/><polygon class="cls-1" points="52.9 66.61 52.85 58.75 48.93 56.98 44.71 59.03 44.71 66.55 41.99 66.55 41.99 57.33 48.89 53.98 55.57 56.98 55.63 66.6 52.9 66.61"/><path class="cls-1" d="M58.15,64a2.34,2.34,0,0,1,2.36-1.32A3.16,3.16,0,0,1,63.19,64L63,80.35a2.6,2.6,0,0,1-2.36,1.38,2.24,2.24,0,0,1-2.2-1.32Z" transform="translate(-11.86 -3.04)"/><path class="cls-1" d="M60.78,38.93a7.5,7.5,0,1,1,7.5-7.5A7.51,7.51,0,0,1,60.78,38.93Zm0-12.28a4.78,4.78,0,1,0,4.78,4.78A4.78,4.78,0,0,0,60.78,26.65Z" transform="translate(-11.86 -3.04)"/><rect class="cls-1" x="17.54" y="70" width="62.24" height="3.37"/><path class="cls-1" d="M60.8,3A48.94,48.94,0,1,0,109.74,52,49,49,0,0,0,60.8,3Zm0,92.88A43.94,43.94,0,1,1,104.74,52,44,44,0,0,1,60.8,95.92Z" transform="translate(-11.86 -3.04)"/><path class="cls-1" d="M189.91,67.87c-10.55,5.32-26.59,4.08-27.52-10.56-.65-10.32,4.49-22.7,16.53-22.69,5.07,0,9.58,2.21,11.17,7.32,1.29,4.16.24,6.41-3.41,8.66-5.64,3.46-12,5.86-18.27,8,3.06,8.83,12.82,9.32,20.85,5.28C192.7,62.19,192.62,66.51,189.91,67.87Zm-22.3-13.13c3.24-1.14,6.45-2.36,9.6-3.72a45.49,45.49,0,0,0,7.44-3.67c2.25-1.49-.64-5.9-2.74-7.08C172.27,34.87,167,46.53,167.61,54.74Z" transform="translate(-11.86 -3.04)"/><path class="cls-1" d="M230.51,70.2,225,70.14A1.55,1.55,0,0,1,223.38,69q-1.84-7.44-4.16-14.76c-1.06-3.33-2.28-10-5.11-13.52-3.85,9.4-7.31,19.23-12.47,28-1.19,2-6.56,2.8-4.83-.12,5.57-9.41,9.16-20.12,13.4-30.17a5.64,5.64,0,0,0-2.34.29c-3.56,1.2-3.56-2.89-.64-3.87,7.63-2.58,11.37,1,14,8.07a215.7,215.7,0,0,1,7,22.92l4.24,0C236,65.86,232.9,70.23,230.51,70.2Z" transform="translate(-11.86 -3.04)"/><path class="cls-1" d="M269.78,47.13c1.3,7.92-1.24,17.49-8.32,22.06-8.32,5.36-18.95,2.47-22-7.29s-.24-22.46,10.52-26c.15,0,.25,0,.39-.06a1.57,1.57,0,0,1,.32-.15c.28-.06.56-.07.85-.13v-.7a3.42,3.42,0,0,1,2.37-3.1c.83-.33,3-.52,3,.95V35.2C263.3,35.74,268.56,39.73,269.78,47.13Zm-12.89-6.9v2.21a3.43,3.43,0,0,1-2.37,3.1c-.82.33-3,.51-3-.95V39.9c-.42.06-.82.11-1.26.2-7.7,2.9-8.14,14.91-4.71,21.28,3.11,5.78,11.3,8.77,15.79,2.55C267,56,265.41,43,256.89,40.23Z" transform="translate(-11.86 -3.04)"/><path class="cls-1" d="M374.25,25.59A9.87,9.87,0,0,1,377,26a1.38,1.38,0,0,1,1,1.57c-.41,10.45-.23,14.89-.19,25.35a102.08,102.08,0,0,1,13.8-14.42c2.32-1.94,5.4-4.53,8.68-3.88,3.05.6,3.53,3.54,2.76,6.2-.62,2.16-5.85,3.77-5,1s-.52-3.37-2.6-1.63a75.48,75.48,0,0,0-6.64,6.38c-1,1.13-2.1,2.26-3.14,3.41,3.26,1.47,5.65,2.54,7.75,5.86,2.41,3.82,5.92,12.72,11.65,10.42,3.42-1.36,3.38,2.68.63,3.79-5.52,2.2-9.41.31-12.64-4.46-1.22-1.81-2.36-3.67-3.53-5.51-.69-1.1-1.62-3.42-2.8-4-1.49-.74-3-1.45-4.51-2.15-1.53,1.81-3,3.65-4.38,5.55q0,4.38-.13,8.76c-.06,2.29-5.12,4-5,1,.26-9.71.11-29.46.11-29.62,0-4.26,0-2.5.09-6.76.08-3.58.14-2.89-3.37-2.78-3.34.12-.34-4.2,2-4.28C372.34,25.66,373.3,25.59,374.25,25.59Z" transform="translate(-11.86 -3.04)"/><path class="cls-1" d="M449.75,70.89c-6.05.06-8.15.36-8.46-6.32-.31-6.92-.06-13.86.27-20.78L423.9,68c-.7,2.08-4.8,3.68-5.18,1.25-1.07-6.83-.11-14.16.11-21,.09-3,.54-6.38,0-9.36l-1.94,0-3.16,0c-3.51,0-.38-4.49,2.05-4.46,2,0,6.22-.86,7.75.75,1.29,1.37.74,4.87.73,6.52,0,6.5-.91,13.28-.71,19.87,6.3-8.61,12.36-16.91,18.66-25.54a1.42,1.42,0,0,1,.13-.12c1.24-1.78,5-2.67,4.86,0-.37,8-.92,16.08-.68,24.1,0,1.51-.33,5.06.54,6.62-.1-.51,1.49-.06,2.59-.07l2.19,0C455.3,66.39,452.17,70.86,449.75,70.89Z" transform="translate(-11.86 -3.04)"/><path class="cls-1" d="M153.43,58.64a25.87,25.87,0,0,1-18.06,12.12c-7.63,1.09-11.06-3.28-11.83-10.33-.9-8.18-1.53-18.64,1.19-26.6,3-8.83,15.85-10.61,22.37-4.64,4.45,4.08,3.26,8.33-.22,12.15C153.73,45,158.25,50.87,153.43,58.64Zm-4.23-7.55a16,16,0,0,0-7-5.69,76.46,76.46,0,0,1-13.48,7.43c0,4.6,0,11.73,4.22,12.87,4.76,1.3,10.09-1.34,13.29-4.83C148.45,58.45,151.38,54.41,149.2,51.09Zm-20.47-2.81c6.75-2.91,20.42-9.74,13.39-15.35-3-2.37-11.13-4.47-12.06,1.14A93.76,93.76,0,0,0,128.73,48.28Z" transform="translate(-11.86 -3.04)"/><path class="cls-1" d="M324.09,70.71c-2,0-19.62-.86-19.67,0-.2,3.81-.35,4.74-2.25,7.91-1.17,2-6.3,2.5-4.57-.38s2.3-2.87,2.21-7.26c0-1.11-9.55,0-17,0a2.1,2.1,0,0,1-1.16-.14,1.16,1.16,0,0,1-.43-.22l0,0a.86.86,0,0,1-.28-.56c0-.08-.09-.11-.11-.2-2-9.87.12-20.37-.26-30.4l-4.13,0c-3.4,0-.36-4.31,2-4.33l5.67,0c.65,0,1.52.39,1.57,1.14.58,10-1.61,20.48.12,30.41l13.46,0c-.89-9.67-.37-19.85.21-29.45.14-2.31,5.29-4.06,5.1-1-.59,9.94-1.12,20.5,0,30.44,5,0,10,0,14.94,0-2-9.78-1.1-19.65-.48-29.6.14-2.31,5.29-4,5.1-1-.64,10.23-1.49,20.36.91,30.41C325.69,69.16,325.6,70,324.09,70.71Z" transform="translate(-11.86 -3.04)"/><path class="cls-1" d="M348,72.15c-7,0-9.63-3.21-10.61-6-2.05-5.75,1.18-14.66,5.72-22.71-2.61-3.35-8.49-6.6-10.28-7.09-1.47-.4,2.42-3.44,4.41-2.51a32.41,32.41,0,0,1,8.23,6c4.48-7.25,9.1-13.49,10.25-13.85s6.17,1.07,4.23,2.31-7,7.39-11.29,14.47c5.77,6.45,10.42,15.25,10,21.34-.18,2.87-1.71,7.73-9.83,8Zm-1.82-25.78c-3.78,6.89-6.34,14.15-4.85,18.32.31.86,1.09,3.4,7.39,3.19,5.7-.2,5.84-3.14,5.91-4.25C354.91,58.88,350.81,51.87,346.15,46.37Z" transform="translate(-11.86 -3.04)"/></svg>