<svg id="Слой_1" data-name="Слой 1" xmlns="http://www.w3.org/2000/svg" viewBox="0 0 598.59 124.24"><defs><style>.cls-1{fill:#fff;}</style></defs><path class="cls-1" d="M315.64,53.62a6,6,0,0,1-3.67,5.3,5,5,0,0,1-4.44-.15,3.06,3.06,0,0,1-1.37-2.62v-3.5A10.57,10.57,0,0,0,302,58.11a25.55,25.55,0,0,0,.8,18.29c1.77,3.68,5.17,6.3,8.45,6.51,2.46.15,4.53-1,6.12-3.52a23.91,23.91,0,0,0,2.39-19.59A12.81,12.81,0,0,0,315.64,53.62Z" transform="translate(-0.75 -0.51)"/><path class="cls-1" d="M74,43A4.94,4.94,0,1,0,69.08,38,4.94,4.94,0,0,0,74,43Z" transform="translate(-0.75 -0.51)"/><path class="cls-1" d="M352.69,61.42c5-3.18,20.14-12.85,19.57-17.17-.11-.79-1.2-1.55-3.07-2.13-4.78-1.49-11.28-1.67-16.23-1.61,0,8.22,0,14.25-.35,21Z" transform="translate(-0.75 -0.51)"/><path class="cls-1" d="M364.67,63.84c-2.08,1.33-4.26,2.51-6.2,3.57a40,40,0,0,0-4.22,2.47l-.41.33a11.6,11.6,0,0,1-1.74,1.21,35.89,35.89,0,0,0,1.69,12.11,4.57,4.57,0,0,0,3.8,3.44c5.11.92,13.06-3.59,15.72-7s3.7-6.34,3-8.64C375.34,68.41,371.43,65.87,364.67,63.84Z" transform="translate(-0.75 -0.51)"/><path class="cls-1" d="M225.26,63.36a43.07,43.07,0,0,0,7.21-4c.06,0,.23-.17.2-.73a8.44,8.44,0,0,0-3.14-5.26,8.24,8.24,0,0,0-4.31-1.46,5.21,5.21,0,0,0-2.75.79c-3.83,2.28-6,8.89-6.24,14.74,3-1.25,5.75-2.45,8.24-3.65Z" transform="translate(-0.75 -0.51)"/><polygon class="cls-1" points="50.67 59.75 41.78 48.11 41.66 83.86 57.69 83.86 44.24 59.75 50.67 59.75"/><path class="cls-1" d="M99.57,47.47c-2.66,6.11,1.05,11.54,1.08,11.59l1.77,2.5L99.6,62.73a17.69,17.69,0,0,0-8,8.62,20.34,20.34,0,0,0-1.28,13l14.73.07V41.1A13.78,13.78,0,0,0,99.57,47.47Z" transform="translate(-0.75 -0.51)"/><path class="cls-1" d="M74,11.92a49.54,49.54,0,1,0,49.43,49.54A49.54,49.54,0,0,0,74,11.92ZM74,29A9.05,9.05,0,1,1,65,38,9,9,0,0,1,74,29ZM64.59,60.58l18.46-.16v4.69l-7,0,0,2.56,6,2.68.08,11.78-4.1,0L78,73l-4-1.78-4.31,2.1V82H65.63V70.71l6-2.92,0-2.77-7-.06Zm45.34,28.7h-.34v.52H76.83l0,4.1a3.18,3.18,0,0,1-2.91,1.71,2.79,2.79,0,0,1-2.74-1.67v-.08l-.08-4.06H37.83v-.54h-.3l.18-55L61.28,65.14h-8L64.34,85H71l-.19-9.81v0a2.91,2.91,0,0,1,2.92-1.67A3.81,3.81,0,0,1,77,75l0,.07v.07L76.89,85h8.6a25,25,0,0,1,1.69-15.64,23.32,23.32,0,0,1,8.2-9.78,17.16,17.16,0,0,1-.28-14A18.53,18.53,0,0,1,106.93,35l3-.7Z" transform="translate(-0.75 -0.51)"/><path class="cls-1" d="M166.31,61.42c5-3.18,20.14-12.85,19.56-17.17-.1-.79-1.19-1.55-3.06-2.13-4.78-1.49-11.29-1.67-16.24-1.61,0,8.22,0,14.25-.35,21Z" transform="translate(-0.75 -0.51)"/><path class="cls-1" d="M178.29,63.84c-2.08,1.32-4.25,2.51-6.2,3.57a40.34,40.34,0,0,0-4.23,2.47l-.41.33a11.74,11.74,0,0,1-1.73,1.22,35.46,35.46,0,0,0,1.68,12.1A4.58,4.58,0,0,0,171.2,87c5.12.92,13.07-3.59,15.72-7s3.71-6.34,3-8.64C189,68.41,185.05,65.87,178.29,63.84Z" transform="translate(-0.75 -0.51)"/><path class="cls-1" d="M488.15,71.37c-2.16,3.45-4.55,9.8-3.7,11.62a18.21,18.21,0,0,0,6.08-1.43,32,32,0,0,0,5.73-2.94c1.09-.72,2.21-1.55,3.2-2.28.5-.38,1-.73,1.46-1.08-.65-3.69-1.31-6.85-2-9.6C495.21,66.31,490.08,68.29,488.15,71.37Z" transform="translate(-0.75 -0.51)"/><path class="cls-1" d="M455.64,52.65a5.93,5.93,0,0,0-1.47-.19c-3.86,0-5.56,4.38-6,5.73-1.93,6.06-2.84,13.56-2.71,22.33,8.76-2.26,14.65-8.24,16.25-16.61C462.57,59.46,460.49,53.89,455.64,52.65Z" transform="translate(-0.75 -0.51)"/><path class="cls-1" d="M.75.51V124.75H599.34V.51ZM74,117.77A56.31,56.31,0,1,1,130.2,61.46,56.3,56.3,0,0,1,74,117.77Zm124.2-39c-3.88,7.34-12.89,15.45-22.58,16.72a26.43,26.43,0,0,1-3.34.23,14,14,0,0,1-10-3.53c-7-6.45-6.27-20.21-5.59-33.51.34-6.69.66-13,0-18l-.84.07h-.1c-.76.06-1.54.13-2.14.13a3.24,3.24,0,0,1-3.11-5.13,6.74,6.74,0,0,1,5.35-3.41c1.78,0,4-.12,6.38-.23,9.78-.48,23.18-1.13,29.77,4.07,2.78,2.19,4.17,4.77,4.14,7.66,0,4-2.92,8.44-8.79,13.39,6.37,2.53,10.42,5.83,12.05,9.83C200.89,70.53,200.48,74.47,198.23,78.74Zm42,9.15A29.34,29.34,0,0,1,226,91.7a20.85,20.85,0,0,1-10-2.36c-5.51-3-8.64-8.57-9.07-16.07-.55-9.75,2.34-19.22,7.54-24.73a16.72,16.72,0,0,1,12.58-5.49c7.15,0,12.29,3.8,14.13,10.43,1.58,5.74.28,9.43-4.49,12.72-6.15,4.24-13,7.21-19.12,9.64a10.82,10.82,0,0,0,5.89,6.1c3.94,1.57,9.27.81,14.27-2,1.91-1.08,3.22-.77,4-.32a3.38,3.38,0,0,1,1.54,3.07A6.25,6.25,0,0,1,240.21,87.89Zm49.64.51c-1,1.64-2.85,3.29-4.86,3.29l-6.22-.08a3.46,3.46,0,0,1-3.44-2.81c-1.35-6.06-2.9-12.23-4.62-18.36-.28-1-.56-2.17-.86-3.43A66.88,66.88,0,0,0,267,57.32c-.45,1.28-.91,2.56-1.35,3.82-3.31,9.33-6.72,19-11.31,27.68A6.89,6.89,0,0,1,248.82,92h-.2a3.23,3.23,0,0,1-2.88-1.38A3.41,3.41,0,0,1,245.9,87c4.47-8.47,7.83-18,11.09-27.17l0-.11c.86-2.44,1.75-4.95,2.65-7.42A3.55,3.55,0,0,1,255,48.16,5.47,5.47,0,0,1,258.42,44c3.88-1.47,7.13-1.54,9.91-.22,3.37,1.61,5.9,5.23,8,11.39,2.72,8.16,5.2,17.16,7.56,27.5l3.36,0a3.29,3.29,0,0,1,3.06,1.58A4.09,4.09,0,0,1,289.85,88.4ZM320,88.32A18.33,18.33,0,0,1,309.25,92a15.94,15.94,0,0,1-5.27-.89c-5.43-1.89-9.41-6.44-11.21-12.82-3.76-13.32,0-29.9,12.79-34.61a3.17,3.17,0,0,1,.46-.12l.16-.07a6,6,0,0,1,3.65-4.94,5,5,0,0,1,4.44.16,3,3,0,0,1,1.37,2.61v1.59c7.72,1.37,13,7.33,14.33,16.19C331.38,68.67,328.86,81.92,320,88.32Zm64.6-9.58c-3.88,7.34-12.88,15.44-22.58,16.72a26.15,26.15,0,0,1-3.33.23,14,14,0,0,1-10-3.54c-7-6.45-6.27-20.2-5.59-33.5.34-6.7.66-13,0-18l-.89.07c-.82.06-1.6.13-2.2.13a3.24,3.24,0,0,1-3.11-5.13,6.78,6.78,0,0,1,5.36-3.41c1.77,0,4-.12,6.36-.23,9.8-.48,23.2-1.13,29.79,4.07,2.77,2.19,4.16,4.77,4.14,7.66,0,4-2.93,8.44-8.8,13.39,6.37,2.53,10.42,5.83,12,9.83C387.28,70.53,386.86,74.47,384.61,78.74Zm45.22,9.56c-.9,1.46-2.69,3.16-4.78,3.16H425l-2.38-.07-1.09,0a3.5,3.5,0,0,1-3.42-2.83c-.23-1.14-.5-2.75-.79-4.61a47.39,47.39,0,0,1-11.13,6.18,25.26,25.26,0,0,1-8.22,1.72h0a8.36,8.36,0,0,1-4.69-1.21A6.81,6.81,0,0,1,390.3,85c-.53-7.54,3.8-16.34,8.31-20.49a30.66,30.66,0,0,1,12.64-6.86c-1.65-3.79-3.17-5.17-4.2-5.64a2.85,2.85,0,0,0-2.29,0,4,4,0,0,1-4.16-.38,3.76,3.76,0,0,1-1.19-3.59,5.44,5.44,0,0,1,3.42-4.13c3.88-1.47,7.28-1.52,10.12-.13,3.16,1.54,5.54,4.83,7.09,9.79a228.9,228.9,0,0,1,5.66,24c.32,1.63.65,3.25,1,4.86l.59,0a3.31,3.31,0,0,1,3.05,1.64A4.17,4.17,0,0,1,429.83,88.3Zm40.42-21c-4.19,11.56-12.8,19.44-24.33,22.33.45,5.13,1.18,10.44,2.19,15.8a5.25,5.25,0,0,1-2,4.83,6.38,6.38,0,0,1-4.05,1.66,4,4,0,0,1-1.31-.21,3.52,3.52,0,0,1-2.3-2.84c-1.92-10.25-7.22-44.82,5.22-59.2,3.93-4.54,9.22-6.71,15.75-6.42A11.74,11.74,0,0,1,469,48.53C472.15,53.19,472.64,60.73,470.25,67.29Zm44.65,21c-1,1.62-2.87,3.23-4.9,3.16l-2.32-.07-1.13,0a3.48,3.48,0,0,1-3.41-2.83c-.24-1.14-.5-2.75-.8-4.61a47.55,47.55,0,0,1-11.13,6.18A25.26,25.26,0,0,1,483,91.82a8.36,8.36,0,0,1-4.69-1.21A6.83,6.83,0,0,1,475.37,85c-.53-7.54,3.81-16.34,8.31-20.49a30.66,30.66,0,0,1,12.64-6.86c-1.65-3.79-3.17-5.17-4.2-5.64a2.85,2.85,0,0,0-2.29,0,4,4,0,0,1-4.16-.38,3.76,3.76,0,0,1-1.19-3.59,5.44,5.44,0,0,1,3.42-4.13c3.88-1.47,7.28-1.52,10.12-.13,3.15,1.54,5.54,4.83,7.1,9.79a233,233,0,0,1,5.66,24l1,4.84.59,0a3.29,3.29,0,0,1,3,1.64A4.17,4.17,0,0,1,514.9,88.3ZM579,48.74a3.33,3.33,0,0,1-2.55,2.08c-.66,11.72-1.13,22,1.33,33.35.44,2,.67,4.65-.65,6.3a3.39,3.39,0,0,1-2.73,1.26c-3.83,0-7.35,0-10.76.06h-.1c-3.19,0-6.23.06-9.45,0-.14.32-.29.69-.39.92-.9,2.19-2.14,5.2-4.52,6.07a3.92,3.92,0,0,1-1.34.25,4.36,4.36,0,0,1-2-.53c-3.18-1.64-2.5-4.85-1.73-6.91H528.89a3.75,3.75,0,0,1-2.08-.3,2.86,2.86,0,0,1-1-.62l-.12-.12a2.81,2.81,0,0,1-.71-1.34,1.72,1.72,0,0,1-.16-.5c-1.46-7.94-1-16.22-.64-24.23.2-4.17.42-8.43.36-12.57l-2.93,0a3.25,3.25,0,0,1-3-1.49,4,4,0,0,1,.32-4c1-1.71,2.86-3.43,4.92-3.45l5.68,0h.64a3.41,3.41,0,0,1,3.53,3.08,158.94,158.94,0,0,1-.25,16.05c-.34,6.83-.69,13.87.16,20.58l8.35,0h3.36c-.79-11.44-.27-23.28.37-35.41.16-2.9,3.39-5.09,5.93-5a3.41,3.41,0,0,1,3.26,3.9c-.68,12.55-1.19,24.78-.15,36.48l13.12,0c-1.65-10.89-1-22-.4-32.69l.16-2.92a5.25,5.25,0,0,1,1.54-3.85c2.2-1.84,7-.56,8.33.45S580.05,46.19,579,48.74Z" transform="translate(-0.75 -0.51)"/><path class="cls-1" d="M403.08,71.37c-2.16,3.45-4.55,9.8-3.7,11.62a18.26,18.26,0,0,0,6.08-1.43,32,32,0,0,0,5.73-2.94c1.08-.71,2.16-1.51,3.21-2.29l1.45-1.07c-.65-3.69-1.31-6.85-2-9.6C410.14,66.31,405,68.29,403.08,71.37Z" transform="translate(-0.75 -0.51)"/></svg>