<svg xmlns="http://www.w3.org/2000/svg" viewBox="0 0 3840 2160"><defs><clipPath id="d"><path fill="none" d="M0 0h3840v2160H0z"/></clipPath><style>.e{stroke:#4d4d4d;stroke-linecap:round;stroke-linejoin:round;stroke-width:2px;fill:none}</style></defs><g id="b" data-name="Layer 2"><g id="c" clip-path="url(#d)" data-name="Ńëîé 1"><path d="M2672.55-25.02c14.84 19.81 28.93 40.01 44.72 59.32 20.88 25.53 45.72 48.71 73.6 69.51 25.85 19.29 52.85 37.62 79.87 55.88 57.94 39.17 110.45 82.12 148.93 134.87 22.95 31.46 42.06 64.49 55.14 99.33 8.9 23.69 15.59 48.04 20.85 72.43 3.95 18.31 4.39 37.12 5.77 55.74 1.12 15.19 1.86 30.43 1.79 45.64-.09 21.5-1.1 42.99-1.68 64.49-.63 23.43-2.7 46.91-1.48 70.27 1.93 36.85 7.06 73.55 22.5 108.67 12.1 27.54 28.62 53.12 56.21 73.24 20.4 14.88 44.64 22.63 71.83 24.54 25.41 1.79 50.96 2.44 76.32 4.56 29.26 2.44 58.07 7.25 84.44 18.13 13.01 5.37 26.03 11.38 37.16 18.88 31.23 21.04 53.14 47.56 67.46 78.06 11.33 24.12 19.29 48.88 21.79 74.64 1.36 14 3.72 28.04 3.34 42.02-.46 17.17-3.25 34.31-5.15 51.45-1.74 15.71-4.37 31.37-5.26 47.11-1.3 22.92-2.08 45.89-1.71 68.83.19 11.85 3.47 23.66 5.13 35.51 1.39 9.89 2.32 19.82 3.71 29.7 1.66 11.85 3.69 23.67 5.38 35.51.82 5.78 1.39 11.58 1.82 17.39.72 9.66.8 19.35 1.93 28.98 5.03 42.93 3.79 85.98 3.29 128.98-.22 18.85-3.3 37.69-5.21 56.52-1.06 10.4-2.13 20.8-3.67 31.15-2.17 14.52-4.05 29.1-7.36 43.46-6.7 29.03-15.39 57.68-27.94 85.55-16.85 37.45-40.21 71.75-72.63 102.26-23.5 22.12-51.35 39.71-83.01 53.31-22.64 9.72-47.42 14.88-73.47 13.13-23.54-1.58-44.42-9.3-62.65-20.98-40.03-25.62-65.79-59.47-86.51-96.27-15.43-27.4-27.4-55.75-35.94-84.87-6.21-21.19-9.64-42.9-13.9-64.44-5.08-25.68-6.44-51.6-5.3-77.52.64-14.52 2.75-29.07 5.42-43.46 3.2-17.24 6.69-34.52 11.85-51.43 11.5-37.69 29.99-73.36 53.58-107.21 17.94-25.74 37.25-50.87 56.23-76.13 14.41-19.19 27.53-39.01 33.3-60.94 8.72-33.09.17-63.09-29.63-88.42-10.52-8.94-22.23-16.24-36.43-20.96-13.5-4.49-27.47-5.38-41.81-3.62-30.37 3.72-56.36 15.72-81.71 28.38-50.67 25.31-100.32 51.94-154.58 72.38-43.92 16.55-89.74 28.59-137.31 36.02-34.7 5.42-70.05 7.54-105.37 5.77-30.12-1.51-59.82-5.74-89.14-11.98-41.27-8.77-79.87-22.53-117.08-38.73-29.08-12.65-57.36-26.52-85.49-40.48-49.58-24.61-99.84-48.22-152.77-68.01-42.34-15.83-85.29-30.66-127.09-47.35-39.6-15.8-75.98-35.82-110.21-58.38-45.07-29.71-84.4-64.11-126.3-96.41-22.7-17.5-47.01-33.59-75.47-44.82-19.8-7.81-41.41-11.87-63.51-10.81-26.97 1.3-52.2 8.44-75.4 19.42-32.13 15.22-60.43 34.45-87.25 55.04-16.36 12.55-32.53 25.28-48.15 38.41-35.98 30.26-71.55 60.83-107.33 91.24-19.65 16.7-39.19 33.48-59.11 49.97-38.94 32.23-77.5 64.78-117.37 96.27-46.57 36.79-95.16 71.95-141.39 109.01-41.61 33.36-77.07 70.66-105.89 112.02-26.85 38.53-49.57 78.38-65.97 120.42-8.57 21.97-16.23 44.21-18.33 67.35-1.23 13.52-3.87 27.09-3.31 40.57.88 21.08 4.89 41.91 12.26 62.35 17.9 49.68 50.64 92.92 91.27 132.4 25.48 24.76 54.06 47.31 89.71 63.23 23.76 10.61 48.86 16.86 76.36 17.49 33.71.77 65.54-5.73 96.26-15.52 38.55-12.29 76.7-25.43 114.54-39.07 45.56-16.42 90.59-33.8 138.23-46.23 22.8-5.95 46-10.14 69.94-12.56 49.46-4.99 95.36 4.04 140.01 19.77 53.91 18.99 103.85 43.5 152.7 69.56 35.63 19.01 69.71 39.56 101.91 62.21 44.42 31.25 82.52 66.75 115.15 105.99 14.26 17.14 26.75 35.21 40.22 52.78 1.87 2.44 4.77 4.38 7.19 6.56" class="e"/><path d="M2507.14-25.02c12.12 15.22 23.88 30.63 36.43 45.61 27.02 32.25 53.71 64.71 81.94 96.29 26 29.08 56.61 55.09 90.69 78.36 32.32 22.07 65.12 43.7 97.16 66.02 48.7 33.92 89.37 72.93 116.38 120.23 14.96 26.2 25.78 53.47 31.8 81.87 4.47 21.09 7.86 42.27 7.43 63.76-.15 7.48 1.84 14.99 1.56 22.46-.81 21.51-2.19 43-3.52 64.49-1.07 17.15-2.83 34.29-3.5 51.45-1 25.35-2.13 50.73-1.64 76.08.34 17.41 3.25 34.79 5.2 52.17 1.66 14.74 3.4 29.49 5.48 44.2 1.82 12.83 4.21 25.61 6.29 38.41 1.57 9.66 3.65 19.29 4.43 28.99 1.63 20.27 4.11 40.6 3.47 60.85-1.9 60.53-25.4 114.95-75.06 161.65-29.84 28.06-64.75 50.77-106.46 66.54-27.1 10.25-55.25 18.1-85.4 20.33-15.13 1.12-30.37 3.23-45.43 2.67-36.76-1.36-72.18-7.67-106.46-19.1-53.37-17.8-98.72-45.13-143.5-73.38-45.54-28.74-91.29-57.34-144.58-76.68-23.48-8.52-47.6-16-71.77-23.23-45.7-13.67-92.09-25.9-135.43-44.22-32.61-13.79-63.24-29.9-90.7-49.46-29.4-20.94-57.46-43.08-86.55-64.3-27.66-20.18-55.34-40.46-89.03-54.36-22.78-9.4-46.6-15.45-72.66-16.99-33.11-1.95-63.9 4.45-92.45 15.94-22.63 9.11-43.53 21.4-63.67 33.85-19.28 11.91-37.4 25.2-54.57 39.04-23.81 19.19-46.24 39.46-69.27 59.26-8.16 7.02-16.19 14.14-24.56 20.99-50.54 41.35-100.22 83.39-152.05 123.69-41.37 32.16-84.81 62.74-131.55 90.03-52.16 30.46-105.27 59.91-157.04 90.79-50.46 30.11-91.03 67.26-122.26 111.29-24.9 35.1-45.85 71.6-66.88 108.13-24.44 42.44-49.35 84.72-72.36 127.65-9.4 17.53-16.54 36.26-20.79 55.01-6.49 28.58-1.38 56.84 12.19 83.99 17.78 35.55 41.57 68.59 67.42 100.64 36.08 44.74 72.53 89.31 110.07 133.27 23.27 27.26 47.77 53.95 73.71 79.62 22.19 21.95 48.35 41.03 80.59 53.8 17.45 6.91 35.67 11.27 55.4 12.54 38.98 2.52 74.77-6.12 108.98-19.2 46.78-17.89 92.79-37.05 139.17-55.61 45.41-18.18 93.06-31.37 142.71-39.79 35.08-5.95 70.94-6.05 106.28-3.99 42.53 2.48 83.54 11.71 122.77 25.59 37.35 13.21 72.58 29.11 105.48 48.52 41.46 24.46 77.31 53.29 109.05 85.55 2.22 2.25 5.39 3.91 8.11 5.84" class="e"/><path d="M2611.66-24.29c28.08 41.23 58.62 81.3 96.63 117.19 24.87 23.48 52.42 45.1 82.3 64.8 28.45 18.76 55.82 38.57 83.76 57.84 36.26 25 67.45 53.46 93.65 85.49 29.21 35.7 51.78 73.74 64.38 115.26 6.05 19.93 11.87 39.96 16.16 60.16 2.82 13.31 2.86 27 3.9 40.54.82 10.62 1.8 21.25 1.73 31.88-.09 14.98-.86 29.96-1.75 44.92-.94 15.71-1.68 31.46-3.72 47.09-3.99 30.63-4.05 61.34-3.25 92.03.45 16.93 3.3 33.83 5.22 50.72 4.63 40.71 17.81 80.05 29.9 119.57 6.18 20.21 12.58 40.42 17.12 60.88 7.39 33.33 3.94 65.78-14.1 97.14-16.58 28.83-39.44 54.01-64.62 78.26-33.5 32.27-72.23 59.96-115.74 83.03-49.52 26.25-103.04 45.8-162.52 53.04-16.26 1.98-32.66 3.56-49.08 4.27-16.92.73-34.16 1.59-50.83-.18-23.56-2.51-47-6.52-69.98-11.43-47.4-10.12-90.23-28.35-130.91-49.86-38.93-20.59-77.69-41.39-116.34-62.31-40.19-21.75-83.76-38.29-128.17-53.61-40.35-13.91-81.26-26.92-120.71-42.3-42.11-16.41-81.08-37.23-115.52-62.82-30.41-22.59-60.02-45.86-90.08-68.75-22.29-16.97-44.81-33.76-70.89-47.1-29.05-14.86-60.5-23.33-95.42-21.7-17.4.82-34.03 4.68-49.97 10.13-36.1 12.34-67.17 30.67-95.42 52.15-21.09 16.03-42.46 31.87-62.61 48.62-32.93 27.38-64.96 55.45-97.4 83.22-9.35 8-18.71 16-28.18 23.91a7551.796 7551.796 0 01-46.35 38.41c-22.98 18.88-45.34 38.27-69.23 56.39-35.11 26.62-71.2 52.43-107.13 78.36-27.04 19.52-54.84 38.38-81.65 58.1-22.04 16.21-44 32.59-64.43 50.06-30.02 25.66-55.87 54.03-77.28 84.71-14.88 21.32-29.02 43.04-41.78 65.21-24.34 42.26-45.33 85.53-58.54 131.05-7.79 26.84-10.01 54-7.62 81.16 2.51 28.41 12.63 55.71 26.9 81.89 18.73 34.36 41.71 66.86 68.12 97.84 21.78 25.54 45.14 50.05 70.74 73.3 20.79 18.89 43.59 35.7 70.2 49.1 23.79 11.98 49.43 18.79 78.12 19.1 36.7.39 70.62-7.7 103.56-19.14 34.17-11.87 67.84-24.67 101.87-36.82 41.1-14.68 82.05-29.7 125.4-39.89 28.59-6.72 57.27-12.74 87.24-14.66 26.83-1.72 53.29-1.45 80.03 1.44 52.65 5.68 100.42 21.87 147.23 40.72 51.3 20.66 98.93 45.81 142.52 75.54 40.69 27.76 76.17 59.51 106.45 94.81 9.63 11.22 18.76 22.72 28.29 34 1.27 1.5 3.56 2.46 5.38 3.66" class="e"/><path d="M2551.67-24.29c25.45 32.12 50.64 64.38 76.41 96.34 29.66 36.77 66.22 69.01 106.49 98.39 28.54 20.81 59.33 39.64 88.81 59.65 44.52 30.23 85.13 63.43 115.28 103.67 25.44 33.96 43.86 70.33 53.98 109.3 5.48 21.11 10.22 42.19 10.76 63.79.56 22.46 1.83 44.93 1.6 67.39-.17 16.67-2.18 33.33-3.44 50-1.15 15.22-2.94 30.42-3.51 45.65-1.02 27.04-2.06 54.11-1.65 81.15.23 15.23 3.19 30.45 5.21 45.65 2.24 16.92 4.56 33.84 7.3 50.72 2.36 14.53 5.59 28.97 8.04 43.49 2.4 14.22 5.01 28.46 6.24 42.76 1.41 16.38 1.88 32.84 1.9 49.26.03 30.39-9.57 59.17-24.44 86.95-20.25 37.83-50.94 69.82-88.27 97.72-35.63 26.63-76.44 46.96-122.56 60.28-25.64 7.4-51.84 12.36-79.07 14.6-54.72 4.51-106.68-2.75-157.35-19.52-50.22-16.63-93.87-41.32-137.24-66.74-33.45-19.6-67.22-38.93-101.85-57.16-34.09-17.95-71.77-30.54-109.84-42.18-42.51-13-85.62-24.92-126.24-41.45-39.07-15.9-75.66-35.01-108.15-58.65-24.06-17.5-47.14-35.85-71.03-53.5-27.93-20.63-54.98-42.11-87.16-58.78-22.33-11.57-46.64-19.72-72.8-22.06-28.78-2.57-57.4.12-84.51 9.72-33.48 11.86-63.06 28.24-89.93 47.9-16.43 12.02-33.52 23.54-48.93 36.35-31.45 26.15-61.96 53.02-92.88 79.58-8.75 7.52-17.36 15.14-26.39 22.44-48.4 39.18-96.02 79.02-145.64 117.21-50.29 38.71-104.09 74.34-159.66 108.23-45.27 27.61-89.95 55.77-129.21 89-27.88 23.6-51.53 49.61-71.55 77.67-12.99 18.2-24.93 36.92-36.41 55.76-25.95 42.57-49.64 85.92-70.18 130.36-10.5 22.7-19.43 45.71-24.4 69.6-3.95 19.01-3.72 38.06-1.08 57.25 6.56 47.72 33.9 89.07 63.14 129.55 21.79 30.17 45.17 59.73 70 88.36 27.07 31.21 55.26 61.95 85.59 91.16 20.94 20.17 45.06 38.56 74.92 51.1 16.4 6.89 33.49 11.58 51.84 13.76 37.22 4.42 72.1-3 105.3-14.8 44.79-15.91 88.52-33.71 132.86-50.43 43.11-16.27 87.11-30.76 133.59-39.86 25.97-5.08 52.26-8.05 79.03-9.74 48.91-3.08 95.92 3.62 141.73 15.71 65.65 17.33 124.85 44.4 178.23 79.49 44.26 29.09 82.73 62.42 115.49 99.96 1.3 1.49 3.57 2.45 5.39 3.66" class="e"/><path d="M-39.55 1180.72c9.69-4.11 19.14-8.67 29.13-12.23 27.12-9.67 54.48-18.94 81.75-28.34 40.81-14.08 82.62-25.83 126.37-32.47 24.35-3.7 48.97-6.46 73.6-8.74 60.44-5.59 121.2-1.37 181.75-3.2 64.46-1.94 123.91-16.45 174.48-49.83 30.7-20.26 56.45-43.77 72.69-73.17 7.53-13.63 13.82-27.61 14.57-42.74.7-14.25 2.67-28.58 1.46-42.73-1.4-16.27-4.65-32.56-8.91-48.53-10.91-40.92-23.55-81.55-33.99-122.55-4.47-17.54-5.34-35.68-7.54-53.57-1.01-8.18-2.33-16.47-1.7-24.62 2.31-29.91 7.21-59.39 27.98-85.51 9.94-12.5 22.64-22.87 39.16-29.6 22.1-9 43.74-6.84 64.47 3.51 23.07 11.52 38.58 28.48 50.67 47.2 20.61 31.91 33.43 66.1 40.86 101.39 4.43 21.07 7.66 42.42 9.02 63.74 1.9 29.66 2.05 59.41 1.94 89.11-.06 16.19-2.35 32.36-3.39 48.55-.81 12.55-2.46 25.17-1.63 37.67 2.25 33.73 10.08 66.26 37.95 93.48 24.25 23.69 55.18 37.52 93.6 40.62 40.26 3.25 77.75-4.37 114.59-16.58 51.34-17.02 95.99-42.17 139.07-69.61 46.07-29.34 86.72-63.2 127.94-96.56 36.69-29.69 71.26-61.07 108.57-90.24 35.3-27.6 73.66-52.44 118.74-69.87 30-11.6 61.15-18.77 94.54-21.16 50.79-3.64 96.57 7.8 139.92 27.13 38.23 17.04 71.42 39.65 104.62 62.19 43.05 29.22 86.46 58.11 138.15 77.51 30.98 11.63 63.25 20.49 96.31 27.61 43.69 9.41 87.84 17.62 129.97 31.14 40.44 12.97 77.26 30.91 110.82 52.95 35.17 23.11 69.48 47.05 104.69 70.12 23.85 15.63 50.6 27.94 79.98 35.37 42.83 10.84 83.93 7.68 121.76-13.47 24.76-13.84 41.29-32.68 52.45-54.48 10.39-20.29 16.1-41.61 16.63-63.7.21-8.94 2.12-17.91 1.55-26.8-1.12-17.42-3.2-34.81-5.31-52.17-2.12-17.41-4.54-34.81-7.28-52.17-2.03-12.84-5.07-25.58-7.1-38.42-1.67-10.58-2.42-21.25-3.75-31.87-1.72-13.77-3.78-27.52-5.37-41.31-.95-8.19-1.41-16.42-1.85-24.63-.72-13.28-.89-26.59-1.93-39.85-1.48-18.86-2.92-37.74-5.54-56.51-2.9-20.84-5.72-41.79-11.16-62.26-4.59-17.26-11.54-34.33-19.86-50.7-16.24-31.98-41.18-59.72-70.65-84.84-24.3-20.71-49.25-40.93-73.52-61.67-36.98-31.59-71.81-64.61-101.84-100.69-26.1-31.37-50.95-63.46-78.46-94.03-37.95-42.19-77.88-83.25-116.97-124.79-5.71-6.07-11.51-12.08-17.26-18.12" class="e"/><path d="M-40.46 1153.91c23.33-8.7 46.61-17.47 69.99-26.07 57.28-21.08 115.23-40.82 177.26-51.33 26.14-4.43 52.6-7.83 79.06-10.87 22.6-2.59 45.43-3.92 68.14-5.95 45.98-4.12 92.04-7.52 136.39-19.42 48.21-12.93 88.37-34.7 117.84-67.67 19.21-21.49 30.52-45.92 36.01-72.27 4.64-22.25 4.1-44.53 2.87-66.69-1.15-20.61-5.98-41.1-9.6-61.6-3-16.95-6.6-33.82-9.93-50.73-2.43-12.32-4.94-24.63-7.23-36.96-.89-4.8-1.61-9.65-1.8-14.49-.76-19.56-2.96-39.21-1.48-58.67 2.21-29.1 9.21-57.69 26.03-84.05 19.02-29.81 44.09-54.9 85.37-66.69 35.88-10.25 67.02-2.23 94.41 16.77 29.43 20.41 47.25 47.21 63 75.19 15.16 26.94 26.3 54.94 34.93 83.46 8.01 26.49 13.35 53.51 19.34 80.38 3.59 16.1 6.55 32.31 9.06 48.55 1.86 12.01 2.23 24.17 3.84 36.21 2.1 15.73 4.42 31.45 7.28 47.1 3.24 17.68 6.41 35.4 11 52.87 6.06 23.03 17.4 44.3 37.04 62.37 17.92 16.5 39.97 26.59 67.28 29.77 34.31 3.99 66.14-3.24 97.22-13.22 43.62-14.01 81.78-35.27 118.18-58.62 39.17-25.13 74.9-53.24 109.97-81.88 37.42-30.56 73.76-61.98 112.06-91.81 35.47-27.63 74.69-51.74 119.78-68.96 26.78-10.23 54.59-18.12 84.48-20.38 10.92-.83 21.88-3.05 32.71-2.64 24.21.92 48.43 2.67 71.82 8.45 48.05 11.89 89.81 32.76 129.05 57.26 30.92 19.3 61.35 39.13 92.82 57.85 44.43 26.44 93.2 46.2 147.13 57.36 42.11 8.71 84.44 16.78 126.27 26.27 38.7 8.78 75.74 21.02 110.09 38.15 36.1 18.01 68.54 39.7 100.93 61.57 26.81 18.1 54.12 35.74 86.18 48.02 16.55 6.34 34 10.5 51.89 11.14 22.32.8 43.48-4.33 60.82-16.36 25.91-17.97 38.49-41.36 43.89-68.04 4.35-21.48 4.05-43.02 3.09-64.51-.76-16.95-4.56-33.82-6.92-50.73-1.89-13.52-3.44-27.07-5.53-40.57-2.17-14.03-5.02-28-7.14-42.04-1.6-10.59-2.47-21.25-3.72-31.87-1.79-15.22-3.67-30.43-5.43-45.65-.72-6.27-1.09-12.57-1.86-18.84-2.97-23.92-6.07-47.82-9.05-71.74-3.06-24.56-10.28-48.42-20.14-71.7-15.74-37.16-41.31-69.99-72.63-100-34.93-33.47-71.6-65.86-104.97-100.28-29.52-30.44-56.4-62.59-82.91-94.78-38.77-47.06-76.23-94.79-120.1-139.06-29.45-29.72-58.24-59.86-87.32-89.81" class="e"/><path d="M3097 2182.12c5.45-6.52 11.06-12.96 16.33-19.58 13.42-16.86 27.26-33.53 39.85-50.79 11.02-15.1 18.88-31.72 18.69-49.19-.13-12.58-3.63-25.65-8.94-37.57-9.44-21.19-21.17-41.74-32.36-62.41-19.25-35.56-37.2-71.44-51.12-108.64-11.9-31.8-22.09-63.86-29.6-96.45-3.43-14.87-6.21-29.88-8.14-44.92-2.47-19.27-3.98-38.62-5.54-57.96-.97-12.06-2.48-24.2-1.62-36.21 1.45-20.33 4.92-40.57 6.92-60.88 2.64-26.86 10.63-52.9 18.44-78.94 4.77-15.89 11.61-31.37 17.02-47.15 9.02-26.28 18.73-52.45 26.03-79.04 4.75-17.3 4.49-34.95-9.49-50.72-9.11-10.29-21.25-15.39-36.46-17.41-23.19-3.08-44.98 2.27-66.26 7.6-41.86 10.46-83.01 22.69-124.65 33.72-38.82 10.28-78.35 18.49-119.04 22.47-19.02 1.86-38.14 3.18-57.26 4.35-13.9.85-27.94 2.01-41.79 1.33-38.4-1.88-76.71-5.57-113.51-14.6-29.64-7.26-58.76-16.21-87.26-25.98-55.28-18.95-106.3-44.49-159.35-66.91-47.86-20.22-97.34-38.01-146.14-56.8-60.64-23.35-119.53-48.94-171.82-83.3-31.83-20.91-62.08-43.16-90.83-66.71-17.03-13.96-33.47-28.4-51.03-41.92-23-17.7-47.24-34.45-76.3-45.63-29.47-11.34-60.16-12.71-91.76-5.29-32.75 7.69-60.09 22.68-86.26 39.28-45.11 28.6-83.86 62.58-124.4 95-24.2 19.35-46.9 39.9-70.12 60.03-25.55 22.15-51.14 44.27-76.33 66.68-60.69 53.98-126.32 104.11-189.84 155.89-37.56 30.61-72.58 63.09-101.95 99.15-34.19 42-60.88 86.83-78.98 134.79-7.5 19.86-13.63 40.02-15.6 60.84-.92 9.68-3.47 19.33-3.4 28.99.32 41.71 12.31 81.25 37.13 118.09 13.56 20.13 29.98 38.63 48.85 55.94 20.73 19.02 45.02 34.37 72.11 46.8 19.72 9.04 41.57 13.65 64.39 15.47 42.91 3.42 82.37-6.63 121.87-18.05 48.68-14.07 93.9-33.81 139.89-52.34 26.12-10.52 51.85-21.69 78.25-31.74 28.39-10.81 57.81-19.85 89.02-23.91 35.81-4.66 69.96.67 102.7 12.88 39.93 14.89 75.22 35.64 110.75 55.95 45.59 26.07 90.83 52.56 135.36 79.77 24.01 14.67 46.45 31.01 69.2 46.96 48.55 34.01 88.08 74.15 122.54 117.45 16.63 20.9 31.09 42.9 46.58 64.37 1.63 2.26 3.61 4.36 5.43 6.53" class="e"/><path d="M-40.46 1127.82c23.93-9.18 47.77-18.53 71.82-27.5 45.1-16.82 90.4-33.23 138.11-45 34.91-8.61 70.39-15.19 106.35-20.28 46.98-6.65 94.28-12.25 140.79-20.61 48.15-8.65 92.05-25.27 126.35-54.79 24.65-21.21 40.17-46.15 48.6-74.51 8.37-28.15 7.33-56.49 6.57-84.84-.42-15.49-4.55-30.92-6.9-46.38-1.91-12.55-3.55-25.13-5.5-37.67-1.99-12.81-4.22-25.61-6.33-38.41-.92-5.55-2.41-11.1-2.62-16.67-.86-22.46-3.26-45.02-1.49-67.36 2.99-37.56 14.68-73.66 38.73-106.5 23.51-32.11 53.65-59.2 97.22-74.56 42.95-15.14 83.28-10.57 119.88 12.96 31.06 19.97 50.9 46.61 68.15 74.62 19.17 31.15 34.14 63.62 45.36 97.11 8.85 26.43 17 53.02 24.52 79.7 6.77 24.03 12.27 48.28 18.33 72.43 6.67 26.57 12.79 53.23 20.15 79.68 6.92 24.87 16.45 49.08 33.42 71.07 16.1 20.85 38.08 35.43 68.24 41.21 23.37 4.48 46.53 1.81 69.01-3.67 44.11-10.75 82.2-30.45 118.13-52.85 52.88-32.96 98.7-72.01 145.19-110.3 39.53-32.57 79.9-64.1 125.65-91.14 41.45-24.5 86.48-42.59 137.32-50.58 32.88-5.17 65.84-5.1 99.08-.96 42.58 5.3 81.5 18.14 116.97 36.69 37.72 19.72 73.79 41.48 110.15 62.81 46.95 27.54 96.46 51.33 152.84 64.19 33.17 7.57 67.17 12.8 100.8 19.07 23.33 4.35 46.92 7.97 69.92 13.22 31.05 7.09 61.18 16.29 90.09 28 37.59 15.23 71.87 34.53 106.28 53.71 20.55 11.45 41.03 23.32 64.66 30.16 22.62 6.56 45.59 7.61 65.34-6.97 13.38-9.88 21.06-22.39 24.31-36.28 4.87-20.79 8.1-41.73 4.03-63.03-1.73-9.04-1.12-18.35-2.07-27.51-1.58-15.23-3.62-30.43-5.37-45.66-.75-6.51-1.3-13.04-1.83-19.56-1.26-15.7-2.15-31.42-3.73-47.09-1.42-14.03-3.71-28.01-5.32-42.04-1.44-12.54-1.82-25.18-3.84-37.66-2.68-16.49-5.89-32.96-9.97-49.27-8.19-32.74-21.81-64.03-41.68-93.49-16.63-24.65-36.79-47.44-58.2-69.54-39.76-41.04-80.24-81.67-115.31-125.42-31.6-39.41-61.77-79.56-93.9-118.69-34.05-41.47-72.92-80.16-111.47-119.01-20.67-20.83-40.11-42.43-60.11-63.69" class="e"/><path d="M-40.46 1252.45c16.66-5.31 33.47-10.37 49.96-15.99 45.3-15.45 91.78-28.14 140.06-35.92 18.98-3.06 38.74-4.57 58.1-4.3 33.51.46 66.88 4.18 97.15 16.53 39.96 16.3 66.92 42.01 82.02 75.88 12.51 28.07 19.22 57.2 26.14 86.28 11.72 49.26 28.91 97.01 59.23 141.26 16.36 23.87 35.24 46.5 58.38 66.5 9.68 8.37 21.64 15.28 33.49 21.79 20.38 11.2 41.59 9.19 61.59-.72 18.23-9.04 33.05-21.18 46.6-34.56 31.32-30.93 55.75-65.18 76.89-100.9 18.34-30.99 33.98-63.01 52.24-94.03 19.15-32.53 39.51-64.45 70.4-91.58 28.21-24.77 61.85-43.3 97.57-59.88 37.06-17.19 74.52-33.82 111.74-50.8 46.43-21.19 89.71-46.06 130.76-73.29 26.72-17.72 52.83-36.09 78.14-55.08 31.83-23.87 63.17-48.19 93.6-73.18 34.33-28.2 67.75-57.12 100.96-86.17 33.35-29.17 68.42-56.79 108.26-80.35 29.44-17.4 61.24-31.13 97.26-37.62 29.2-5.26 58.3-4.49 87.25 2.04 37.52 8.45 69.51 24.85 98.86 44.44 23.65 15.79 45.59 33.19 68.36 49.81 36.41 26.57 73.6 52.32 116.3 72.51 28.03 13.26 57.64 23.76 88.22 32.5 40.77 11.64 82.14 22 122.57 34.34 44.26 13.51 84.71 32.8 121.88 56.32 38.84 24.58 76.75 50.15 116.6 73.63 34.88 20.55 73.3 36.61 116.14 44.3 15.45 2.77 31.4 4.28 47.23 5.07 21.04 1.05 42.27.74 62.66-4.27 18.67-4.59 37.9-8.6 55.27-15.45 27.13-10.69 51.35-25.21 72.01-43.14 31.33-27.2 53.61-58.33 65.54-94.18 5.63-16.93 10.19-33.91 10.81-51.47.58-16.67 2.42-33.37 1.51-49.99-1.16-21.06-4.15-42.07-7.07-63.04-3.17-22.75-7.67-45.38-10.63-68.14-2.1-16.11-3.19-32.34-3.68-48.54-1.02-33.57-2.07-67.15-1.75-100.72.36-37.2 2.77-74.39 3.25-111.59.31-24.43-4.6-48.57-10.84-72.44-5.97-22.85-15.35-45.03-28.39-65.82-13.19-21.04-29.17-40.96-48.73-58.84-33.15-30.3-71.04-56.49-109.89-81.97-57.44-37.67-107.97-80.61-150-129.64-31.53-36.78-62.37-73.93-93.74-110.8-10.24-12.03-21.15-23.7-31.75-35.54" class="e"/><path d="M-40.46 1224.92c47.26-15.22 94.15-31.25 141.92-45.36 31.22-9.22 63.93-15.76 97.16-18.03 27.07-1.85 54.5-.75 81.76-.26 23.11.42 45.43 5.08 67.22 10.85 30.84 8.16 59.05 20.18 82.76 38.3 25.29 19.33 39.78 43.38 46.06 70.34 5.01 21.53 7.49 43.44 11.2 65.17 5.65 33.12 14.02 65.69 33.73 95.6 9.64 14.63 22.06 27.95 39.07 37.61 27.15 15.4 52.4 15.18 79.89-1.3 20.51-12.29 34.4-28.92 46.1-46.5 20.4-30.64 32.75-63.76 45.01-96.94 10.89-29.47 21.34-59.17 42.34-85.63 17.29-21.79 40.06-38.35 68.25-50.72 33.52-14.71 70.37-22 106.43-30.97 38.37-9.55 76.82-18.73 113.61-31.92 67.39-24.16 128.23-56.35 184.39-94.34 21.92-14.83 43.48-30.03 64.49-45.68 23.48-17.48 46.78-35.18 69.03-53.65 29.11-24.16 56.69-49.48 85.69-73.72 44.99-37.6 89.64-75.55 145.28-103.75 27.05-13.71 56.12-23.8 87.36-28.68 39.95-6.25 78.81-1.58 116.32 11.26 35.4 12.12 65.63 30.21 94.49 50.07 39.04 26.85 77.39 54.38 117.46 80.22 35.14 22.65 75.31 38.96 117.98 50.83 40.97 11.4 82.27 22.06 123.58 32.67 55.18 14.18 104.26 37.01 149.01 66.02 37.41 24.25 73.96 49.37 112.01 72.96 30.3 18.79 64.12 33.32 101.66 40.6 71.95 13.94 136 1.88 190.9-38.88 28.44-21.11 48-46.49 60.77-75.44 6.83-15.51 12.06-31.38 13.57-47.82 1.64-17.85 3.69-35.75 3.4-53.61-.28-17.41-3.2-34.79-5.15-52.17-1.66-14.74-3.34-29.49-5.5-44.2-2.07-14.04-5.04-28-7.11-42.04-1.63-11.07-2.58-22.21-3.71-33.32-6.68-66.12-1.86-132.37-3.9-198.54-1.12-36.56-6.29-73-20.86-107.92-15.29-36.64-40.09-69.02-72.36-97.98-28.35-25.44-61.1-46.97-92.75-69.55-50.29-35.88-96.59-74.73-134.64-119.45-29.25-34.37-58.26-68.88-88.29-102.82-23.46-26.52-48.32-52.26-72.53-78.36-.79-.86-1.24-1.92-1.84-2.88" class="e"/><path d="M2995.21 2182.12c2.42-4.59 5.29-9.06 7.19-13.79 6.87-17.1 13.99-34.15 19.93-51.46 7.57-22.09 15.35-44.22 20.61-66.7 3.54-15.11 4.85-30.95 3.62-46.29-1.92-24-5.9-47.96-10.67-71.73-7.04-35.13-15.53-70.07-23.42-105.09-6.04-26.81-12.42-53.58-18.04-80.45-2.61-12.45-3.77-25.1-5.59-37.66-2.42-16.67-4.96-33.32-7.21-50-.94-6.98-1.66-14-1.81-21.01-.75-34.54-1.54-69.08-1.76-103.62-.1-15.21 2.4-30.49 1.36-45.63-1.27-18.49-1.65-37.18-9.54-55.12-10.71-24.35-31.97-37.97-63.77-40.36-19.28-1.45-38.81-2.09-58.13-1.36-19.46.73-38.77 3.79-58.19 5.47-14.8 1.28-29.77 1.47-44.51 3.06-36.88 3.98-73.94 3.24-110.89 2.52-24.28-.47-48.69-2.59-72.67-5.75-37.86-4.99-74.95-13-110.87-23.8-35.1-10.56-69.92-21.76-104.53-33.3-38.68-12.89-76.98-26.52-115.48-39.75-31.78-10.93-63.51-21.95-95.45-32.56-37.14-12.34-72.14-27.8-105.34-45.78-31.08-16.83-60.24-35.64-87.31-56.45-18.82-14.47-38.08-28.59-56.24-43.56-25.92-21.37-50.25-44-76.7-64.93-22.63-17.92-46.68-35.01-76.2-45.69-16.82-6.08-34.75-10.69-53.52-9.37-17.27 1.21-33.95 4.98-50.07 10.57-35.3 12.23-65.37 30.47-93.47 50.9-24.06 17.5-48.25 34.98-70.77 53.71-31.75 26.4-62.1 53.88-92.89 81.01-20.44 18.01-40.62 36.21-60.92 54.32-30.6 27.3-61.11 54.65-91.84 81.85-10.61 9.39-21.88 18.31-32.65 27.58-46.34 39.86-92.42 79.89-129.09 126.06-31.1 39.16-55.49 80.67-67.93 126.13-4.1 14.98-5.85 30.38-8.36 45.62-3.98 24.21.69 47.95 9.38 70.93 7.69 20.31 20.18 39.01 36.79 55.96 17.2 17.56 37.86 31.49 62.89 41.16 30.22 11.67 61.88 15.27 95.43 11.83 50.23-5.15 96.32-19.45 138.81-40.32 51.2-25.15 100.81-52.37 151.09-78.71 24.61-12.89 50.16-24.56 78.28-31.6 15.76-3.95 32.52-6.54 48.99-7.22 32.16-1.31 61.26 7.49 87.13 22.27 25.96 14.84 47.77 33.2 68.47 52.65 36.07 33.89 74.57 66.12 115.45 96.31 35.9 26.52 74.17 50.98 110.54 77.1 44.72 32.11 87.16 66.05 122.8 104.97 23.73 25.92 45.66 52.78 64.49 81.17 13.36 20.15 26.07 40.57 39.22 60.81 1.25 1.93 3.56 3.41 5.38 5.1M-39.55 1102.46c2.42-1.45 4.64-3.22 7.3-4.3 31.16-12.64 61.88-26.06 93.7-37.52 48.62-17.52 97.38-35.01 149.85-44.42 45.46-8.16 90.98-16.1 136.31-24.72 41.75-7.93 82.62-17.53 119.22-36.7 42.88-22.46 68.38-53.86 80.8-92.9 8.88-27.94 8.08-56.42 6.92-84.78-.76-18.4-4.21-36.75-7.05-55.07-2.59-16.71-6.38-33.3-8.86-50.02-1.89-12.74-2.86-25.58-3.69-38.39-.95-14.72-2.33-29.49-1.69-44.19 1.46-33.53 9.51-65.9 25.84-97.21 19.54-37.47 48.5-69.19 85.86-96.17 25.29-18.26 53.65-32.86 87.15-39.93 42.11-8.89 78.49.7 110.86 22.45 27.2 18.28 46.73 41.36 63.57 65.95 23.35 34.12 41.33 70.17 55.19 107.29 17.11 45.81 32.8 92 47.29 138.38 12.74 40.79 23.64 81.93 41.19 121.68 9.45 21.42 21.53 41.93 41.16 58.5 15.67 13.23 34.72 22.1 58.77 24.4 37.2 3.55 69.71-6.47 100.78-20.07 34.7-15.19 65.98-34.46 94.68-56.29 24.5-18.63 49.31-37.01 73.52-55.87 15.32-11.93 29.2-25.05 44.74-36.79 37.71-28.49 75.73-56.69 119.79-79.16 38.86-19.82 80.48-34.48 125.58-41.57 22.8-3.59 46.68-5.17 69.87-4.3 41.04 1.54 80.41 9.75 118.31 23.27 48.62 17.33 90.95 42.32 134.52 66.01 25.61 13.92 52.3 26.62 79.01 39.19 32.18 15.14 67.39 24.5 103.59 31.07 27.61 5.01 55.65 8.59 83.57 12.46 55.03 7.63 109.98 15.39 163.64 28.17 25.47 6.07 51.31 11.25 77.24 15.95 38.38 6.96 64.29-4.67 77.14-33.96 6.76-15.42 9.77-31.5 11.01-47.8 1.12-14.74 3.74-29.49 3.32-44.2-.71-24.42-3.47-48.79-5.11-73.19-1.53-22.7-7.39-44.8-14.69-66.64-9.09-27.18-22.77-52.94-39.86-77.56-31.13-44.85-71.04-85.12-105.31-128.32-34.24-43.17-67.51-86.83-100.99-130.38-33.49-43.56-69.93-85.45-109.97-125.37-36.71-36.6-74.52-72.55-107.27-111.57-.75-.89-1.23-1.92-1.84-2.89" class="e"/><path d="M2902.5 2182.12c.91-.24 2.56-.4 2.62-.74 5.59-32.05 17.73-62.89 27.29-94.2 7.65-25.05 15.57-50.08 21.54-75.4 3.7-15.66 4.23-31.82 5.72-47.78 1.04-11.08 2.28-22.25 1.68-33.32-1.01-18.63-3.37-37.21-5.25-55.8-1.12-11.12-2.11-22.25-3.7-33.33-1.77-12.35-4.11-24.65-6.3-36.96-2.67-14.98-5.36-29.96-8.19-44.92-1.97-10.4-4.33-20.76-6.31-31.16-2.84-14.96-5.32-29.97-8.25-44.92-3.46-17.65-7.23-35.27-10.86-52.9-3.64-17.63-6.72-35.35-11.04-52.87-5.57-22.6-12.97-44.86-29-64.49-16.61-20.34-40.6-32.32-69.95-37.66-20.61-3.75-41.48-5.79-62.7-5.92-24.85-.15-49.71-.51-74.52-1.48-24.87-.97-49.78-2.14-74.52-4.38-52.5-4.74-104-13.72-154.5-26.03-44.98-10.97-89.47-23.26-134.61-33.79-43.93-10.25-88.53-18.64-132.59-28.56-35.96-8.1-72.17-15.93-107.12-26.34-35.09-10.45-66.33-26.95-94.75-46.68-40.02-27.78-71.62-61.42-104.59-94.17-23.01-22.86-47.26-44.92-70.74-67.49-20.64-19.85-44.72-36.47-72.81-49.16-22.83-10.31-47.17-13.53-73.61-10.49-32.23 3.71-58.68 16.69-84.35 30.84-39.41 21.71-74.2 47.95-106.16 76.16-39.74 35.08-77.39 71.67-115.69 107.77-34.72 32.72-69.38 65.49-103.57 98.57-31.72 30.69-64.05 61.05-91.79 94.19-22.61 27.01-43.02 54.97-55.59 86.17-9.32 23.13-15.83 46.7-13.35 71.01 3.59 35.19 19.98 64.72 62.49 81.18 14.08 5.45 28.8 7.75 44.53 8.14 32.04.8 61.18-6.54 90.08-16.67 43.82-15.36 80.76-38.88 119.04-60.96 29.96-17.28 59.78-34.83 91.02-50.54 33.99-17.09 71.12-29.45 110.73-35.54 33.15-5.1 66.48-4.95 99.03 4.1 31.45 8.74 57.1 23.87 78.15 44.23 23.92 23.13 41.76 49.3 60.15 75.28 26.53 37.49 53.94 74.68 90.85 106.5 29.96 25.83 60.81 51.02 91.76 76.11 21.03 17.04 43.49 32.97 64.32 50.16 41.76 34.46 79.49 71.59 109.94 113.02 19.6 26.67 38.32 53.78 56.29 81.17 11.73 17.88 21.36 36.65 32.12 54.95 1.14 1.94 3.54 3.42 5.36 5.11M-40.46 1065.51c31.2-13.04 62.45-26.03 93.61-39.14 45.56-19.17 92.65-35.59 141.87-47.6 34.12-8.33 69-14.7 103.53-21.95 40.39-8.48 80.52-17.63 116.29-35.56 33.75-16.92 58.48-39.87 71.91-70.21 9.57-21.62 13.4-43.84 13.67-66.68.3-24.6-2.48-48.93-7.32-73.19-4.52-22.67-9.17-45.34-12.59-68.12-2.78-18.51-4.34-37.16-5.48-55.78-.85-13.98-1.3-28.08.09-42 2.29-22.94 8.95-45.22 19.7-66.69 17.82-35.58 43.92-66.95 75.46-95.65 32.35-29.44 67.66-56.23 109.11-77.49 22.89-11.74 47.54-20.82 74.55-23.68 29.68-3.14 57.25 3.02 81.76 17.12 33.11 19.04 55.72 45.07 76.35 72.46 23.66 31.42 41.39 65.02 57.19 99.29 23.33 50.61 42.28 102.31 60.23 154.28 11.42 33.07 23.95 65.92 37.31 98.53 10.38 25.34 22.53 50.19 41.47 72.58 14.2 16.78 31.21 30.67 55.59 37.54 13.74 3.87 27.97 5.41 42.69 3.76 44.63-5.02 81.19-23.41 115.23-45.16 23.41-14.96 45.33-31.44 67.36-47.71 20.11-14.86 39.26-30.54 59.21-45.53 38.74-29.11 78-57.77 122.68-81.16 42.24-22.11 87.49-38.89 137.24-47.02 14.66-2.4 29.62-3.83 44.52-5.07 12.05-1.01 24.25-1.72 36.34-1.44 42.62 1 83.74 7.98 123.65 20.09 49.61 15.06 93.99 37.71 139.03 59.49 41.56 20.09 83.75 39.11 130.85 50.06 23.59 5.48 47.31 10.32 71.82 12.25 19.08 1.51 38.14 3.54 57.27 4.21 29.66 1.04 59.43 2.2 89.05 1.27 25.78-.81 51.42-4.33 74.56-14.86 29.41-13.39 43.06-35.01 49.92-60.18 4.36-16 5.34-32.41 3.27-48.51-2.1-16.33-6.61-32.57-11.61-48.54-7.68-24.54-20.61-47.69-34.67-70.2-13.95-22.34-30.48-43.65-46.04-65.34-23.25-32.4-47.2-64.49-69.84-97.16-41.71-60.19-84.58-119.75-138.3-173.84-31.99-32.2-64.79-63.9-96.1-96.52-18.77-19.56-35.36-40.44-52.94-60.73" class="e"/><path d="M-40.46 1204.63c37.26-12.56 74.32-25.53 111.85-37.57 39.14-12.55 79.29-22.93 120.86-28.93 34.46-4.98 69.43-7.51 104.47-5.77 23.11 1.15 46.15 3.7 69.07 6.42 58.13 6.89 113.25 23.34 170.01 34.58 36.64 7.25 71.78 4.19 104.54-12.13 27.89-13.89 56.13-27.35 84.51-40.59 31.67-14.78 66.11-21.64 102.63-18.67 27.41 2.23 54.44 7.73 81.87 9.56 24.97 1.67 50.28.91 75.39.2 28.13-.8 55.11-6.86 81.81-13.62 26.26-6.65 51.39-15.51 75.36-26.2 43.66-19.46 84.61-42.17 122.76-68.02 15.55-10.53 31.34-20.88 46.27-31.95 21.01-15.59 41.92-31.33 61.77-47.84 32.03-26.65 62.5-54.5 94.83-80.92 41.54-33.95 82.36-68.66 132.5-95.09 31.86-16.79 66.04-29.63 103.7-34.45 41.03-5.24 81.31-1.44 119.96 11.93 38.38 13.28 71.19 32.98 102.66 54.43 32.99 22.49 65.32 45.65 99.26 67.2 35.53 22.56 74.91 40.55 118.05 52.16 44.75 12.04 90.43 21.87 135.28 33.68 56.91 14.99 108.62 37.82 154.57 68.69 34.2 22.98 67.94 46.41 102.85 68.69 30.47 19.44 64.16 35.25 102.61 41.94 69.89 12.16 129.46-2.14 176.37-46.78 27.35-26.03 41.49-56.14 48.22-89.18 4.31-21.18 6.52-42.44 5.06-63.78-1.32-19.37-4.55-38.66-7.06-57.98-2.33-17.88-4.65-35.76-7.3-53.62-2.16-14.52-5.18-28.96-7.1-43.49-1.75-13.24-3.07-26.54-3.65-39.85-1.52-34.77-2.51-69.56-3.74-104.34-.57-15.94-.53-31.92-1.99-47.81-1.63-17.68-4.84-35.26-7.04-52.91-2.52-20.19-9.02-39.62-17.35-58.68-13.95-31.91-35.13-60.54-63.71-85.42-20.25-17.63-41.35-34.65-62.69-51.46-17.68-13.93-36.8-26.7-54.32-40.75-41.01-32.86-77.79-68.64-109.93-107.24-42.88-51.49-85.75-102.95-132.86-152.08-13.25-13.82-26.65-27.54-39.98-41.31" class="e"/><path d="M994.76-25.02c-17.57 20.29-35.15 40.57-52.71 60.87-21.52 24.87-44.35 49.1-64.15 74.82-18.69 24.29-23.18 50.73-11.57 78.87 12.86 31.18 32.63 59.69 50.24 89.06 26.02 43.39 51.31 87.05 70.81 132.62 16.58 38.74 32.5 77.67 48.21 116.65 17.29 42.91 33.3 86.15 51.21 128.9 12.41 29.62 27.5 58.47 50.62 84.14 11.95 13.27 25.77 24.75 44.58 31.86 18.65 7.05 38.02 8.29 58.18 5.13 28.86-4.53 53.5-16 77.23-29.06 29.68-16.33 56.29-35.59 82.77-55.01 44.91-32.92 88.47-67.08 138.08-95.71 43.4-25.04 89.71-45.63 140.93-58.59 26.31-6.65 53.16-11.65 80.86-13.14 16.07-.87 32.14-2.93 48.17-2.66 29.96.51 59.76 3.17 89.07 8.49 41.28 7.49 80.68 19.23 119.09 33.29 38.69 14.16 77.21 28.68 116.44 41.84 25.5 8.55 52.18 14.45 79.81 17.89 22.16 2.76 44.35 3.64 66.38 2.34 36.15-2.12 70.98-8.51 97.22-30.91 13.8-11.78 21.03-25.86 23.9-41.96 5.82-32.69-5.57-63.18-19.74-92.64-27.64-57.47-61.5-112.8-96.87-167.49-32.79-50.71-70.9-98.76-115.44-143.45-30.28-30.39-61.44-60.23-91.65-90.67-26.78-26.99-52.35-54.7-73.71-84.72m718.01-.03c19.23 29.5 43.12 56.35 70.78 81.23 24.28 21.85 51.42 41.14 79.02 60.21 34.98 24.18 70.76 47.81 101.83 75.3 32.74 28.97 61.13 60.5 84.78 94.78 21.3 30.88 39.05 62.9 52.58 96.43 10.31 25.57 18.88 51.49 22.71 78.26 2.58 18.1 5.31 36.2 7.16 54.35 1.35 13.24 1.61 26.56 1.91 39.84.76 33.33.79 66.67 2.08 99.99.61 15.73 3.68 31.39 5.18 47.11 1.86 19.44 7.67 38.17 15.58 56.5 13.82 32.02 38.66 57.22 76.43 72.98 22.59 9.42 47.6 14.19 72.57 18.32 46.03 7.6 91.6 16.83 132.51 35.78 35.58 16.48 65.87 38.16 89.4 65.61 17.7 20.65 33.92 41.9 47.06 64.59 14.78 25.52 28.93 51.26 43.74 76.77 13.95 24.02 28.36 47.87 42.68 71.75 9.48 15.81 19.01 31.78 21.36 49.32 1.04 7.75-1.13 16.32-4.41 23.79-7.54 17.17-15.73 34.25-25.35 50.73-19.03 32.6-33.83 66.22-42.5 101.52-4.98 20.27-10.5 40.48-14.33 60.89-3.51 18.71-5.03 37.66-7.52 56.49-2.97 22.47-6.24 44.91-9 67.4-1.62 13.25-2.09 26.6-3.82 39.84-1.96 15.01-4.75 29.96-7.16 44.93-1.83 11.35-3.4 22.73-5.51 34.05-3.43 18.38-5.89 36.97-11.16 55.02-7.89 27.03-16.72 53.97-27.21 80.43-19.02 47.99-49.29 91.48-87.98 131.17-21.42 21.98-43.94 43.29-65.23 65.34-13.3 13.78-24.77 28.25-28.72 46.23-3.2 14.6 1.65 27.19 8.6 39.9 9.48 17.35 25.05 31.35 40.04 45.61 6.88 6.54 14.34 12.71 21.82 18.82 2.54 2.07 5.98 3.44 9.01 5.13" class="e"/><path d="M1062.92-24.29c-20.3 27.53-40.86 54.95-60.81 82.64-15.3 21.24-29.07 43.08-38.37 66.6-5.53 14-8.76 28.19-11.07 42.75-4.08 25.75.48 50.75 8.66 75.34 10.02 30.14 21.11 60.07 32.62 89.87 17.12 44.31 35.1 88.41 52.58 132.64 13.45 34.03 26.74 68.09 40 102.17 12.85 33.03 27.52 65.52 47.37 96.33 13.21 20.5 28.75 39.67 52.59 53.7 24.28 14.29 50.8 16.07 79.12 10.14 34.06-7.14 62.26-22.82 88.87-40.07 29.63-19.21 57.77-39.89 86.54-59.95 45.04-31.4 90.71-62.17 142.74-86.17 48.55-22.39 100.07-38.72 155.36-47.23 24.37-3.75 48.76-6.85 73.64-7.22 10.01-.15 20.05-1.67 29.98-1.24 21.85.95 43.66 2.53 65.44 4.23 53 4.15 103.75 16.09 154.59 28 26.82 6.28 54.23 11.41 81.79 15.12 25.07 3.37 50.57 3.38 75.39-3.26 28.45-7.61 50.3-29.33 52.96-55.83 2.82-28.13-5.45-54.63-14.79-81.18-15.14-43.06-37.69-83.71-63.76-123.13-26.9-40.66-60.2-77.99-96.2-113.82-38.54-38.36-77.82-76.28-115.1-115.41-19.82-20.8-36.09-43.75-53.97-65.73m869.8 2206.39c1.51-3.86 3.79-7.65 4.43-11.61 7.33-45.69 25.68-89.2 40.92-133.34 8.13-23.55 16.42-47.13 22.43-71.05 4.41-17.56 5.74-35.65 7.5-53.57 1.4-14.2 2.35-28.52 1.73-42.73-.77-17.42-3.42-34.79-5.19-52.18-3.69-36.24-13.86-71.5-25.55-106.5-10.24-30.66-22.68-60.83-44.64-87.59-19.96-24.32-47.67-41.36-82.49-50.88-26.02-7.11-52.92-10.5-79.97-13.88-43.45-5.42-87.08-10.52-129.89-18.33-46.53-8.49-92.16-20.06-138.27-30.01-43.8-9.45-87.51-19.33-132.69-23.92-21.17-2.15-42.37-4.24-63.63-5.74-20.25-1.42-40.62-3.14-60.88-2.73-29.45.59-58.92 1.38-88.23 5.26-23.24 3.08-45.61 7.05-65.37 17.68-20.76 11.16-32.43 26.88-37.4 46.34-5.02 19.66-2.9 39.06-.11 58.73 4.23 29.82 13.77 58.36 27.42 86.23 15.76 32.19 37.61 61.64 64.91 88.18 22.81 22.19 47.98 42.85 72.47 63.92 39.42 33.92 80.37 66.77 114.44 104.39 23.63 26.09 45.51 53.05 63.69 81.85 13.76 21.81 28.37 43.28 41.64 65.28 15.74 26.1 30.37 52.63 45.68 78.89 1.7 2.92 4.75 5.35 7.17 8.01" class="e"/><path d="M1168.35-24.29c-21.21 27.29-42.82 54.39-63.51 81.93-23.04 30.67-41.55 63.08-52.55 97.82-4.4 13.91-6.23 28.4-8.29 42.71-1.48 10.31-2.58 20.82-1.72 31.13 1.45 17.44 4.4 34.81 7.04 52.18 5.66 37.14 17.01 73.37 29.22 109.38 11.93 35.19 25.18 70.11 38.03 105.1 11.78 32.07 26.88 63.11 46.34 92.75 13.03 19.85 28.74 38.09 51.85 51.39 18.13 10.43 38.52 14.58 60.83 11.65 31.98-4.2 59.37-16.65 84.36-32.05 40.91-25.21 80.92-51.36 121.01-77.4 53.09-34.49 110.6-63.51 172.91-85.87 40.79-14.63 83.23-26.32 127.05-34.43 48.24-8.94 96.47-17.95 144.49-27.61 27.45-5.52 54.21-12.54 77.4-26.57 27.5-16.63 38.28-39.01 34.98-65.3-3.06-24.41-14.26-47.13-28.62-68.91-20.77-31.51-46.81-60.15-73.74-88.35-33.26-34.82-67.21-69.23-99.75-104.48-19.65-21.29-37.18-43.83-55.66-65.81M-40.46 1535.05c41.64 15.02 80.48 33.61 115.45 57.22 39.72 26.81 72.49 58.52 102.63 92.07 20.62 22.95 41.22 45.93 66.47 65.85 22.83 18.01 48.97 32.33 80.87 37.52 29.06 4.73 58.64 4.49 87.13-2.85 26.98-6.95 53.87-14.4 79.91-23.29 22.88-7.81 45.35-16.52 70.17-19.07 18.71-1.92 35.98 3.29 51.77 11.36 23.07 11.79 42.78 26.64 59.89 43.54 29.13 28.76 59.18 57.04 86.09 87.09 41.04 45.85 79.47 93.17 119.52 139.59 23.39 27.11 47.25 53.98 71.86 80.39 20.39 21.88 44.66 41.06 73.62 55.69 20.61 10.42 43.12 17.29 67.96 20.05 36.03 4 69.31-3.14 101.75-13.51 43.03-13.75 82.26-33.56 122.76-51.3 51.36-22.5 104.16-42.09 161.81-52.13 21.26-3.7 42.64-6.66 64.53-6.55 16.36.09 32.89-1.16 49.04.31 21.68 1.97 43.47 4.8 64.49 9.37 50.05 10.88 95.6 29.71 137.2 54.23 28.87 17.02 56.29 35.52 79.28 57.78 1.72 1.67 4.76 2.48 7.18 3.68m808.9.03c.91-.48 2.45-.84 2.64-1.47 7.38-24.37 13.31-49.08 22.21-73.1 14.33-38.67 31.26-76.72 45.81-115.34 8.89-23.6 16.81-47.55 22.55-71.74 5.36-22.58 5.76-45.82 3.76-68.76-2.04-23.4-7.7-46.52-17.09-68.82-10.35-24.56-24.88-47.49-47.23-66.63-18.68-16-41.29-27.8-67.24-34.68-28.18-7.47-56.7-14.25-85.41-20.32-44.85-9.48-88.56-21.52-131.76-34.89-48.79-15.1-97.29-31-148.19-41.16-23.74-4.74-48.11-6.84-72.63-8.45-24.52-1.61-48.22.52-71.81 4.76-25.46 4.57-47.94 13.87-64.43 30.42-11.68 11.72-18.19 25.21-19.35 40.49-2.49 32.91 12.49 61.28 33.64 88.47 17.89 23 40.22 43.06 62.85 62.97 44.79 39.39 89.17 79.01 125.47 123.89 25.44 31.46 46.68 64.64 66.35 98.55 23.32 40.21 46.88 80.33 71.01 120.24 7.29 12.05 16.78 23.26 25.26 34.85" class="e"/><path d="M1326.5-24.65c-3.64 1.57-7.42 2.96-10.88 4.74-26.94 13.85-51.5 30.23-73.42 48.69-38.83 32.69-72.73 68.32-95.74 109.94-12.5 22.6-22.55 45.73-26.16 70.33-2.4 16.37-5.2 32.84-5.17 49.26.03 17.15 3.21 34.3 5.06 51.45 3.69 34.2 12.86 67.61 23.75 100.69 11.98 36.4 25.99 72.28 48.01 105.83 12.25 18.67 27.4 35.63 49.27 47.63 20.27 11.11 42.52 14.03 67.19 8.4 37.44-8.54 67.98-26.17 97.98-44.54 58.54-35.85 114.93-74.01 177.41-105.59 40.76-20.6 82.48-39.99 123.47-60.31 32.42-16.07 64.26-32.94 86.31-58.67 13.95-16.27 22.4-34.42 20.71-54.28-1.53-17.94-8.05-35.12-17.84-51.48-20.45-34.16-48.25-64.31-78.07-93.55-27.94-27.4-57.29-53.74-89.34-78.06-24.41-18.52-49.97-36.07-78.95-50.1m1241.53-.02c26.24 34.45 60.52 63.26 98.08 89.92 34.91 24.79 70.07 49.42 103.45 75.49 37.05 28.94 66.53 62.78 93.04 98.3 22.1 29.62 41.44 60.39 57.73 92.18 17.57 34.3 32.04 69.63 39.27 106.42 4.49 22.84 7.84 45.84 10.92 68.83 1.99 14.91 2.53 29.94 3.79 44.91 1.78 21.02 3.12 42.06 5.57 63.03 3.09 26.49 7.3 52.95 18.19 78.23 15.79 36.68 45.23 64.68 89.06 81.7 30.83 11.98 62.73 22.26 94.43 32.75 43.56 14.41 84.1 32.54 120.05 57.21 36.17 24.83 64.59 54.66 91.82 85.53 24.72 28.03 47.85 57.1 78.91 81.25 23.58 18.33 51.4 30.78 83.72 35.12 15.91 2.14 32.73 1.21 48.98.15 18.28-1.2 36.38-4.12 54.56-6.3" class="e"/><path d="M2890.69-23.57c14.54 11.35 28.5 23.23 43.75 33.95 31.1 21.86 63.82 42.31 94.16 64.81 34.31 25.45 59.73 56.73 82.76 89 17.62 24.69 34.29 49.85 50 75.34 25.33 41.07 49.2 82.71 65.57 126.75 8.92 23.99 16.62 48.21 20.05 73.17 2.99 21.74 6.2 43.46 9.03 65.22 2.07 15.92 3.4 31.9 5.56 47.81 3.92 28.89 8.48 57.81 20.11 85.46 15.25 36.26 43.2 65.35 83.56 86.12 23.25 11.96 47.63 22.54 71.7 33.45 46.95 21.29 92.98 43.42 132.87 73.05 28.92 21.48 53.75 45.64 78.95 69.68 20.8 19.84 41.25 40.02 63.82 58.53 27.02 22.17 59.46 38.09 97.88 45.14 24.24 4.45 48.82 5.76 73.62 5.07" class="e"/><path d="M3366.03-24.29c-22.42 14.25-44.94 28.4-67.23 42.78-22.57 14.56-46.21 28.17-61.99 48.44-11.01 14.16-16.16 29.49-16.98 45.73-1.72 33.87 9.47 65.78 24.34 97.11 17.84 37.6 35.64 75.22 52.62 113.06 10.82 24.1 17.84 49.06 21.01 74.59 2.67 21.48 5.04 42.98 7.27 64.49 1.48 14.23 1.99 28.54 3.78 42.74 4.12 32.62 8.28 65.33 22.75 96.34 10.21 21.87 25.15 41.56 45.24 58.79 25.52 21.88 55.9 38.8 86.32 55.85 31.03 17.38 61.82 35.1 91.74 53.67 28.33 17.57 53.47 37.92 76.65 59.89 19.88 18.84 41.58 36.46 61.51 55.27 20.66 19.5 44.42 36.13 71.21 49.69 24.56 12.44 51.42 21.17 80.72 24.14 6.08.61 12.12 1.43 18.18 2.16M-40.46 1501.72c57.85 19.68 112.81 43.6 160.54 76.39 26.37 18.11 50.06 38.83 73.77 59.24 26.07 22.45 49.14 47.2 79.33 66.45 21.94 13.99 46.58 24.14 75.35 23.74 23.31-.32 44.2-7.04 61.94-19.92 15.44-11.21 25.78-24.43 29.82-40.69 4.21-16.96 1.87-33.75-4.68-49.95-9.94-24.57-20.56-48.97-31.75-73.2-17.53-37.95-32.51-76.45-43.66-115.94-9.6-34-16.67-68.53-31.66-101.47-8.92-19.61-20.13-38.36-38.35-53.49-21.98-18.24-48.82-30.05-80.73-33.4-12.66-1.33-25.42-2.6-38.17-2.84-31.1-.57-61.6 4.01-90.75 11.8-39.34 10.51-77.7 23.32-116.44 35.24-1.46.45-2.46 1.87-3.67 2.83" class="e"/><path d="M3458.74-24.29c-18.18 22.22-36.14 44.56-54.59 66.63-20.55 24.58-41.48 48.9-52.76 77.54-8.07 20.48-9.41 41.06-6.53 62.36 3.85 28.46 15.57 55.26 24.97 82.55 7.59 22.03 14.54 44.06 19.16 66.67 7.04 34.45 4.74 69.07 5.17 103.65.24 19.32-.93 38.68.25 57.96 2.27 37.21 8.52 73.81 31.54 107.27 15.51 22.54 35.6 42.1 60.12 58.59 40.61 27.32 81.97 53.94 122.54 81.31 32.18 21.71 60.06 46.81 87.5 72.27 20.67 19.18 42.16 37.86 64.54 55.77 28.12 22.51 61.13 39.48 98.93 50.06 7.95 2.22 16.33 3.46 24.51 5.15M-39.55 1025.65c9.69-5.07 19.03-10.67 29.15-15.13 41.05-18.09 81.85-36.61 123.69-53.48 37.29-15.03 77.12-25.25 117.03-35.18 36.66-9.12 73.8-17.78 108.84-30.06 35.23-12.35 64.61-31.89 81.16-61.08 8.1-14.29 13.64-29.13 14.57-44.92.59-9.9 2.67-19.92 1.5-29.69-2.27-18.92-5.32-37.86-9.9-56.51-10.29-41.87-26.91-82.3-47.26-121.7-7.2-13.95-15.04-28.07-25.7-40.4-12.23-14.15-27.82-19.23-48.54-8.83-23.1 11.6-45.83 23.71-68.18 36.2-31.23 17.46-63.28 33.65-100.09 42.57-20.34 4.93-41.37 8.45-62.65 7.12-26.33-1.64-52.41-5.25-76.35-15.03-12.54-5.12-24.86-10.59-37.29-15.91m.02 979.69c12.72 6.28 25.85 12.1 38.08 18.95 17.35 9.71 34.58 19.65 50.89 30.43 41.87 27.69 72.09 63.25 102.88 98.4 19.64 22.42 38.89 45.13 60.2 66.53 23.67 23.76 52.85 42.77 89.81 52.09 14.83 3.74 30.7 5.69 46.27 6.57 40.27 2.27 79.21-4.87 118.18-11.96 28.65-5.22 57.46-10.43 87.21-9.54 31.16.93 59.59 8.81 85.39 22.49 32.32 17.14 59.04 39.09 84.76 62.13 37.9 33.95 70.01 71.23 101.5 108.88 28.06 33.55 55.09 67.65 82.86 101.36 19.83 24.07 42.1 46.62 68.21 66.61 3.26 2.5 7.78 3.94 11.72 5.87" class="e"/><path d="M3550.53-25.02c-12.42 32.37-25.88 64.51-36.82 97.19-5.31 15.87-6.75 32.7-8.36 49.19-1.31 13.44-1.72 27.16.08 40.53 2.56 18.96 7.58 37.7 11.45 56.55 4.01 19.56 7.52 39.18 11.93 58.68 4.63 20.45 4.09 41.06 3.24 61.6-.57 13.57-3.57 27.11-6.15 40.57-4.23 22.02-8.92 43.98-13.57 65.95-3.91 18.48-6.3 37.07-5.35 55.8 1.55 30.58 11.29 59.51 31.91 85.42 23.1 29.04 53.39 53.12 85.02 76.38 21.85 16.07 42.14 33.6 61.87 51.36 24.37 21.94 47.27 44.91 71.13 67.22 14.2 13.28 28.22 26.77 43.75 39.02 24.38 19.23 51.43 35.79 83.43 46.52m0 473.9c-54.89 2.59-104.15 15.66-144.66 46.98-31.37 24.26-51.6 53.68-67.1 85.63-15.36 31.65-24.71 64.6-32.71 97.82-5 20.75-10.14 41.48-14.45 62.33-4.18 20.22-7.09 40.6-11.1 60.84-4.51 22.75-9.1 45.5-14.61 68.1-5.38 22.08-11.14 44.15-18.21 65.92-13.26 40.81-30.32 80.65-50.61 119.63-14.49 27.84-29.35 55.63-41.35 84.17-6.24 14.84-9.37 31.29-9.01 46.94.53 23.03 9.62 45.04 25.91 64.39 9.83 11.68 21.48 22.41 32.64 33.36 2.24 2.2 5.95 3.46 8.98 5.15M-39.55 1585.05c4.85 2.66 9.55 5.51 14.57 7.94 49.29 23.88 90 55.06 122.55 92.85 24.88 28.88 47.99 58.72 73.08 87.47 14.13 16.19 29.58 31.84 46.37 46.32 23.95 20.65 53.71 35.07 87.99 41.95 24.84 4.98 50.35 7.29 76.29 4.02 24.11-3.03 48.48-4.76 72.67-7.44 18.84-2.09 37.49-6.01 56.38-6.91 32.99-1.56 65.84-.71 97.29 9.75 30.75 10.23 56.74 25.64 80.87 43.56 55.2 41.02 96.86 90.37 137.25 140.58 33.53 41.67 64.59 84.65 102.75 123.87 4.69 4.82 10.8 8.76 16.26 13.11" class="e"/><path d="M-40.46 1614.76c15.75 9.18 32.28 17.63 47.12 27.67 44.04 29.78 74.35 68.17 103.86 107.06 19.45 25.63 38.86 51.34 60.17 75.97 21.29 24.61 48.42 45.14 81.66 59.35 22.96 9.81 48.04 15.63 74.38 16.87 12.72.6 25.5 1.77 38.16 1.28 16.71-.66 33.34-2.7 50-4.15 16.66-1.45 33.31-3 49.99-4.32 19.68-1.56 39.37-4.03 59.08-4.16 49.06-.31 93.32 11.67 132.74 35.24 41.5 24.81 74.39 55.88 104.54 89.14 38.78 42.77 71.28 88.69 106.33 133.34 8.11 10.33 16.86 20.34 25.46 30.43 1.04 1.22 2.97 1.97 4.48 2.93m-937.97-710.13c44.84 18.12 90.11 35.59 134.37 54.56 33.27 14.26 64.34 31.51 93.76 50.51 18.75 12.11 37.35 24.38 56.41 36.16 14.67 9.07 29.79 18.15 48.16 21.61 19.61 3.69 35.21.31 44.56-19.34 6.11-12.86 4.9-26.33 3.05-39.11-3.74-25.76-10.3-51.27-15.89-76.85-3.44-15.73-7.09-31.43-10.9-47.1-5.94-24.41-11.3-48.94-18.36-73.15-7.76-26.63-19.86-52.02-42.58-73.18-18.71-17.43-42.46-28.4-70.83-32.63-36.44-5.43-72.02-1.18-107.24 6.49-37.62 8.2-73.29 20.32-108.12 34.11-2.06.82-3.67 2.36-5.48 3.57m3923.64 89.14c-29.65 5.85-55.73 17.46-79.96 31.91-38.77 23.11-65.11 53.9-85.48 88.37-14.2 24.03-25.57 48.92-33.44 74.68-9.78 31.99-19.15 64.09-27.2 96.38-7.73 30.99-13.09 62.35-20.36 93.42-7.59 32.45-15.94 64.8-24.48 97.1-10.29 38.94-22.51 77.59-31.31 116.73-7.46 33.19-7.24 66.74 10.63 98.43 9.92 17.59 24.03 33.01 42.54 45.73 20.39 14 43.12 24.58 69.13 30.34 6.5 1.44 13.31 2 19.97 2.97" class="e"/><path d="M-39.55 1641.57c8.79 6.52 17.05 13.57 26.46 19.46 19.95 12.48 34.77 28.52 49.77 44.37 28.04 29.62 49.35 62.55 71.93 94.85 20.46 29.26 41.96 58.12 71.08 82.46 31.97 26.71 70.43 45.14 117.06 50.78 13.51 1.63 27.24 2.73 40.88 2.84 19.99.16 40.05-.22 59.97-1.46 17.65-1.1 35.09-4.45 52.75-5.45 28.42-1.61 57.09-4.04 85.39-2.63 46.29 2.3 87.38 16.84 123.7 40.08 46.69 29.88 82.03 67.35 113.43 107.36 26.67 33.99 52.21 68.55 78.37 102.79 1.52 1.98 4.16 3.42 6.28 5.11" class="e"/><path d="M-39.55 1673.45c3.64 2.9 7.27 5.8 10.91 8.7 27.32 21.82 50.2 46.36 68.98 73.23 25.54 36.54 49.48 73.81 75.8 109.97 24.41 33.53 55.66 62.46 98.78 82.03 25.2 11.44 52.03 18.71 80.91 20.97 13.62 1.06 27.31 3.01 40.89 2.67 20.94-.52 41.82-2.6 62.72-4.12 18.79-1.37 37.55-3.05 56.36-4.28 18.15-1.19 36.38-3.07 54.52-2.74 51.68.92 98.25 13.94 139.1 39.62 45.95 28.89 79.2 66.21 109.79 105.18 19.01 24.22 36.47 49.21 54.78 73.79 1.14 1.53 3.55 2.46 5.37 3.66" class="e"/><path d="M-39.55 1708.23c8.79 9.42 17.65 18.8 26.34 28.27 22.75 24.78 39.71 52.11 56.61 79.6 25.49 41.45 48.71 84.02 86.93 119.71 33.08 30.89 73.29 52.82 122.82 62.85 31.83 6.44 64.6 7.34 97.19 5.7 24.93-1.25 49.68-4.8 74.55-6.96 32.01-2.79 64.28-4.8 96.3-2.66 47.96 3.21 89.95 18.4 126.49 43.8 45.64 31.73 77.55 71.57 108.07 112.41 7.66 10.25 15.72 20.3 23.6 30.45m3104.74-705.77c-20.63 7.96-38.51 19.09-55.38 31.21-41.89 30.1-68.81 68.19-88.92 109.43-19.4 39.79-32.49 81.1-42.06 123.11-4.63 20.32-10.14 40.52-14.36 60.89-3.73 18.02-6.22 36.21-9.23 54.33-3.05 18.35-6.18 36.7-9.03 55.08-1 6.48-1.57 13.03-1.83 19.56-.76 19.32-2.76 38.7-1.56 57.95 2.37 38.04 13.24 74.12 48.86 102.1 25.24 19.83 56.6 30.88 90.8 36.99 25.73 4.6 51.63 8.5 78.15 8.77 1.22.01 2.42.45 3.64.7" class="e"/><path d="M-39.55 1763.3c11.51 17.63 23.71 35.01 34.36 52.96 12.29 20.72 23.25 41.94 34.71 62.98 24.59 45.14 52.88 88.4 100.05 121.67 21.45 15.13 45.51 27.08 72.64 34.85 23.54 6.74 47.59 10.9 72.68 12.6 28.41 1.92 56.42.99 84.57-1.68 18.44-1.75 37.05-2.44 55.41-4.53 26.87-3.06 53.79-4.92 80.91-4.19 46.67 1.26 88.71 12.84 125.44 36.18 38.91 24.72 67.02 56.46 92.85 89.79 4.87 6.28 7.14 14.22 16.2 18.19M-39.55 985.08c2.42-1.69 4.62-3.66 7.3-5.03 42.97-22.04 85.89-44.15 129.07-65.93 34.14-17.22 71.47-29.13 109.01-40.66 26.14-8.03 52.62-15.54 78.04-24.84 26.09-9.55 48.66-23.44 62.67-44.04 11.6-17.05 15.89-35.25 12.39-55.04-2.87-16.23-8.34-31.24-19.53-44.86-13.62-16.58-31.48-27.57-57.16-30.74-20.3-2.51-39.1 1.88-58.17 4.86-23.26 3.64-45.91 9.75-69.19 13.31-22.38 3.42-44.95 4.79-68.16 2.74-38.37-3.39-73.54-13.89-108.05-26.53-6.5-2.38-12.18-6.17-18.24-9.31" class="e"/><path d="M-39.55 1850.25c3.94 9.18 7.65 18.42 11.86 27.52 9.86 21.3 19.48 42.67 30.05 63.75 20.86 41.6 49.96 78.98 92.71 108.63 35.02 24.28 76.12 38.75 121.65 45.87 28.96 4.53 58.15 5.17 87.27 3.94 24.93-1.05 49.69-4.64 74.55-6.93 17.55-1.62 35.13-2.98 52.71-4.36 13.32-1.05 26.64-2.36 40-2.77 9.05-.27 18.28.27 27.24 1.42 19.86 2.55 39.52 5.3 58.33 11.96 22.51 7.97 41.97 19.05 59.78 32.19 18.29 13.49 33.17 29.32 47.39 45.56 1.69 1.93 4.18 3.41 6.3 5.1M-39.55 353.23c17.14 23.36 25.5 50.3 45.68 72.32 7.64 8.33 16.93 16.18 27.24 22.38 22.11 13.32 46.58 10.81 67.12-3.33 24.36-16.77 37.76-39.22 50.58-61.75 13.57-23.85 26.46-47.96 43.99-70.14 32.61-41.27 65.96-82.17 98.94-123.25 47.89-59.65 95.63-119.37 143.71-178.92 9.64-11.93 20.51-23.24 30.81-34.83m3414.67 1562.96c-31.94 17.66-56.1 40.89-77.47 66.55-23.09 27.71-38.66 58.04-51.3 89.32-11.55 28.56-20.58 57.76-25.74 87.6-3.63 21.01-7.63 41.99-10.77 63.05-1.93 12.97-2.77 26.06-3.71 39.12-.89 12.31-2.33 24.67-1.67 36.94 1.68 31.05 6.05 61.89 22.64 90.53 11.68 20.15 29.06 36.76 51.59 50.14 29.17 17.33 62.69 25.88 97.34 32.51" class="e"/><path d="M-39.55 1982.13c2.73 6.76 4.55 13.87 8.33 20.23 19.74 33.18 43.03 64.59 77.18 89.84 37.2 27.51 80.86 45.21 130.8 52.99 24.93 3.88 50.13 6.1 75.44 5.56 20.64-.44 41.28-2.21 61.79-4.26 29.46-2.93 58.78-6.75 88.18-10 27.44-3.04 55.15-4.32 82.68-2.69 36.59 2.17 69.2 13.24 97.3 32.35 8.03 5.46 16.34 10.65 24.52 15.96M3635.97-25.02c-1.82 8.7-4 17.35-5.38 26.09-3.68 23.33-4.04 46.79-3.79 70.28.26 24.95 6.18 49.12 13.63 73.2 9.84 31.78 25.35 61.93 41.18 91.94 12.66 24 26.31 47.71 41.03 70.95 7.21 11.38 16.83 22.08 27.17 31.86 16.91 15.98 39.5 19.34 63.28 12.23 23.84-7.12 46.77-16.18 70.1-24.4M1255.61 2182.12c13.94-6.04 28.15-11.71 41.76-18.19 36.15-17.2 72.67-33.82 111.88-46.24 30.2-9.57 61.14-16.76 93.52-20.69 25.54-3.1 51.12-3.77 76.37-2.18 53.74 3.37 103.83 17.19 149.95 39.54 24.47 11.86 47.56 25.28 68.31 41.16 3.57 2.73 8.39 4.43 12.63 6.6m2073.16-539.11c-34.36 27.17-58.18 59.48-74.67 95.61-10.98 24.07-18 48.86-23.27 73.98-2.5 11.91-2.68 24.12-3.84 36.2-.68 7-2.18 14.05-1.66 21 1.87 24.97 3.91 50.03 14.45 73.9 15.29 34.62 41.76 62.26 81.72 81.18 2.46 1.16 4.85 2.41 7.28 3.62M-40.46 200.33c18.18 1.45 36.32 3.3 54.54 4.21 13.58.68 27.26.07 40.89.14 52.16.29 96.7-15.46 136.31-41.34 56.85-37.14 98.27-84.08 133.55-134.79 12.29-17.66 23.71-35.71 35.52-53.59" class="e"/><path d="M1317.41 2182.12c12.12-5.07 24.36-9.96 36.33-15.25 44.09-19.48 90.02-35.47 140.06-41.65 24.15-2.98 49.17-4.14 73.52-2.83 42.22 2.27 82.88 10.99 119.92 27.97 18.99 8.71 37.03 18.75 55.56 28.1 2.85 1.44 6.03 2.45 9.06 3.66M3884.09 564.08c-24.84-8.94-49.6-18.03-74.57-26.73-9.11-3.17-18.55-5.99-28.18-7.89-10.22-2.02-25.28 8.15-29.15 17.92-3.25 8.21-.71 16.1 1.16 23.92 6.68 27.87 19.42 54.31 32.93 80.34 12.94 24.92 27.9 49.25 43.53 73.2 13.87 21.25 32.23 40.21 53.37 57.35M-40.46 138.02c18.78-1.45 37.62-2.55 56.34-4.44 19.76-1.99 39.59-4.01 59.05-7.3 44.3-7.5 82.94-23.98 116.42-48.36 38.64-28.16 67.25-62.01 89.94-99.31.59-.97 1.21-1.93 1.82-2.9m3425.57-.73V6.86c-.03 34.15 9.02 66.96 24.73 98.49 14.36 28.82 35.71 54.19 65.32 74.63 20.94 14.46 45.46 23.38 72.65 27.57 4.2.65 8.48.99 12.72 1.47" class="e"/><path d="M1406.48 2182.12c14.54-3.86 28.85-8.48 43.68-11.41 19.76-3.89 39.84-6.94 59.96-9.43 11.93-1.47 24.23-1.81 36.32-1.5 34.55.88 67.59 7.24 99.1 18.66 4.34 1.57 9.06 2.47 13.6 3.67M-40.46 84.4c24.84-5.31 49.85-10.19 74.49-16.04 44.95-10.66 86.26-26.73 120.04-53.5 15.37-12.18 30.3-24.6 40.86-39.88M3883.19 1132.9c-10.91 7.25-21.36 14.99-32.84 21.61-13.55 7.81-23.31 18.22-31.37 29.26-11.85 16.23-9.54 31.48 6.94 45.51 16.19 13.77 36.68 22.01 58.18 28.98M-39.55 31.5c9.69-3.86 19.21-8.06 29.12-11.53C21.74 8.72 51.63-5.34 77.76-24.24c.74-.54 2.36-.29 3.58-.41m658.93 706.84c3.33 10.87 6.23 21.84 10.12 32.58 3.97 10.95 9.74 21.45 20.03 29.61 4.86 3.86 10.87 7.89 17.22 9.21 10.64 2.21 17.78-4.28 22.28-10.68 4.27-6.07 7.1-13.24 8.28-20.17 4.73-27.88-.25-54.6-16.98-79.71-5.32-7.98-12.55-14.44-22.9-17.86-4.13-1.37-10.21-1.41-14.31 0-13.15 4.5-20.34 13.28-21.77 24.43-1.36 10.57-1.37 21.24-1.98 31.87M-15.92 1398.1c6.67 17.68 23.8 28.04 41.83 37.65 31.07 16.56 64.9 28.54 100.95 36 14.29 2.96 28.88 4.96 44.54 2.82 22.3-3.05 38.56-20.29 41.66-38.08 4.13-23.75-1.06-46.18-15.32-67.41-14.77-21.99-37.11-35.35-68.25-38.29-52.66-4.97-96.74 9.56-133.48 39.14-9.13 7.35-13.38 16.8-11.93 27.44m3139.28 286.22c1.21 6.04 2.34 12.09 3.65 18.11 3.59 16.43 5.44 33.28 11.34 49.17 7.52 20.25 17.04 40.19 28.05 59.4 13.3 23.21 32.32 43.72 57.06 60.14 24.49 16.25 52.83 25.62 85.29 23.91 25.56-1.35 49.23-8.22 69.9-20.26 36.32-21.14 62.22-48.71 80.41-81.66 16.5-29.89 28.06-60.61 33.18-92.88 3.05-19.26 5.14-38.62 7.31-57.96 1.05-9.39 2.25-18.87 1.69-28.25-1.15-19.35-3.2-38.67-5.31-57.97-3.09-28.38-10.81-55.96-23.58-82.61-12.55-26.19-29.49-49.98-57.21-68.16-26.17-17.16-55.48-22.9-88.18-15.82-29.33 6.35-54.24 19.24-77.3 34.68-38.88 26.03-68.17 57.89-89.88 94.25-15.26 25.55-24.96 52.47-31.19 80.37-6.29 28.17-5.03 56.48-5.24 84.81" class="e"/><path d="M3177.89 1672c1.21 7.49 2.65 14.96 3.59 22.47 2.32 18.6 8.57 36.4 17.4 53.59 10.44 20.33 24.59 38.77 45.33 53.67 17.91 12.87 38.87 20.77 62.75 21.43 22.06.61 42.25-5.79 59.95-16.42 30.02-18.02 48.53-42.55 60.83-70.28 9.35-21.08 16.13-42.71 17.3-65.19.89-17.14 2.74-34.36 1.54-51.43-1.98-28.3-8.88-56.06-24.36-81.84-13.68-22.77-33.3-41.84-63.59-51.26-21.22-6.6-43.45-5.31-64.37 2.01-46.37 16.23-74.8 45.95-94.51 81.82-10.42 18.96-16.57 39-19.76 59.43-2.13 13.62-1.5 27.51-2.11 41.27" class="e"/><path d="M3232.43 1676.35c1.82 7 3.37 14.06 5.5 21 5.99 19.48 17.79 36.46 37.34 49.16 22.95 14.91 52.81 13.69 75.41-1.96 22.46-15.54 33.58-35.84 39.62-58.11 3.33-12.3 5.96-25.14 5.29-37.62-1.36-25.38-7.03-50.16-27.7-71.06-12.85-12.99-28.65-21.27-50.04-20.93-13.6.22-26.11 4.24-36.19 10.98-28.1 18.78-43.86 43.19-47.3 72.31-1.39 11.78-1.34 23.66-1.95 35.5M349.45 364.82c1.82 7.25 3.58 14.5 5.47 21.74 1.66 6.36 5.82 11.61 11.81 15.94 8.85 6.4 16.62 8.63 31.03 3.13 17.1-6.53 31.6-15.72 45.16-25.72 43.43-32.01 85.82-64.92 129.33-96.86 34.53-25.35 66.26-52.65 95.31-81.98 15.08-15.22 26.27-32.14 28.57-51.49.98-8.22-2.23-17.34-6.18-25.21-6.44-12.83-17.04-23.89-29.71-33.4-16.48-12.37-35.12-22.04-57.22-26.83-32.58-7.07-61.06.79-87.21 15.95-24.64 14.29-43.95 32.63-61.93 52.08-24.99 27.01-45.43 56.15-63.29 86.37-15.85 26.82-28.48 54.75-35.56 83.98-4.92 20.3-6.7 40.88-5.57 61.57m968.86 1129.66c9.94 19.11 24.66 20.52 45.4 17.2 36.97-5.91 71.84-17.39 107.36-27.2 34.85-9.62 70.13-18.27 105.39-26.89 42.61-10.42 85.72-19.6 128.02-30.77 27.19-7.18 50.19-20.21 62.63-41.83 8.01-13.91 9.4-29.02 6.43-44.12-2.11-10.7-4.38-21.5-8.24-31.85-10.67-28.59-26.5-55.18-50.66-78.34-13.08-12.54-27.64-23.07-46.26-30.64-27.69-11.25-54.99-10.41-82.84-1.89-28.59 8.75-52.36 23.34-74.56 39.8-55.05 40.8-97.24 89.55-135.15 140.71-20.13 27.17-38.74 55.14-51.26 85.35-4.03 9.73-7.24 19.41-6.26 29.74M1209.25 321.34c1.21 6.76 2.59 13.51 3.61 20.29 3.66 24.34 11.7 47.69 23.56 70.32 7.85 14.97 17.97 28.63 32.85 39.79 13.98 10.49 30.86 15.73 49.95 15.11 16.1-.53 31.49-4.78 45.3-10.94 25.61-11.43 49.33-25.23 71.03-41.1 22.75-16.64 46.3-32.66 67.94-50.17 23.36-18.9 44.62-39.43 59.25-63.61 20.14-33.29 18.04-66.26-5.61-97.7-20.01-26.6-48.51-46.53-82.43-61.79-19.48-8.76-40.22-14.85-61.93-17.75-29.78-3.98-59.11-1.52-87.23 8.37-48.25 16.97-78.94 46.65-98.09 84.85-9.1 18.14-15.1 36.94-16.32 56.51-.97 15.69-1.29 31.4-1.89 47.1" class="e"/></g></g></svg>