<?xml version="1.0" encoding="utf-8"?>
<!-- Generator: Adobe Illustrator 26.0.2, SVG Export Plug-In . SVG Version: 6.00 Build 0)  -->
<svg version="1.1" id="Слой_1" xmlns="http://www.w3.org/2000/svg" xmlns:xlink="http://www.w3.org/1999/xlink" x="0px" y="0px"
	 viewBox="0 0 588.5 116.2" style="enable-background:new 0 0 588.5 116.2;" xml:space="preserve">
<style type="text/css">
	.st0{fill:#FFFFFF;}
</style>
<path class="st0" d="M232.1,84.2c-12.4,7-31.2,5.4-32.3-13.9c-0.8-13.6,5.3-29.8,19.4-29.8c5.9,0,11.2,2.9,13.1,9.6
	c1.5,5.5,0.3,8.4-4,11.4c-6.6,4.6-14.1,7.7-21.4,10.6c3.6,11.6,15,12.2,24.4,6.9C235.4,76.8,235.3,82.5,232.1,84.2z M206,67
	c3.8-1.5,7.6-3.1,11.3-4.9c3.1-1.3,6-2.9,8.7-4.8c2.6-2-0.8-7.8-3.2-9.3C211.4,40.9,205.3,56.2,206,67z"/>
<path class="st0" d="M218.1,88.3c-3.4,0.1-6.7-0.7-9.8-2.3c-5.3-2.9-8.3-8.3-8.7-15.6c-0.6-9.8,2.3-19.3,7.5-24.8
	c3.1-3.4,7.5-5.3,12.1-5.3l0,0c6.8,0,11.6,3.6,13.3,9.8c1.5,5.4,0.4,8.6-4.1,11.6c-6.8,4.7-14.5,7.9-21.2,10.5
	c1.4,4.3,4,7.3,7.6,8.8c4.6,1.8,10.7,1,16.4-2.2c1.4-0.8,2.2-0.6,2.6-0.3c0.6,0.4,0.9,1.1,0.8,1.9c-0.1,1.7-1,3.2-2.4,4.1l0,0
	C227.9,86.9,223,88.2,218.1,88.3z M219.2,40.8c-4.5-0.1-8.7,1.8-11.7,5.1c-5.1,5.4-7.9,14.7-7.4,24.4c0.4,7.1,3.3,12.4,8.5,15.2
	c6.3,3.4,15.7,2.8,23.4-1.5l0,0c1.3-0.8,2.1-2.2,2.2-3.7c0.1-0.5-0.2-1.1-0.6-1.4c-0.5-0.3-1.2-0.2-2.1,0.3
	c-5.9,3.3-12,4.1-16.8,2.2c-3.8-1.5-6.6-4.7-8-9.3l-0.1-0.2l0.2-0.1c6.8-2.7,14.6-5.9,21.4-10.6c4.3-3,5.3-5.9,3.9-11.1
	C230.4,44.3,225.7,40.8,219.2,40.8L219.2,40.8z M205.8,67.4V67c-0.5-7.3,2.2-16.8,7.5-20c2.9-1.7,6.1-1.5,9.6,0.7
	c1.9,1.2,4.2,4.6,4.3,7.2c0.1,1-0.3,1.9-1.1,2.5c-2.5,1.7-5.1,3.2-7.9,4.5l-0.8,0.4c-3.3,1.6-7,3.2-11.3,4.9L205.8,67.4z
	 M217.2,46.4c-1.3,0-2.6,0.4-3.7,1c-5.1,3-7.7,12-7.3,19.2c4.1-1.7,7.7-3.2,10.9-4.8l0.8-0.4c2.8-1.2,5.4-2.7,7.9-4.4
	c0.6-0.5,0.9-1.3,0.9-2.1c-0.1-2.4-2.3-5.7-4.1-6.8C221,47.1,219.1,46.5,217.2,46.4z"/>
<path class="st0" d="M280.1,88l-6.5-0.1c-0.9,0-1.7-0.6-1.9-1.5c-1.5-6.5-3.1-13-4.9-19.4c-1.2-4.4-2.7-13.1-6-17.8
	c-4.5,12.4-8.6,25.3-14.6,36.7c-1.4,2.7-7.7,3.7-5.7-0.2c6.5-12.3,10.7-26.4,15.7-39.6c-0.9-0.1-1.8,0.1-2.7,0.4
	c-4.2,1.6-4.2-3.8-0.7-5.1c8.9-3.4,13.3,1.3,16.4,10.6c3.2,9.9,6,19.9,8.2,30.1l5,0.1C286.5,82.3,282.9,88,280.1,88z"/>
<path class="st0" d="M241.9,88.6c-0.7,0.1-1.3-0.2-1.7-0.7c-0.3-0.7-0.2-1.5,0.2-2.2c4.8-9,8.3-19,11.8-28.8c1.2-3.5,2.5-7,3.8-10.5
	c-0.8,0-1.6,0.1-2.3,0.4c-1.5,0.6-2.4,0.2-2.8-0.1c-0.6-0.6-0.9-1.5-0.7-2.3c0.3-1.4,1.2-2.6,2.6-3.1c3.7-1.4,6.7-1.5,9.2-0.3
	c3.1,1.5,5.5,5,7.6,11c3.2,9.8,6,19.8,8.2,29.9l4.8,0.1c0.7-0.1,1.4,0.3,1.9,0.9c0.3,0.9,0.2,1.9-0.4,2.7c-0.8,1.3-2.4,2.7-3.8,2.7
	l0,0l-6.5-0.1c-1,0-1.9-0.7-2.1-1.7c-1.4-6.4-3.1-12.9-4.9-19.4c-0.3-1-0.6-2.2-0.9-3.6c-1-4.3-2.4-10.1-4.8-13.7
	c-0.9,2.5-1.8,5-2.6,7.4c-3.5,9.7-7,19.8-11.8,28.9c-1,1.5-2.7,2.4-4.5,2.5L241.9,88.6z M255.7,46c0.2,0,0.4,0,0.6,0h0.3l-0.1,0.3
	c-1.4,3.6-2.7,7.3-3.9,10.8c-3.4,9.7-7,19.8-11.8,28.8c-0.4,0.7-0.5,1.3-0.2,1.7c0.4,0.4,0.9,0.6,1.4,0.5c1.6-0.1,3.1-0.9,4.1-2.2
	c4.8-9,8.3-19.1,11.8-28.8c0.9-2.6,1.9-5.3,2.8-7.9l0.2-0.4l0.3,0.4c2.6,3.7,4,9.8,5.1,14.3c0.3,1.3,0.6,2.6,0.9,3.6
	c1.8,6.5,3.5,13,4.9,19.4c0.1,0.8,0.8,1.4,1.6,1.3l6.5,0.1l0,0c1.2,0,2.6-1.2,3.3-2.4c0.5-0.6,0.6-1.5,0.4-2.2
	c-0.3-0.4-0.9-0.7-1.4-0.6l-5.2-0.1l0-0.2c-2.2-10.2-5-20.2-8.2-30.1c-2-5.9-4.3-9.3-7.3-10.8c-2.4-1.1-5.3-1-8.8,0.3
	c-1.2,0.4-2.1,1.5-2.3,2.7c-0.2,0.7,0,1.4,0.5,1.8c0.7,0.4,1.6,0.5,2.3,0.1C254.2,46,255,45.9,255.7,46L255.7,46z"/>
<path class="st0" d="M325.7,55.8c1.5,10.4-1.5,23-9.8,29c-9.8,7-22.2,3.2-25.9-9.6s-0.3-29.5,12.3-34.1c0.1,0,0.3-0.1,0.4-0.1
	c0.1-0.1,0.2-0.1,0.4-0.2c0.3-0.1,0.7-0.1,1-0.2v-0.9c0-1.8,1.1-3.4,2.8-4.1c1-0.4,3.5-0.7,3.5,1.2v3.3
	C318.1,40.9,324.3,46.1,325.7,55.8z M310.6,46.8v2.9c0,1.8-1.1,3.4-2.8,4.1c-1,0.4-3.6,0.7-3.6-1.2v-6.2c-0.5,0.1-1,0.1-1.5,0.3
	c-9,3.8-9.5,19.6-5.5,28c3.6,7.6,13.2,11.5,18.5,3.3C322.5,67.5,320.6,50.4,310.6,46.8z"/>
<path class="st0" d="M305.7,88.6c-1.7,0-3.4-0.3-5-0.8c-5.2-1.8-9-6.2-10.8-12.4c-3.8-13.3-0.1-29.8,12.5-34.4
	c0.1,0,0.2-0.1,0.3-0.1c0,0,0.1,0,0.1,0h0.1c0.1-0.1,0.2-0.1,0.3-0.1c0.2,0,0.4-0.1,0.6-0.1h0.2v-0.7c0-1.9,1.2-3.6,2.9-4.3
	c1-0.5,2.2-0.5,3.2,0c0.5,0.3,0.7,0.9,0.7,1.4v3c8.1,0.8,13.8,6.8,15.1,15.8l0,0c1.4,9.6-1.1,22.9-9.9,29.2
	C313.1,87.3,309.4,88.5,305.7,88.6z M308.6,35.6c-0.5,0-1,0.1-1.5,0.3c-1.6,0.6-2.6,2.2-2.6,3.8v1.1l-0.2,0l-0.5,0.1
	c-0.2,0-0.3,0.1-0.5,0.1l-0.2,0.1l-0.2,0.1h-0.2c-0.1,0-0.1,0-0.2,0c-12.3,4.5-15.9,20.8-12.2,33.8c1.7,6,5.4,10.3,10.5,12.1
	c4.9,1.7,10.3,0.7,15-2.6c8.6-6.2,11-19.3,9.7-28.7c-1.3-8.9-6.9-14.6-14.9-15.4h-0.2v-3.5c0-0.4-0.2-0.8-0.5-1
	C309.5,35.7,309,35.6,308.6,35.6z M308.2,82.7c-0.2,0-0.4,0-0.5,0c-4.2-0.3-8.5-3.5-10.6-8c-2.9-6.6-3.2-14-0.9-20.8
	c1.4-3.7,3.7-6.2,6.6-7.5c0.4-0.1,0.9-0.2,1.3-0.2l0.5-0.1v6.4c0,0.4,0.2,0.8,0.5,1c0.9,0.4,1.8,0.4,2.7,0c1.6-0.6,2.6-2.1,2.6-3.8
	v-3.3l0.3,0.1c3.6,1.3,6.5,4.6,8,9.1c2.4,7.5,1.4,15.6-2.7,22.4C314,81.1,311.3,82.7,308.2,82.7L308.2,82.7z M304,46.7
	c-0.4,0.1-0.8,0.1-1.2,0.2c-2.8,1.2-4.9,3.6-6.3,7.2c-2.2,6.7-1.9,14,0.9,20.4c2.1,4.4,6.2,7.5,10.2,7.7c2.2,0.1,5.4-0.5,7.9-4.4
	c4-6.6,5-14.6,2.7-21.9c-1.5-4.3-4.1-7.4-7.4-8.7v2.5c0,1.9-1.2,3.6-2.9,4.3c-1,0.5-2.2,0.5-3.2,0c-0.5-0.3-0.8-0.9-0.7-1.4
	L304,46.7z"/>
<path class="st0" d="M427.6,87.8l-3.7-0.1c-0.9,0-1.7-0.6-1.9-1.5c-0.4-1.7-0.8-4.4-1.3-7.6c-4.4,3-8.6,6.1-13.7,7.9
	c-4.6,1.6-13.7,4.1-14.2-3.7c-0.5-7,3.4-15.7,8.2-20c4.1-3.7,9.2-6.2,14.6-7.3c-2.4-6.3-5.5-10.6-10-8.9c-4.2,1.6-4.2-3.8-0.8-5.1
	c7.8-3,13,0.2,15.7,9c3.2,10.3,5,21,7.2,31.6l2.1,0.1C433.9,82.1,430.3,87.8,427.6,87.8z M420,73.4c-0.7-4.2-1.6-8.8-2.8-13
	c-0.1,0-0.1,0-0.2,0c-4.4,0.4-11.4,2.8-14.1,7c-1.5,2.5-6,11.5-3.7,14.5c1.1,1.4,7-0.6,8.4-1.1c2.2-0.8,4.3-1.9,6.3-3.1
	C416,76.3,417.9,74.8,420,73.4L420,73.4z"/>
<path class="st0" d="M399,88.4c-1.4,0.1-2.8-0.3-4.1-1c-1.5-1.1-2.4-2.8-2.4-4.7c-0.5-7.4,3.8-16.1,8.2-20.3c4.1-3.6,9-6.1,14.4-7.3
	c-1.7-4.6-3.7-7.5-5.9-8.4c-1.1-0.5-2.5-0.5-3.6-0.1c-0.9,0.5-2,0.4-2.8-0.1c-0.6-0.6-0.9-1.5-0.7-2.3c0.3-1.4,1.2-2.6,2.6-3.1
	c3.7-1.4,6.8-1.5,9.4-0.2c2.9,1.4,5.2,4.6,6.7,9.3c2.4,8.2,4.4,16.6,5.9,25.1c0.4,2.1,0.8,4.2,1.3,6.3l1.9,0.1
	c0.7-0.1,1.5,0.3,1.9,0.9c0.3,0.9,0.2,2-0.5,2.8c-0.8,1.2-2.2,2.6-3.7,2.6h-0.1l-2.5-0.1h-1.1c-1,0-1.9-0.7-2.1-1.7
	c-0.3-1.4-0.6-3.6-1-6.1l-0.2-1.2l-1.3,0.9c-3.9,2.7-7.6,5.2-12.1,6.8C404.6,87.7,401.8,88.3,399,88.4z M407.5,45.9
	c0.7,0,1.4,0.2,2,0.5c2.4,1.1,4.4,4,6.3,9l0.1,0.3l-0.2,0c-5.4,1.1-10.3,3.6-14.4,7.2c-4.4,4-8.6,12.6-8.1,19.8
	c0,1.7,0.8,3.3,2.1,4.3c2.2,1.5,6.2,1.2,11.8-0.8c4.4-1.6,8.1-4.1,12-6.8l1.6-1.1l0.3-0.2l0.3,1.9c0.4,2.5,0.7,4.7,1,6.1
	c0.1,0.8,0.8,1.4,1.6,1.3h1.2l2.5,0.1l0,0c1.2,0,2.6-1.2,3.3-2.3c0.5-0.6,0.7-1.5,0.5-2.3c-0.3-0.5-0.9-0.7-1.4-0.6l-2.1-0.1h-0.1
	V82c-0.5-2.2-0.9-4.3-1.3-6.5c-1.5-8.4-3.5-16.8-5.9-25c-1.5-4.6-3.6-7.7-6.4-9c-2.5-1.2-5.5-1.1-9,0.2c-1.2,0.4-2.1,1.5-2.3,2.7
	c-0.2,0.7,0,1.4,0.5,1.8c0.7,0.4,1.6,0.5,2.3,0.1C406.1,46,406.8,45.9,407.5,45.9L407.5,45.9z M400.9,82.8c-0.7,0.1-1.3-0.1-1.8-0.6
	c-2.6-3.3,2.5-13,3.6-14.8c2.9-4.5,10.1-6.8,14.3-7.2h0.1h0.2l0.1,0.2c1,3.6,1.9,7.8,2.8,13v0.2l-0.1,0.1c-0.8,0.6-1.6,1.2-2.4,1.8
	c-1.1,0.8-2.3,1.7-3.5,2.5c-2,1.3-4.2,2.4-6.4,3.3C407.7,81.1,403.5,82.8,400.9,82.8L400.9,82.8z M416.9,60.8
	c-3.9,0.4-11.1,2.6-13.8,6.9c-1.7,2.7-5.9,11.4-3.7,14.2c0.9,1.1,6.1-0.4,8.1-1.2c2.2-0.9,4.3-1.9,6.3-3.2c1.2-0.8,2.3-1.6,3.4-2.4
	c0.8-0.6,1.5-1.1,2.3-1.7C418.8,68.3,417.9,64.2,416.9,60.8L416.9,60.8z"/>
<path class="st0" d="M473.5,63.6c-4.6,12.7-14.2,20.2-25.8,22.7c0.5,6.2,1.3,12.3,2.4,18.3c0.6,3.4-5.9,6.8-6.6,2.9
	c-3.8-20.4-8.7-68,20.2-66.8C474.8,41.2,476.8,54.3,473.5,63.6z M450.2,54.1c-2.5,7.8-3.2,17-2.9,26.3c9.6-1.8,18.5-7.9,20.7-19.4
	C470.4,48.3,454.6,40.2,450.2,54.1L450.2,54.1z"/>
<path class="st0" d="M445.5,109.5c-0.3,0-0.6,0-0.9-0.1c-0.8-0.3-1.3-1-1.4-1.8c-2-10.6-7.5-46.3,5.1-60.9c3.8-4.4,9-6.5,15.3-6.2
	c3.6,0,6.9,1.9,8.9,4.9c3,4.5,3.5,11.8,1.1,18.3c-4.4,12.1-13.5,20.1-25.8,22.8c0.5,6.1,1.3,12.1,2.4,18.1c0.1,1.4-0.5,2.8-1.6,3.6
	C447.8,108.9,446.7,109.4,445.5,109.5z M462.6,41c-5.3-0.2-10.4,2-13.9,6c-12.5,14.4-7,49.9-5,60.4c0.1,0.6,0.5,1.2,1.1,1.4
	c1.3,0.2,2.7-0.2,3.6-1.1c1-0.7,1.5-1.9,1.4-3.1c-1.1-6.1-2-12.2-2.5-18.4V86h0.2c12.2-2.5,21.3-10.5,25.7-22.5l0,0
	c2.3-6.3,1.9-13.5-1-17.8c-1.9-2.9-5.1-4.6-8.5-4.6C463.3,41,462.9,41,462.6,41z M447.1,80.6v-0.3c-0.3-10.4,0.6-19.3,2.9-26.4
	c2.1-6.7,6.7-8.1,10.3-7.2c6.3,1.6,9,8.6,7.9,14.2c-2,10.3-9.6,17.5-20.9,19.6L447.1,80.6z M458.2,47c-4,0-6.6,3.5-7.8,7.1l0,0
	c-2.2,7-3.2,15.7-2.9,25.9c10.9-2.1,18.2-9.1,20.2-19.1c1-5.4-1.6-12.1-7.6-13.7C459.5,47.1,458.9,47,458.2,47L458.2,47z"/>
<path class="st0" d="M517.1,87.8l-3.6-0.1c-0.9,0-1.7-0.6-1.9-1.5c-0.4-1.7-0.8-4.4-1.3-7.6c-4.4,3-8.6,6.1-13.7,7.9
	c-4.6,1.6-13.7,4.1-14.2-3.7c-0.5-7,3.4-15.7,8.2-20c4.1-3.7,9.1-6.2,14.5-7.3c-2.4-6.3-5.5-10.6-10-8.9c-4.2,1.6-4.2-3.8-0.8-5.1
	c7.8-3,13,0.2,15.7,9c3.2,10.3,5,21,7.2,31.6l2.1,0.1C523.5,82.1,519.9,87.8,517.1,87.8z M509.5,73.4c-0.7-4.2-1.6-8.8-2.8-13h-0.1
	c-4.4,0.4-11.4,2.8-14.1,7c-1.5,2.5-6,11.5-3.7,14.5c1.1,1.4,7-0.6,8.4-1.1c2.2-0.8,4.4-1.9,6.4-3.1
	C505.6,76.3,507.5,74.8,509.5,73.4z"/>
<path class="st0" d="M488.6,88.4c-1.4,0.1-2.8-0.3-4.1-1c-1.5-1.1-2.4-2.8-2.4-4.7c-0.6-7.4,3.8-16.1,8.2-20.3
	c4.1-3.6,9-6.1,14.4-7.3c-1.8-4.6-3.7-7.5-5.9-8.4c-1.1-0.5-2.5-0.5-3.6-0.1c-0.9,0.5-2,0.4-2.8-0.1c-0.6-0.6-0.9-1.5-0.7-2.3
	c0.3-1.4,1.2-2.6,2.6-3.1c3.7-1.4,6.8-1.5,9.4-0.2c2.9,1.4,5.2,4.6,6.7,9.3c2.4,8.2,4.4,16.6,5.9,25.1c0.4,2.1,0.8,4.2,1.3,6.3
	l1.9,0.1c0.7-0.1,1.5,0.3,1.9,0.9c0.3,0.9,0.2,2-0.5,2.8c-0.8,1.3-2.3,2.6-3.8,2.6l0,0l-2.5-0.1h-1.2c-1,0-1.9-0.7-2.1-1.7
	c-0.3-1.4-0.6-3.7-1-6.2l-0.2-1l-1.3,0.9c-3.9,2.7-7.6,5.2-12.1,6.8C494.1,87.7,491.4,88.3,488.6,88.4z M497,45.9
	c0.7,0,1.4,0.2,2,0.5c2.4,1.1,4.4,4,6.3,9l0.1,0.3l-0.3,0.1c-5.4,1.1-10.3,3.6-14.4,7.2c-4.4,4-8.6,12.6-8.1,19.8
	c0,1.7,0.8,3.3,2.1,4.3c2.2,1.5,6.2,1.2,11.8-0.8c4.4-1.6,8.1-4.1,12-6.8l1.6-1.1l0.3-0.2l0.3,1.8c0.4,2.6,0.7,4.8,1,6.2
	c0.1,0.8,0.8,1.4,1.6,1.3h1.2l2.5,0.1h0.1c1.2,0,2.5-1.2,3.3-2.3c0.5-0.6,0.7-1.5,0.5-2.3c-0.3-0.5-0.9-0.7-1.4-0.6l-2.1-0.1h-0.2
	V82c-0.5-2.2-0.9-4.3-1.3-6.5c-1.5-8.4-3.5-16.8-5.9-25c-1.5-4.6-3.6-7.7-6.4-9c-2.5-1.2-5.5-1.1-9,0.2c-1.2,0.4-2.1,1.5-2.3,2.7
	c-0.2,0.7,0,1.4,0.5,1.8c0.7,0.4,1.6,0.5,2.3,0.1C495.7,46,496.3,45.9,497,45.9L497,45.9z M490.4,82.8c-0.7,0.1-1.3-0.1-1.8-0.6
	c-2.6-3.3,2.5-13,3.6-14.8c2.8-4.5,10.1-6.8,14.2-7.2h0.1h0.2l0.1,0.2c1,3.6,1.9,7.8,2.8,13v0.2l-0.1,0c-0.8,0.6-1.6,1.2-2.5,1.8
	c-1.1,0.8-2.3,1.7-3.5,2.5c-2,1.3-4.2,2.4-6.4,3.3C497.2,81.1,493.1,82.8,490.4,82.8L490.4,82.8z M506.5,60.8
	c-3.9,0.4-11.1,2.6-13.8,6.9c-1.7,2.7-5.9,11.4-3.7,14.2c0.9,1.1,6.1-0.4,8.1-1.2c2.2-0.9,4.3-1.9,6.3-3.2c1.2-0.8,2.3-1.6,3.4-2.4
	c0.8-0.6,1.5-1.1,2.3-1.7C508.3,68.3,507.4,64.2,506.5,60.8L506.5,60.8z"/>
<path class="st0" d="M584.8,88c-8.1,0-14.8,0.1-22.3,0.1c-1,0-2.6,9.5-7,7.2c-3.7-1.9,0.7-7.5-0.1-7.5c-6.2,0-12,0-18.6,0
	c-0.5,0.1-0.9,0-1.4-0.2c-0.2-0.1-0.4-0.2-0.5-0.3l0,0c-0.2-0.2-0.3-0.5-0.3-0.7c0-0.1-0.1-0.2-0.1-0.3c-2.4-13,0.1-26.9-0.3-40.2
	h-4.9c-4,0-0.4-5.7,2.3-5.7h6.7c0.9,0,1.7,0.6,1.8,1.5c0.7,13.2-1.9,27.1,0.2,40.2c5.3,0,10.6,0,15.9,0c-1-12.8-0.4-26.2,0.2-38.9
	c0.2-3.1,6.2-5.4,6-1.3c-0.7,13.1-1.3,27.1,0,40.2H580c-2.3-12.9-1.3-26-0.6-39.1c0-1,0.3-2,1-2.8c1.4-1.1,5.4-0.3,6.5,0.5
	c1.3,1,1.7,1.6,1.1,3.1c-0.7,1.8-2.7,0.7-2.7,1.5c-0.7,12.9-1.4,24.2,1.4,36.8C586.9,83.8,587.6,88.1,584.8,88z"/>
<path class="st0" d="M556.8,96c-0.5,0-1-0.1-1.4-0.4c-2.8-1.5-1.3-4.8-0.6-6.5c0.1-0.3,0.3-0.6,0.4-0.9h-18.5c-0.5,0.1-1,0-1.5-0.2
	c-0.2-0.1-0.4-0.2-0.6-0.3l-0.1-0.1c-0.2-0.2-0.4-0.5-0.4-0.9c-0.1-0.1-0.1-0.2-0.1-0.2c-1.5-8.2-1.1-16.8-0.7-25.1
	c0.2-4.9,0.5-10,0.3-14.9h-4.6l0,0c-0.7,0.1-1.4-0.2-1.8-0.8c-0.3-0.9-0.2-1.9,0.3-2.6c0.8-1.4,2.4-2.8,3.8-2.8h6.7l0,0
	c1.1-0.1,2,0.7,2.1,1.7c0.2,5.6,0.1,11.1-0.3,16.7c-0.4,7.7-0.8,15.7,0.4,23.3h10.2h5.2c-1-12.4-0.4-25.4,0.3-38.7
	c0.1-2,2.7-3.8,4.6-3.7c1.3,0.1,2,1,1.9,2.4c-0.7,13.8-1.3,27.2,0,40h8.8h8.2c-2.1-11.9-1.4-24-0.7-35.8l0.2-3.1
	c-0.1-1.1,0.3-2.1,1-2.9c1.5-1.3,5.7-0.3,6.8,0.5c1.3,1,1.8,1.7,1.1,3.4c-0.4,0.9-1.3,1.4-2.2,1.3c-0.2,0-0.3,0-0.5,0.1
	c-0.7,13-1.4,24.2,1.3,36.8c0.2,1.1,0.7,3.9-0.4,5.3c-0.4,0.5-1,0.8-1.7,0.7l0,0c-4,0-7.7,0-11.3,0.1s-7.2,0.1-11,0.1
	c-0.4,0.6-0.8,1.2-1,1.9c-0.8,2-2,4.8-3.8,5.5C557.4,95.9,557.1,96,556.8,96z M536.7,87.7h18.7c0.1,0,0.2,0.1,0.3,0.2
	c0.2,0.2,0,0.6-0.4,1.4c-0.8,1.7-2.1,4.7,0.3,5.9c0.6,0.3,1.2,0.4,1.9,0.2c1.7-0.6,2.8-3.3,3.6-5.2c0.6-1.6,1-2.2,1.4-2.2l0,0
	c3.8,0,7.2,0,11-0.1s7.3-0.1,11.3-0.1l0,0c0.5,0,1-0.2,1.3-0.6c1-1.2,0.5-4,0.3-4.9c-2.8-12.7-2.1-23.9-1.4-36.9
	c0-0.5,0.6-0.5,1-0.6c0.8,0.1,1.5-0.3,1.8-1c0.5-1.3,0.2-1.9-1-2.8c-1.1-0.8-5-1.6-6.2-0.5c-0.6,0.7-0.9,1.6-0.9,2.6l-0.2,3.1
	c-0.7,11.8-1.4,24.1,0.8,36l0.1,0.3h-8.8h-9.1h-0.2v-0.2c-1.3-12.9-0.8-26.4,0-40.3c0.1-1.2-0.4-1.9-1.5-1.9h-0.1
	c-1.7,0-3.8,1.5-3.9,3.2c-0.7,13.4-1.3,26.4-0.2,38.9v0.3h-5.8h-10.4H540v-0.2c-1.2-7.7-0.8-15.8-0.4-23.6
	c0.4-5.5,0.5-11.1,0.3-16.6c-0.1-0.8-0.8-1.3-1.6-1.3l0,0h-6.7c-1.3,0-2.7,1.3-3.4,2.6c-0.5,0.6-0.6,1.4-0.3,2.1
	c0.3,0.4,0.9,0.6,1.4,0.5h5.1v0.2c0.2,5-0.1,10.2-0.3,15.2c-0.4,8.3-0.8,16.9,0.7,25v0.1c0,0.1,0.1,0.1,0.1,0.2
	c0,0.2,0.1,0.5,0.3,0.6c0.1,0.1,0.3,0.2,0.5,0.3C535.9,87.8,536.3,87.8,536.7,87.7z"/>
<path class="st0" d="M49.5,86.8H20.2l0.2-55.7l23.2,30.3h-8.2L49.5,86.8z M24.3,82.7h18.3L28.4,57.3h6.9L24.4,43.1L24.3,82.7z"/>
<path class="st0" d="M95.3,86.8l-23.4-0.2l-0.5-1.3c-2.1-6.2-1.7-12.9,1-18.8c1.9-4.2,5-7.8,8.8-10.3c-2.3-4.6-2.5-9-0.5-13.7
	c2.2-5.2,6.6-9.1,12.1-10.7l2.5-0.6V86.8z M74.8,82.6l16.4,0.1V36.8c-3,1.6-5.4,4.2-6.8,7.4c-2.9,6.7,1.2,11.6,1.2,11.7l1.5,2.1
	l-2.4,1c-3.9,2-7,5.3-8.7,9.3C74,72.8,73.6,77.8,74.8,82.6z"/>
<polygon class="st0" points="48.7,57.7 67.1,57.5 67.1,61.4 48.7,61.2 "/>
<polygon class="st0" points="56,58.1 56.1,66.6 59.8,66.5 59.6,58.1 "/>
<polygon class="st0" points="62.8,79.2 62.8,69.8 58.1,67.7 53,70.2 53,79.2 49.8,79.2 49.8,68.1 58,64.1 66,67.7 66.1,79.2 "/>
<path class="st0" d="M54.9,72.5c0.5-1.1,1.6-1.7,2.8-1.6c1.3-0.1,2.5,0.5,3.2,1.5L60.7,92c-0.6,1-1.7,1.7-2.8,1.6
	c-1.1,0.1-2.2-0.6-2.6-1.6L54.9,72.5z"/>
<path class="st0" d="M58,42.5c-5,0-9-4-9-9s4-9,9-9c5,0,9,4,9,9v0C67,38.4,63,42.5,58,42.5z M58,27.8c-3.2,0-5.7,2.6-5.7,5.7
	s2.6,5.7,5.7,5.7c3.2,0,5.7-2.6,5.7-5.7c0,0,0,0,0,0C63.8,30.3,61.2,27.8,58,27.8z"/>
<rect x="20.5" y="83.3" class="st0" width="74.5" height="4"/>
<path class="st0" d="M58.1,116.2C26,116.2,0,90.2,0,58.1S26,0,58.1,0s58.1,26,58.1,58.1l0,0C116.1,90.1,90.1,116.1,58.1,116.2z
	 M58.1,5C28.8,5,5,28.8,5,58.1s23.8,53.1,53.1,53.1s53.1-23.8,53.1-53.1C111.1,28.8,87.4,5,58.1,5z"/>
<path class="st0" d="M383.2,75.2c-4,7.5-13,15.3-22.2,16.5c-27.6,3.6-14.2-38.1-17.8-57.5c-0.1-0.4-3.5,0.1-5,0.1
	c-4.1,0-0.4-4.8,2.4-4.8c9.4,0,28.8-2.7,36.8,3.6c8.2,6.4,0.9,14.5-7.8,21.2C380.3,57.8,389.2,63.9,383.2,75.2z M364.2,58.5
	c-0.2-0.1-0.3-0.1-0.4-0.2c-4.5,3-10,5.5-12,7c-0.9,0.7-2.1,1.8-3,1.7c-0.3,5,0.3,10.1,1.8,14.9c3.4,10.6,19.8,2.5,24.1-3
	C383.6,67.7,376,61.9,364.2,58.5z M349.6,34c0.1,11.2,0.1,18.7-0.6,28c6.9-4.7,36.4-21.3,20.4-26.3C363.8,34,356,33.9,349.6,34z"/>
<path class="st0" d="M357.7,92.5c-3.5,0.2-6.8-1-9.4-3.3c-6.8-6.3-6.1-20.3-5.4-34c0.4-7.7,0.8-15-0.2-20.6c-0.8,0-1.6,0-2.4,0.1
	c-0.8,0.1-1.6,0.1-2.2,0.1l0,0c-0.8,0.1-1.6-0.2-2.1-0.9c-0.3-0.7-0.2-1.5,0.2-2.1c0.9-1.6,2.5-2.6,4.3-2.8c1.9,0,4.3-0.1,6.8-0.2
	c10-0.5,23.8-1.2,30.3,3.9c2.5,2,3.8,4.3,3.8,6.8c0,4.2-3.6,9-10.9,14.6c7.8,2.6,12.6,6.1,14.4,10.4c1.3,3.2,0.9,6.9-1.2,11l0,0
	c-3.9,7.3-12.9,15.5-22.6,16.7C360,92.4,358.8,92.5,357.7,92.5z M342.4,33.6c0.9,0,1.2,0.2,1.3,0.6c1.1,5.7,0.7,13.2,0.3,21.1
	c-0.7,13.3-1.4,27.2,5.1,33.1c2.8,2.6,6.7,3.5,11.9,2.8c9.2-1.2,18.1-9.3,21.8-16.2c2-3.8,2.4-7.2,1.2-10.1
	c-1.7-4.2-6.6-7.6-14.7-10.1l-0.9-0.3l0.8-0.6c7.4-5.6,11.2-10.4,11.2-14.4c0-2.2-1.1-4.2-3.4-6c-6.2-4.9-19.7-4.2-29.6-3.7
	c-2.5,0.1-4.9,0.2-6.8,0.2c-1.4,0.2-2.7,1-3.4,2.3c-0.2,0.3-0.3,0.7-0.2,1.1c0.1,0.2,0.6,0.4,1.2,0.4l0,0c0.5,0,1.3-0.1,2.1-0.1
	C341.1,33.6,341.9,33.6,342.4,33.6z M358,87.6c-0.6,0-1.3,0-1.9-0.2c-2.9-0.5-5.2-2.6-6-5.4c-1.6-4.9-2.2-10-1.9-15.1v-0.5l0.5,0.1
	c0.6,0.1,1.5-0.7,2.2-1.2l0.5-0.4c1.5-1,3.1-2,4.8-2.8c2.3-1.2,4.9-2.7,7.3-4.2l0.2-0.2l0.3,0.1l0.2,0.1c0,0,0.1,0.1,0.1,0.1l0,0
	c8.3,2.4,13,5.6,14.3,9.7c1,3.3-0.1,7.1-3.6,11.5C372.2,82.9,364.2,87.6,358,87.6L358,87.6z M349.2,67.5c-0.3,4.8,0.4,9.7,1.8,14.3
	c0.7,2.5,2.7,4.3,5.2,4.7c6,1.1,15-4,18.1-7.9s4.3-7.6,3.4-10.5c-1.2-3.8-5.7-6.7-13.6-9c-0.1,0-0.2-0.1-0.3-0.1
	c-2.3,1.5-4.8,2.9-7.1,4.1c-1.6,0.8-3.2,1.7-4.6,2.7l-0.5,0.4C350.9,66.8,350.1,67.2,349.2,67.5L349.2,67.5z M348.4,63.1l0.1-1
	c0.7-9.4,0.7-16.8,0.6-28v-0.5h0.5c5.7-0.1,14-0.1,20,1.8c3.1,1,4.8,2.4,5,4.4c0.8,5.7-10.8,13.6-21.8,20.5
	c-1.4,0.9-2.7,1.7-3.5,2.3L348.4,63.1z M350.1,34.6c0,10.6,0,17.8-0.5,26.6c0.8-0.5,1.7-1.1,2.7-1.7c7.2-4.6,22-14,21.3-19.6
	c-0.2-1.5-1.7-2.7-4.3-3.5C363.6,34.5,355.7,34.4,350.1,34.6L350.1,34.6z"/>
<path class="st0" d="M187,75.2c-4,7.5-13,15.3-22.2,16.5c-27.6,3.6-14.2-38.1-17.8-57.5c-0.1-0.4-3.5,0.1-5,0.1
	c-4.1,0-0.4-4.8,2.4-4.8c9.4,0,28.8-2.7,36.8,3.6c8.2,6.4,0.9,14.5-7.8,21.2C184.1,57.8,193,63.9,187,75.2z M168,58.5
	c-0.2-0.1-0.3-0.1-0.4-0.2c-4.5,3-10,5.5-12,7c-0.9,0.7-2.1,1.8-3,1.7c-0.3,5,0.3,10.1,1.8,14.9c3.4,10.6,19.8,2.5,24.1-3
	C187.3,67.7,179.8,61.9,168,58.5z M153.4,34c0.1,11.2,0.1,18.7-0.6,28c6.9-4.7,36.4-21.3,20.4-26.3C167.6,34,159.8,33.9,153.4,34z"
	/>
<path class="st0" d="M161.6,92.5c-3.4,0.2-6.8-1-9.4-3.3c-6.8-6.3-6.1-20.3-5.4-34c0.4-7.7,0.8-15-0.2-20.6c-0.8,0-1.6,0-2.4,0.1
	c-0.8,0.1-1.6,0.1-2.2,0.1l0,0c-0.8,0.1-1.6-0.2-2.1-0.9c-0.3-0.7-0.2-1.5,0.2-2.1c0.9-1.6,2.5-2.6,4.3-2.8c1.9,0,4.3-0.1,6.8-0.2
	c10.1-0.5,23.8-1.2,30.3,3.9c2.5,2,3.8,4.3,3.8,6.8c0,4.2-3.6,9-10.8,14.6c7.8,2.6,12.6,6.1,14.4,10.4c1.3,3.2,0.9,6.9-1.2,11l0,0
	c-3.9,7.3-12.9,15.4-22.6,16.7C163.8,92.4,162.7,92.4,161.6,92.5z M146.2,33.6c0.9,0,1.2,0.2,1.3,0.6c1.1,5.7,0.7,13.2,0.3,21.1
	c-0.7,13.4-1.4,27.2,5.1,33.2c2.8,2.6,6.7,3.5,11.9,2.8c9.2-1.2,18.1-9.2,21.8-16.2l0,0c2-3.8,2.4-7.2,1.2-10.1
	c-1.7-4.2-6.6-7.6-14.7-10.1l-0.9-0.3l0.8-0.6c7.4-5.6,11.2-10.4,11.2-14.4c0-2.2-1.1-4.2-3.4-6c-6.2-4.9-19.7-4.2-29.6-3.8
	c-2.5,0.1-4.9,0.2-6.8,0.2c-1.4,0.2-2.7,1-3.4,2.3c-0.3,0.5-0.4,0.9-0.2,1.1s0.6,0.4,1.2,0.4l0,0c0.5,0,1.3-0.1,2.1-0.1
	C144.9,33.6,145.6,33.6,146.2,33.6z M161.8,87.6c-0.6,0-1.3,0-1.9-0.2c-2.9-0.5-5.2-2.5-6-5.4c-1.6-4.9-2.2-10-1.9-15.1v-0.5
	l0.5,0.1c0.6,0.1,1.5-0.7,2.2-1.2l0.5-0.4c1.5-1,3.1-2,4.8-2.8c2.3-1.2,4.9-2.7,7.3-4.2l0.3-0.3l0.3,0.1l0.2,0.1
	c0,0,0.1,0.1,0.1,0.1l0,0c8.3,2.4,13,5.6,14.3,9.7c1,3.3-0.2,7.1-3.6,11.5C176,82.9,168,87.6,161.8,87.6L161.8,87.6z M153,67.5
	c-0.3,4.8,0.4,9.7,1.8,14.3c0.7,2.5,2.7,4.3,5.2,4.7c6,1.1,15-4,18.1-7.9s4.3-7.6,3.4-10.5c-1.2-3.8-5.7-6.7-13.6-9
	c-0.1,0-0.2-0.1-0.3-0.1c-2.3,1.5-4.8,2.9-7.1,4.1c-1.6,0.8-3.2,1.7-4.6,2.7l-0.5,0.4C154.7,66.8,153.9,67.2,153,67.5L153,67.5z
	 M152.2,63.1l0.1-1c0.7-9.4,0.7-16.8,0.6-28v-0.5h0.5c5.7-0.1,14-0.1,20,1.8c3.1,1,4.8,2.4,5,4.4c0.7,5.6-10.8,13.5-21.8,20.4
	c-1.4,0.9-2.7,1.7-3.5,2.3L152.2,63.1z M153.9,34.6c0,10.6,0,17.8-0.6,26.6c0.8-0.5,1.7-1.1,2.7-1.7c7.1-4.6,22-14,21.3-19.6
	c-0.2-1.5-1.7-2.7-4.3-3.5C167.4,34.5,159.5,34.4,153.9,34.6L153.9,34.6z"/>
</svg>
